<svg width="186" height="153" viewBox="0 0 186 153" fill="none" xmlns="http://www.w3.org/2000/svg">
<path d="M62.1212 59.3361C61.9816 59.3909 61.8316 59.414 61.6819 59.4039C61.3341 59.3378 60.9995 59.215 60.6914 59.0405C59.8886 57.3191 59.0872 55.5977 58.2871 53.8764C54.7605 46.228 51.2378 38.5797 47.7951 30.8914L42.6389 19.3569C40.9615 15.4949 39.2441 11.6488 37.5986 7.7666C39.4917 11.5329 41.3129 15.3312 43.1741 19.1094L48.6338 30.504C52.2723 38.1004 55.8228 45.7368 59.3775 53.3732C59.9805 54.6832 60.5835 55.9932 61.1867 57.3032C60.8831 57.3111 60.6834 57.3711 60.6555 57.4629C60.6115 57.6028 61.0229 57.7545 61.8137 58.6691C61.9175 58.8928 62.0174 59.1124 62.1212 59.3361Z" fill="white"/>
<path d="M80.0658 99.4823C78.1767 95.7201 76.3515 91.9218 74.4943 88.1435L69.0346 76.749C67.3332 73.1983 65.6505 69.6411 63.9863 66.0771C64.4616 66.1531 64.9089 66.217 65.2963 66.2688C65.3003 66.2649 65.3003 66.2649 65.3003 66.2688C66.834 69.6278 68.3557 72.992 69.8653 76.3615L75.0215 87.8959C76.703 91.758 78.4203 95.6042 80.0658 99.4823Z" fill="white"/>
<path d="M80.5096 57.1209L85.8105 57.9259C87.5666 58.1877 89.3026 58.4716 91.0409 58.7459L90.8171 58.8859L91.2081 57.4888C91.2215 57.4407 91.2516 57.3988 91.293 57.3708C91.3344 57.3427 91.3844 57.3302 91.4341 57.3354L91.4388 57.336L92.8766 57.4892C93.3829 57.5176 93.8805 57.6334 94.3472 57.8317C95.2997 58.2494 96.0533 59.0198 96.4502 59.9811C96.5485 60.2186 96.6246 60.4647 96.6775 60.7163C96.7041 60.8419 96.7243 60.9688 96.7395 61.0963C96.7569 61.217 96.7659 61.3247 96.7897 61.437C96.8622 61.8767 97.0288 62.2956 97.2781 62.6649C97.5485 63.0165 97.8941 63.3032 98.2896 63.504C98.6851 63.7048 99.1204 63.8147 99.5639 63.8257L99.3388 63.907C100.659 62.7159 102.104 61.6721 103.65 60.7938C105.173 59.9027 106.755 59.1156 108.384 58.4379C109.203 58.1135 110.018 57.778 110.854 57.5013C111.68 57.1965 112.524 56.9472 113.366 56.6934C114.205 56.43 115.066 56.2416 115.914 56.0123C116.769 55.8115 117.632 55.6441 118.489 55.4515L118.404 55.5133C118.613 55.1239 118.78 54.7137 118.904 54.2894C119.036 53.8701 119.097 53.4315 119.082 52.9922C119.071 52.5617 118.928 52.145 118.672 51.799C118.388 51.4708 118.022 51.225 117.611 51.0874L117.602 51.0836C117.591 51.079 117.581 51.0725 117.573 51.0644C116.356 49.8771 115.115 48.7133 113.884 47.5404C112.651 46.3688 111.412 45.2047 110.165 44.0482L106.412 40.5939C105.153 39.4598 103.896 38.2884 102.59 37.2526L102.585 37.2493C102.536 37.2103 102.505 37.1534 102.497 37.0911C102.49 37.0288 102.508 36.9661 102.547 36.917C102.559 36.9022 102.572 36.8889 102.587 36.8772L105.757 34.4117L105.66 34.6957L102.88 24.3803L103.377 24.5655C101.998 25.5199 100.631 26.4994 99.2652 27.4762C97.8988 28.4532 96.5436 29.4446 95.1994 30.4505C93.8587 31.4599 92.5304 32.4857 91.2411 33.5529C90.5976 34.0872 89.9666 34.6354 89.3578 35.1997C89.0541 35.482 88.7565 35.771 88.4833 36.0725C88.2122 36.3452 87.9837 36.6572 87.8054 36.9979L87.8255 36.8979C87.7882 37.622 87.7068 38.3431 87.5816 39.0573C87.4605 39.7731 87.2839 40.4785 87.0532 41.1669C86.8261 41.8708 86.4927 42.5358 86.0645 43.1389C85.6205 43.7753 84.9646 44.233 84.214 44.4299L84.2742 44.4066C83.8147 44.7145 83.4102 45.0975 83.0778 45.5396C82.8987 45.758 82.7432 45.9974 82.5834 46.2318C82.4441 46.4803 82.2821 46.7163 82.1604 46.9753C81.6394 48.0019 81.257 49.0932 81.0233 50.2205C80.8758 50.7793 80.8105 51.3556 80.7086 51.9253C80.6363 52.4994 80.5857 53.0775 80.5349 53.6552C80.5174 54.2338 80.4858 54.8181 80.4798 55.3936L80.5096 57.1209ZM80.4617 57.1641L80.3549 55.4008C80.3403 54.8124 80.3521 54.2323 80.3494 53.6466C80.3803 53.0635 80.4112 52.4787 80.4642 51.8959C80.5491 51.3168 80.5888 50.7293 80.7279 50.1574C80.9404 48.9957 81.3064 47.8674 81.816 46.802C81.9359 46.531 82.0983 46.2799 82.2379 46.0177C82.3992 45.7678 82.5564 45.5134 82.7404 45.2773C83.0975 44.7777 83.5393 44.3444 84.0457 43.9969C84.0586 43.9883 84.0729 43.9819 84.088 43.978L84.106 43.9735C84.7398 43.7879 85.2886 43.3864 85.6573 42.8386C86.0447 42.2731 86.3436 41.6519 86.5439 40.9964C86.7554 40.3322 86.9149 39.6525 87.021 38.9635C87.1312 38.2744 87.1997 37.5793 87.226 36.882L87.2264 36.8705C87.2275 36.8399 87.2341 36.8099 87.246 36.7818C87.4429 36.3683 87.7052 35.9895 88.023 35.6598C88.3099 35.334 88.6122 35.0322 88.9199 34.7376C89.534 34.147 90.1777 33.5969 90.8245 33.0526C92.1232 31.9707 93.4547 30.9359 94.798 29.918C97.4873 27.8855 100.225 25.9225 103.011 24.0291L103.013 24.0277C103.084 23.9794 103.171 23.9613 103.255 23.9774C103.339 23.9934 103.414 24.0423 103.462 24.1133C103.483 24.1442 103.499 24.1783 103.508 24.2143L106.183 34.5576L106.184 34.5612C106.197 34.6125 106.195 34.6665 106.177 34.7164C106.16 34.7664 106.128 34.81 106.086 34.8418L102.872 37.2507L102.87 36.8754C104.21 37.9772 105.422 39.1516 106.67 40.3157L110.36 43.8415L117.714 50.9181L117.676 50.8952C118.127 51.0416 118.529 51.3075 118.84 51.6646C119.129 52.0443 119.293 52.5039 119.31 52.9805C119.33 53.4454 119.271 53.9102 119.136 54.3555C119.011 54.7997 118.839 55.2296 118.624 55.6379C118.617 55.6529 118.606 55.666 118.592 55.6764C118.579 55.6868 118.563 55.6942 118.547 55.6981L118.539 55.6999C117.688 55.9002 116.836 56.0953 115.989 56.3123C115.151 56.5602 114.302 56.7671 113.475 57.0483C112.645 57.3202 111.813 57.5862 111.001 57.9069C110.179 58.1997 109.38 58.5504 108.578 58.8893C106.985 59.5942 105.435 60.3897 103.934 61.2719C103.189 61.7201 102.455 62.1864 101.753 62.696C101.048 63.19 100.375 63.7275 99.7373 64.3053L99.728 64.314C99.6993 64.3408 99.6652 64.3611 99.6279 64.3737C99.5907 64.3862 99.5512 64.3906 99.5121 64.3866C98.9977 64.3415 98.4951 64.2071 98.0268 63.9896C97.5473 63.7601 97.1366 63.4086 96.8358 62.9704C96.5467 62.536 96.3548 62.0444 96.2733 61.5291C96.2482 61.4053 96.2373 61.2723 96.2214 61.1544C96.209 61.0425 96.1923 60.9311 96.1699 60.8207C96.1256 60.6 96.0609 60.3838 95.9766 60.175C95.6363 59.3296 94.9817 58.6489 94.1502 58.2759C93.7293 58.0926 93.2807 57.9811 92.8229 57.9462L91.3888 57.7615L91.6195 57.6087L91.198 58.9969L91.1967 59.0014C91.1827 59.0474 91.1523 59.0867 91.1113 59.1116C91.0702 59.1366 91.0214 59.1457 90.9741 59.137C89.2051 58.8117 87.4339 58.4959 85.6828 58.158L80.4617 57.1641Z" fill="white"/>
<path d="M102.729 37.0638C102.219 36.7926 101.725 36.4976 101.233 36.2022C100.738 35.9096 100.255 35.6003 99.768 35.2985L98.3174 34.3789C98.077 34.2231 97.8319 34.077 97.5845 33.9347C97.3466 33.7771 97.0853 33.6581 96.8103 33.582C97.3866 33.6658 97.9405 33.8634 98.4398 34.1632C98.9563 34.4241 99.4513 34.7209 99.9399 35.026C100.425 35.3363 100.906 35.6538 101.369 35.9964C101.834 36.3356 102.294 36.683 102.729 37.0638Z" fill="white"/>
<path d="M105.804 34.2708C105.825 34.2417 105.855 34.2197 105.889 34.2076C105.924 34.1955 105.961 34.1938 105.996 34.2027C106.056 34.2118 106.116 34.2269 106.174 34.2477C106.285 34.2883 106.394 34.3361 106.5 34.3909C106.71 34.4978 106.91 34.6203 107.108 34.7445C107.503 34.995 107.887 35.2609 108.266 35.5315C109.024 36.0755 109.754 36.6541 110.485 37.2316C111.949 38.3838 113.348 39.6085 114.754 40.8302C114.786 40.8574 114.811 40.8916 114.827 40.9301C114.843 40.9685 114.85 41.0101 114.847 41.0516L114.846 41.0601C114.8 41.6948 114.773 42.3295 114.758 42.9591C114.731 43.5738 114.784 44.1895 114.916 44.7905C114.998 45.0749 115.125 45.3447 115.29 45.5902L115.408 45.7954C115.427 45.8263 115.454 45.8511 115.487 45.8667C115.602 45.9213 115.726 45.9523 115.853 45.9576C116.469 45.9715 117.084 45.8936 117.677 45.7264L117.681 45.7253C117.722 45.7157 117.764 45.7188 117.802 45.734C117.84 45.7492 117.873 45.7758 117.896 45.8103L118.044 46.0362C118.096 46.1064 118.154 46.1687 118.21 46.2337C118.256 46.2863 118.313 46.3282 118.377 46.3564C118.441 46.3846 118.51 46.3984 118.58 46.3969C118.728 46.3566 118.856 46.2625 118.939 46.1328C119.045 45.989 119.132 45.8316 119.197 45.6648L119.198 45.6616C119.208 45.6359 119.226 45.6138 119.249 45.5982C119.272 45.5826 119.299 45.5742 119.327 45.5741C119.355 45.574 119.382 45.5823 119.405 45.5977C119.428 45.6132 119.445 45.6352 119.456 45.6609L119.556 45.9098C119.595 45.9865 119.639 46.0611 119.686 46.1332C119.721 46.1956 119.773 46.2473 119.836 46.2826C119.898 46.318 119.969 46.3357 120.041 46.3339C120.197 46.2922 120.335 46.1995 120.433 46.0706C120.551 45.9358 120.653 45.7882 120.737 45.6305C120.744 45.6175 120.753 45.606 120.765 45.5966C120.776 45.5872 120.789 45.5801 120.803 45.5758C120.817 45.5714 120.832 45.5699 120.846 45.5712C120.861 45.5726 120.875 45.5768 120.888 45.5836C120.906 45.5932 120.92 45.6069 120.931 45.6236C121.018 45.771 121.118 45.9102 121.23 46.0395C121.277 46.0975 121.336 46.1453 121.402 46.1802C121.468 46.215 121.54 46.2362 121.615 46.2423C121.689 46.2287 121.759 46.1989 121.82 46.1551C121.882 46.1112 121.932 46.0545 121.969 45.9888C122.064 45.8482 122.138 45.6949 122.189 45.5336C122.195 45.5158 122.206 45.4999 122.22 45.4877C122.234 45.4755 122.252 45.4674 122.27 45.4643C122.289 45.4613 122.308 45.4634 122.325 45.4704C122.343 45.4774 122.358 45.489 122.369 45.504C122.493 45.7059 122.685 45.8568 122.91 45.9296C123.114 45.9655 123.309 45.7972 123.443 45.5965C123.578 45.3913 123.663 45.1574 123.691 44.9135C123.718 44.6697 123.71 44.3983 123.718 44.1426C123.721 43.6306 123.661 43.1202 123.539 42.6229C123.483 42.3881 123.381 42.1667 123.24 41.9714C123.186 41.89 123.114 41.8224 123.03 41.7741C122.945 41.7258 122.85 41.6983 122.753 41.6936L122.732 41.6963C122.724 41.6973 122.715 41.697 122.707 41.6956C122.627 41.6835 122.553 41.6483 122.493 41.5942C122.457 41.5639 122.422 41.5312 122.39 41.4965C122.328 41.4321 122.275 41.3685 122.223 41.3041C122.12 41.1753 122.025 41.0455 121.932 40.9144C121.748 40.6524 121.573 40.3867 121.401 40.1196C121.061 39.5838 120.738 39.0397 120.418 38.4935C120.111 37.9356 119.768 37.4272 119.427 36.8927L118.411 35.3046C117.724 34.2492 117.04 33.1916 116.337 32.1477C115.646 31.0961 114.953 30.0454 114.235 29.0141C113.529 27.9729 112.777 26.9684 112.036 25.9573C111.305 24.9512 110.485 24.0126 109.586 23.1526C109.16 22.7358 108.648 22.4184 108.085 22.2234C107.809 22.1815 107.526 22.2139 107.267 22.3174C106.978 22.4186 106.698 22.5429 106.43 22.6892C105.337 23.3041 104.306 24.0239 103.352 24.8384C103.349 24.8412 103.345 24.8434 103.341 24.8448C103.337 24.8462 103.333 24.8468 103.329 24.8465C103.324 24.8463 103.32 24.8452 103.316 24.8434C103.313 24.8415 103.309 24.8389 103.306 24.8358C103.301 24.8294 103.298 24.8213 103.299 24.813C103.299 24.8047 103.302 24.7969 103.308 24.791C104.209 23.8948 105.203 23.0965 106.272 22.4095C106.55 22.2402 106.841 22.0937 107.142 21.9714C107.466 21.8266 107.823 21.7738 108.174 21.8189C108.821 21.9959 109.416 22.3236 109.911 22.7751C110.863 23.6303 111.735 24.5693 112.519 25.5808C113.311 26.5722 114.056 27.5978 114.778 28.6354C115.144 29.1516 115.503 29.6722 115.854 30.1973C116.209 30.7202 116.566 31.2417 116.905 31.774C117.593 32.8336 118.261 33.9051 118.932 34.9746L119.927 36.5906C120.255 37.1246 120.596 37.6763 120.882 38.2321C121.182 38.784 121.49 39.3309 121.806 39.8727C121.963 40.1432 122.123 40.4123 122.29 40.6733C122.373 40.8038 122.459 40.9319 122.548 41.0537C122.592 41.1141 122.638 41.1738 122.683 41.225C122.703 41.2491 122.725 41.2719 122.748 41.2932C122.764 41.3138 122.791 41.3131 122.737 41.3077L122.691 41.3097C122.857 41.3054 123.021 41.3448 123.167 41.4238C123.313 41.5029 123.436 41.6188 123.523 41.7601C123.683 41.9962 123.795 42.2615 123.851 42.5409C123.96 43.0684 124.003 43.6074 123.979 44.1455C123.961 44.4136 123.958 44.6687 123.926 44.9462C123.889 45.2255 123.788 45.4924 123.629 45.7253C123.548 45.8455 123.446 45.9502 123.328 46.0346C123.197 46.1274 123.035 46.1658 122.876 46.1417C122.595 46.0588 122.356 45.8741 122.204 45.6237L122.384 45.594C122.324 45.7747 122.238 45.9457 122.129 46.1019C122.075 46.1911 122.002 46.2675 121.916 46.3262C121.83 46.3849 121.732 46.4244 121.63 46.4421C121.525 46.4404 121.422 46.4168 121.327 46.3728C121.233 46.3288 121.148 46.2653 121.079 46.1865C120.953 46.0474 120.839 45.8966 120.741 45.7362L120.935 45.7293C120.845 45.906 120.735 46.0717 120.608 46.2233C120.477 46.3973 120.291 46.521 120.079 46.5735C119.963 46.5843 119.847 46.5632 119.742 46.5125C119.637 46.4619 119.547 46.3835 119.483 46.286C119.425 46.2013 119.372 46.1136 119.323 46.0262L119.198 45.7569L119.457 45.753C119.392 45.9502 119.3 46.1376 119.184 46.31C119.063 46.5119 118.868 46.6594 118.641 46.722C118.519 46.7382 118.395 46.7265 118.278 46.6876C118.161 46.6488 118.055 46.5839 117.967 46.4979C117.892 46.4217 117.815 46.3449 117.749 46.264L117.567 46.0137L117.786 46.0976C117.152 46.309 116.49 46.4223 115.822 46.4335C115.628 46.4322 115.436 46.3903 115.258 46.3107C115.145 46.2576 115.049 46.175 114.979 46.0716L114.847 45.866C114.646 45.5844 114.493 45.2712 114.395 44.9394C114.238 44.2901 114.169 43.6228 114.188 42.9552C114.183 42.3029 114.235 41.6576 114.291 41.0148L114.383 41.2447C113.698 40.6212 113.007 40.0023 112.31 39.3882L110.219 37.5499C109.521 36.9389 108.814 36.3397 108.097 35.7526C107.739 35.458 107.378 35.1679 107.006 34.8937C106.82 34.7567 106.63 34.6255 106.436 34.5034C106.341 34.4417 106.241 34.3864 106.138 34.3377C106.044 34.2949 105.909 34.2439 105.86 34.3024L105.856 34.3074C105.851 34.3135 105.843 34.3175 105.835 34.3186C105.827 34.3196 105.819 34.3177 105.813 34.313C105.806 34.3084 105.802 34.3015 105.8 34.2937C105.798 34.2859 105.8 34.2777 105.804 34.2708V34.2708Z" fill="white"/>
<path d="M105.794 34.1449C106.245 33.6379 106.738 33.1703 107.268 32.7475C107.531 32.5366 107.796 32.3281 108.071 32.1325C108.343 31.932 108.63 31.7521 108.92 31.5693C108.492 32.0985 108.007 32.5775 107.472 32.9971C106.949 33.431 106.388 33.8153 105.794 34.1449Z" fill="white"/>
<path d="M122.721 41.5028C122.527 41.4792 122.473 41.6958 122.438 41.848C122.405 42.0182 122.384 42.1902 122.374 42.3631C122.35 42.7113 122.351 43.0659 122.348 43.4192L122.341 44.4864C122.332 44.8436 122.325 45.2025 122.286 45.5649C122.11 44.8627 122.023 44.1412 122.026 43.4173C122.026 43.0522 122.059 42.6879 122.126 42.329C122.16 42.1457 122.215 41.9668 122.29 41.7956C122.333 41.7089 122.388 41.6287 122.454 41.5572C122.485 41.5182 122.529 41.4913 122.577 41.4813C122.626 41.4714 122.677 41.479 122.721 41.5028Z" fill="white"/>
<path d="M120.69 41.978C120.827 42.584 120.906 43.202 120.923 43.8231C120.955 44.4437 120.925 45.066 120.835 45.6808C120.696 45.075 120.618 44.4569 120.601 43.8357C120.57 43.2151 120.6 42.5929 120.69 41.978Z" fill="white"/>
<path d="M117.653 44.6618C117.697 44.6538 117.752 44.6458 117.808 44.6338C117.792 45.0572 117.776 45.4845 117.752 45.9119C117.752 45.9177 117.749 45.923 117.744 45.9267C117.74 45.9304 117.734 45.9323 117.728 45.9318C117.724 45.9312 117.719 45.9288 117.716 45.9251C117.713 45.9214 117.712 45.9167 117.713 45.9119C117.689 45.4965 117.669 45.0812 117.653 44.6618Z" fill="white"/>
<path d="M122.334 41.9648C122.335 41.9674 122.336 41.9702 122.336 41.9731C122.336 41.976 122.335 41.9788 122.334 41.9814C122.333 41.9841 122.331 41.9864 122.329 41.9884C122.327 41.9903 122.325 41.9918 122.322 41.9928C122.319 41.9943 122.315 41.9947 122.311 41.994C122.308 41.9933 122.304 41.9914 122.302 41.9888C122.181 41.8672 122.049 41.7575 121.907 41.6613C121.79 41.5805 121.649 41.5412 121.507 41.5494C121.375 41.5754 121.254 41.6409 121.16 41.7371C121.05 41.8384 120.955 41.9539 120.876 42.0806L120.864 42.0966C120.85 42.1196 120.832 42.1396 120.811 42.1555C120.789 42.1714 120.765 42.1829 120.739 42.1892C120.713 42.1955 120.686 42.1966 120.659 42.1923C120.633 42.1881 120.607 42.1786 120.585 42.1645C120.559 42.1499 120.537 42.1293 120.521 42.1045C120.45 41.9749 120.353 41.8612 120.236 41.7705C120.119 41.6799 119.985 41.6141 119.842 41.5774C119.684 41.5751 119.529 41.6164 119.394 41.6968C119.259 41.7771 119.148 41.8934 119.075 42.0327C119.067 42.045 119.056 42.0548 119.043 42.0606C119.037 42.0643 119.03 42.0657 119.023 42.0646C119.02 42.0642 119.017 42.0628 119.015 42.0606C119.008 42.0617 119.001 42.0603 118.995 42.0566C118.985 42.0508 118.977 42.0425 118.971 42.0327C118.872 41.8249 118.706 41.6563 118.5 41.5534C118.418 41.5249 118.329 41.524 118.247 41.5507C118.165 41.5774 118.094 41.6302 118.044 41.7012C117.983 41.7723 117.937 41.8552 117.909 41.9448C117.895 41.9919 117.884 42.04 117.877 42.0886V42.2683L117.861 42.9433C117.805 42.9473 117.753 42.9513 117.701 42.9513C117.665 42.9513 117.629 42.9553 117.593 42.9553L117.573 42.2683L117.569 42.0846C117.568 42.0124 117.574 41.9402 117.585 41.8689C117.614 41.7213 117.679 41.5829 117.773 41.4655C117.876 41.3441 118.016 41.2611 118.172 41.2299C118.251 41.217 118.332 41.2206 118.41 41.2405C118.488 41.2605 118.56 41.2963 118.624 41.3457C118.792 41.4981 118.928 41.6828 119.023 41.8889C119.103 41.7599 119.199 41.6406 119.307 41.5334C119.448 41.382 119.64 41.2881 119.846 41.2698C120.059 41.2598 120.269 41.3232 120.441 41.4496C120.521 41.5095 120.597 41.5734 120.668 41.6373C120.736 41.5562 120.813 41.4825 120.896 41.4177C121.066 41.2765 121.282 41.2026 121.503 41.21C121.608 41.2174 121.711 41.246 121.805 41.2941C121.899 41.3421 121.983 41.4086 122.05 41.4895C122.176 41.6274 122.272 41.789 122.334 41.9648Z" fill="white"/>
<path d="M119.254 42.9086C119.154 42.9045 119.054 42.9006 118.947 42.9006C118.949 42.6197 118.972 42.3395 119.014 42.0618C119.015 42.0417 119.018 42.0216 119.022 42.002C119.03 42.0218 119.034 42.0418 119.042 42.0618C119.132 42.3389 119.203 42.6218 119.254 42.9086Z" fill="white"/>
<path d="M119.326 45.7071C119.174 45.2508 119.073 44.7794 119.022 44.3012C119.15 44.2534 119.274 44.2014 119.39 44.1455C119.428 44.6668 119.407 45.1907 119.326 45.7071Z" fill="white"/>
<path d="M99.8078 65.3813L99.5361 64.1031C99.5361 64.1031 104.001 59.0029 117.732 55.696L118.515 55.5762C119.057 55.9258 119.58 56.3044 120.081 56.7104C119.166 56.8622 118.248 57.0379 117.333 57.2017C116.426 57.4133 115.512 57.613 114.609 57.8407L113.263 58.2201L112.588 58.4118L111.925 58.6315L111.118 58.8991C111.077 58.881 111.031 58.8768 110.987 58.887C110.96 58.8939 110.934 58.9064 110.912 58.9235C110.89 58.9407 110.872 58.9623 110.859 58.9869L110.595 59.0748C110.156 59.2306 109.725 59.4023 109.285 59.5661C108.147 60.0253 107.021 60.5246 105.922 61.0757C105.811 60.7243 105.711 60.3689 105.631 60.0054C105.658 60.3867 105.711 60.7657 105.791 61.1397C105.267 61.4072 104.744 61.6869 104.237 61.9864L103.047 62.7253C102.667 62.9968 102.268 63.2405 101.901 63.528C101.144 64.0756 100.443 64.6963 99.8078 65.3813Z" fill="white"/>
<path d="M159.254 88.0906C159.254 88.0906 159.098 85.1512 133.097 96.2942C133.097 96.2942 126.472 90.0636 126.136 74.3476C126.112 73.2453 126.148 72.143 126.204 71.0446C126.278 69.3794 126.133 67.7117 125.773 66.0841C125.669 66.192 125.565 66.3078 125.453 66.4157C125.339 66.518 125.219 66.614 125.094 66.7032C124.843 66.8871 124.569 67.0375 124.279 67.1506C123.979 67.2531 123.665 67.3123 123.348 67.3263C123.023 67.341 122.699 67.2963 122.39 67.1945C122.367 67.1857 122.346 67.1712 122.33 67.1524C122.314 67.1336 122.303 67.111 122.298 67.0867L122.294 67.0707C122.177 66.4686 122.025 65.8738 121.839 65.2895C121.663 64.7023 121.459 64.1192 121.26 63.5361L120.624 61.7907L119.97 60.0574L119.966 60.0454C119.954 60.0157 119.955 59.9829 119.968 59.9539C119.981 59.9248 120.004 59.9018 120.033 59.8897H120.037C120.437 59.7459 120.836 59.602 121.24 59.4743C121.643 59.3385 122.046 59.2026 122.454 59.0788C121.747 58.2095 120.952 57.4159 120.081 56.7104L117.365 57.3535C116.471 57.5971 115.568 57.8208 114.674 58.0803C113.531 58.4278 112.389 58.7793 111.263 59.1708C111.299 59.3185 111.367 59.5821 111.462 59.9496C111.474 60.0008 111.466 60.0547 111.439 60.1001C111.412 60.1454 111.369 60.1787 111.319 60.1931C111.302 60.1975 111.284 60.2002 111.267 60.2011C111.222 60.2013 111.179 60.1864 111.144 60.1588C111.109 60.1313 111.085 60.0927 111.075 60.0494C110.987 59.7059 110.923 59.4543 110.883 59.3025C110.388 59.4782 109.893 59.666 109.406 59.8657C108.255 60.313 107.124 60.8069 106.011 61.3474C106.031 61.4033 106.047 61.4633 106.067 61.5191C106.236 62.0117 106.439 62.4921 106.674 62.957C107.134 63.8824 107.736 64.73 108.459 65.4691C108.82 65.8346 109.211 66.1686 109.629 66.4676C110.06 66.7517 110.512 67.0001 110.983 67.2105C111.941 67.6263 112.952 67.9086 113.987 68.0492C113.867 68.0452 113.743 68.0372 113.623 68.0292C113.64 68.0523 113.654 68.0779 113.663 68.1051L113.919 69.0077C113.926 69.0326 113.929 69.0588 113.926 69.0848C113.924 69.1107 113.916 69.1358 113.903 69.1586C113.89 69.1814 113.873 69.2013 113.852 69.2173C113.832 69.2332 113.808 69.2448 113.783 69.2514C113.765 69.2579 113.746 69.2607 113.727 69.2594C113.684 69.2587 113.642 69.2445 113.608 69.2186C113.573 69.1928 113.548 69.1567 113.535 69.1156L113.28 68.2129C113.27 68.1777 113.269 68.1404 113.279 68.1052C113.289 68.0699 113.309 68.0381 113.336 68.0132C113.292 68.0092 113.244 68.0092 113.196 68.0052C112.93 68.0012 112.666 67.9732 112.405 67.9214C111.878 67.8306 111.362 67.6874 110.863 67.494C110.359 67.3076 109.875 67.068 109.422 66.7792C108.074 65.8701 107.023 64.5856 106.398 63.0848C106.171 62.5483 105.988 61.9939 105.851 61.4273C105.348 61.6749 104.853 61.9305 104.361 62.2021L103.159 62.901C102.772 63.1527 102.368 63.3844 101.993 63.6599C101.215 64.1676 100.484 64.7437 99.8082 65.3813C100.591 66.887 101.334 68.4086 102.069 69.9383C102.8 71.468 103.503 73.0096 104.21 74.5513C104.341 74.8469 104.473 75.1424 104.605 75.438C104.637 75.442 105.759 78.042 106.254 79.2082C106.917 80.7659 107.568 82.3315 108.183 83.913C108.183 83.913 117.933 111.459 131.859 112.078C131.859 112.078 139.288 111.459 159.254 103.567C159.254 103.567 161.574 89.9478 159.254 88.0906ZM111.546 61.8745C111.458 61.5431 111.379 61.2396 111.307 60.964C111.295 60.9127 111.303 60.8588 111.33 60.8135C111.357 60.7681 111.4 60.7348 111.45 60.7203C111.476 60.7136 111.502 60.712 111.529 60.7156C111.555 60.7192 111.58 60.728 111.602 60.7414C111.625 60.7547 111.645 60.7725 111.661 60.7936C111.676 60.8146 111.688 60.8386 111.694 60.8642C111.766 61.1397 111.846 61.4433 111.934 61.7708C111.94 61.7962 111.942 61.8227 111.938 61.8488C111.935 61.8749 111.926 61.8999 111.913 61.9226C111.899 61.9453 111.882 61.965 111.861 61.9808C111.84 61.9965 111.816 62.008 111.79 62.0144C111.773 62.019 111.756 62.0216 111.738 62.0223C111.694 62.022 111.652 62.0074 111.617 61.9807C111.583 61.954 111.558 61.9167 111.546 61.8745ZM112.03 63.6919L111.786 62.7812C111.773 62.7298 111.781 62.6753 111.808 62.6297C111.835 62.5841 111.879 62.551 111.93 62.5378C111.981 62.5245 112.036 62.5322 112.081 62.5591C112.127 62.5861 112.16 62.63 112.173 62.6813L112.413 63.584C112.421 63.6095 112.423 63.6362 112.42 63.6625C112.417 63.6889 112.409 63.7144 112.396 63.7375C112.383 63.7606 112.365 63.7809 112.344 63.797C112.323 63.8132 112.299 63.825 112.273 63.8316C112.256 63.8351 112.239 63.8364 112.221 63.8356C112.178 63.8361 112.136 63.8223 112.101 63.7963C112.066 63.7703 112.041 63.7336 112.03 63.6919H112.03ZM112.273 64.5944C112.26 64.5436 112.268 64.4897 112.294 64.4442C112.32 64.3987 112.363 64.3652 112.413 64.3508C112.464 64.3378 112.519 64.345 112.565 64.3711C112.611 64.3971 112.645 64.4399 112.661 64.4907L112.904 65.3813L112.521 65.501L112.273 64.5944ZM113.272 67.4501C113.253 67.4547 113.235 67.4574 113.216 67.4581C113.172 67.4578 113.13 67.4431 113.095 67.4165C113.06 67.3898 113.036 67.3525 113.024 67.3103L112.773 66.4077C112.765 66.3822 112.763 66.3556 112.766 66.3293C112.769 66.303 112.777 66.2776 112.79 66.2545C112.803 66.2315 112.821 66.2113 112.842 66.195C112.863 66.1788 112.887 66.1669 112.912 66.1601C112.937 66.153 112.964 66.1509 112.99 66.1541C113.016 66.1573 113.041 66.1657 113.063 66.1787C113.086 66.1917 113.106 66.2091 113.122 66.2299C113.138 66.2507 113.149 66.2745 113.156 66.2998L113.408 67.2024C113.422 67.2533 113.416 67.3079 113.391 67.3543C113.365 67.4007 113.323 67.4352 113.272 67.4501H113.272ZM114.25 71.0605C114.207 71.061 114.165 71.0472 114.13 71.0212C114.095 70.9952 114.07 70.9585 114.059 70.9168L113.795 70.0182C113.781 69.9673 113.787 69.9131 113.813 69.8669C113.838 69.8207 113.88 69.7862 113.931 69.7705C113.956 69.7625 113.982 69.7598 114.009 69.7624C114.035 69.7649 114.06 69.7728 114.084 69.7855C114.107 69.7982 114.127 69.8154 114.143 69.8362C114.16 69.857 114.172 69.8808 114.178 69.9063L114.442 70.805C114.449 70.8301 114.452 70.8565 114.449 70.8827C114.446 70.9088 114.438 70.9341 114.426 70.9572C114.413 70.9802 114.396 71.0005 114.376 71.0169C114.355 71.0333 114.331 71.0454 114.306 71.0526C114.288 71.0588 114.269 71.0615 114.25 71.0605ZM114.781 72.8578C114.739 72.8572 114.698 72.8435 114.663 72.8184C114.629 72.7934 114.603 72.7583 114.59 72.718L114.322 71.8194C114.314 71.7942 114.312 71.7676 114.314 71.7413C114.316 71.715 114.324 71.6895 114.337 71.6662C114.349 71.6428 114.366 71.6222 114.386 71.6054C114.407 71.5886 114.43 71.5761 114.455 71.5684C114.481 71.5608 114.507 71.5582 114.534 71.5609C114.56 71.5636 114.585 71.5714 114.609 71.584C114.632 71.5965 114.652 71.6136 114.669 71.6341C114.686 71.6546 114.698 71.6782 114.706 71.7036L114.973 72.6022C114.988 72.6525 114.983 72.7068 114.958 72.7531C114.933 72.7995 114.891 72.8342 114.841 72.8499C114.822 72.8564 114.802 72.8591 114.781 72.8578L114.781 72.8578ZM115.325 74.6511C115.282 74.6518 115.241 74.6385 115.207 74.6132C115.173 74.5879 115.148 74.5521 115.137 74.5113L114.861 73.6167C114.853 73.5915 114.85 73.5649 114.853 73.5386C114.855 73.5122 114.862 73.4866 114.875 73.4631C114.887 73.4397 114.904 73.4188 114.924 73.4019C114.944 73.3849 114.968 73.3721 114.993 73.3642C115.018 73.3563 115.045 73.3535 115.071 73.3559C115.097 73.3583 115.123 73.3659 115.146 73.3782C115.17 73.3905 115.19 73.4073 115.207 73.4277C115.224 73.4481 115.237 73.4716 115.245 73.4969L115.516 74.3955C115.531 74.4458 115.526 74.5 115.501 74.5464C115.477 74.5927 115.435 74.6275 115.385 74.6431C115.365 74.6497 115.345 74.6525 115.325 74.6512V74.6511ZM115.88 76.4444C115.838 76.4443 115.797 76.4307 115.763 76.4055C115.729 76.3803 115.704 76.3449 115.692 76.3046L115.412 75.4099C115.404 75.3848 115.401 75.3582 115.403 75.3317C115.405 75.3052 115.412 75.2794 115.424 75.2559C115.437 75.2323 115.454 75.2115 115.474 75.1948C115.495 75.178 115.519 75.1656 115.544 75.1584C115.595 75.1433 115.649 75.1487 115.695 75.1734C115.742 75.198 115.776 75.24 115.792 75.2901L116.071 76.1847C116.079 76.2097 116.082 76.2359 116.08 76.2619C116.077 76.2879 116.07 76.3132 116.058 76.3363C116.045 76.3593 116.029 76.3797 116.008 76.3962C115.988 76.4127 115.965 76.425 115.94 76.4324C115.921 76.4402 115.9 76.4443 115.88 76.4444L115.88 76.4444ZM116.451 78.2297C116.408 78.2297 116.367 78.2161 116.332 78.191C116.298 78.1658 116.272 78.1304 116.259 78.0899C116.163 77.7943 116.067 77.4948 115.972 77.1992C115.963 77.1741 115.96 77.1475 115.963 77.1212C115.965 77.0948 115.972 77.0692 115.985 77.0457C115.997 77.0223 116.014 77.0016 116.034 76.9847C116.055 76.9679 116.078 76.9553 116.103 76.9476C116.154 76.9323 116.208 76.937 116.255 76.9608C116.302 76.9846 116.338 77.0257 116.355 77.0754C116.447 77.3749 116.543 77.6706 116.639 77.966C116.647 77.9909 116.651 78.0173 116.649 78.0435C116.647 78.0698 116.64 78.0954 116.628 78.1188C116.616 78.1423 116.599 78.1632 116.579 78.1801C116.559 78.1971 116.536 78.2099 116.511 78.2177C116.492 78.2255 116.471 78.2296 116.451 78.2297V78.2297ZM117.03 80.0069C116.988 80.0072 116.947 79.9942 116.912 79.9699C116.878 79.9455 116.852 79.911 116.838 79.8711L116.547 78.9805C116.531 78.9302 116.535 78.8756 116.559 78.8286C116.583 78.7816 116.625 78.7461 116.675 78.7297C116.725 78.7133 116.78 78.7175 116.827 78.7413C116.874 78.7651 116.91 78.8065 116.926 78.8566L117.218 79.7434C117.226 79.7683 117.23 79.7946 117.228 79.821C117.227 79.8473 117.219 79.8729 117.208 79.8965C117.196 79.92 117.179 79.9408 117.159 79.9577C117.139 79.9747 117.115 79.9873 117.09 79.995C117.071 80.0028 117.051 80.0068 117.03 80.007V80.0069ZM117.629 81.7882C117.587 81.7885 117.546 81.7755 117.511 81.7511C117.477 81.7268 117.451 81.6922 117.437 81.6524C117.338 81.3569 117.238 81.0574 117.138 80.7618C117.129 80.737 117.125 80.7106 117.126 80.6843C117.128 80.658 117.134 80.6322 117.146 80.6084C117.157 80.5846 117.173 80.5634 117.193 80.5459C117.212 80.5284 117.235 80.515 117.26 80.5065C117.285 80.498 117.312 80.4946 117.338 80.4964C117.364 80.4983 117.39 80.5053 117.414 80.5172C117.437 80.5291 117.458 80.5455 117.475 80.5656C117.492 80.5856 117.505 80.6089 117.513 80.634C117.613 80.9296 117.717 81.2251 117.817 81.5247C117.826 81.5546 117.829 81.5863 117.824 81.6173C117.819 81.6484 117.807 81.6778 117.789 81.7034C117.771 81.729 117.747 81.75 117.719 81.7647C117.691 81.7794 117.66 81.7875 117.629 81.7882ZM118.24 83.5575C118.199 83.5572 118.159 83.5444 118.126 83.5208C118.092 83.4973 118.067 83.4642 118.052 83.4258C117.949 83.1302 117.845 82.8347 117.745 82.5391C117.736 82.5144 117.732 82.488 117.733 82.4617C117.734 82.4353 117.74 82.4094 117.752 82.3855C117.763 82.3617 117.779 82.3403 117.798 82.3226C117.818 82.3049 117.841 82.2913 117.866 82.2825C117.891 82.2738 117.917 82.2701 117.943 82.2716C117.97 82.2732 117.995 82.28 118.019 82.2916C118.043 82.3032 118.064 82.3194 118.081 82.3393C118.099 82.3591 118.112 82.3823 118.12 82.4073C118.224 82.7028 118.324 82.9984 118.428 83.2899C118.437 83.3146 118.441 83.3408 118.44 83.3671C118.439 83.3934 118.433 83.4192 118.422 83.4431C118.411 83.4669 118.395 83.4883 118.375 83.5059C118.356 83.5235 118.333 83.537 118.308 83.5456C118.286 83.5534 118.263 83.5575 118.24 83.5575V83.5575ZM118.871 85.3229C118.83 85.322 118.791 85.309 118.757 85.2855C118.724 85.262 118.698 85.2291 118.684 85.191C118.58 84.8995 118.472 84.6039 118.368 84.3084C118.359 84.2838 118.355 84.2576 118.356 84.2313C118.357 84.2051 118.363 84.1793 118.374 84.1556C118.386 84.1318 118.401 84.1105 118.421 84.0928C118.44 84.0752 118.463 84.0616 118.488 84.0528C118.538 84.0363 118.592 84.0395 118.639 84.0617C118.687 84.084 118.724 84.1237 118.743 84.1726C118.847 84.4681 118.955 84.7637 119.059 85.0552C119.068 85.0799 119.072 85.1061 119.071 85.1323C119.07 85.1585 119.064 85.1843 119.052 85.2081C119.041 85.2319 119.026 85.2532 119.006 85.2708C118.987 85.2885 118.964 85.3021 118.939 85.3109C118.917 85.3191 118.894 85.3231 118.871 85.3229V85.3229ZM119.526 87.0802C119.486 87.0801 119.446 87.0679 119.413 87.0451C119.379 87.0223 119.353 86.99 119.338 86.9523C119.231 86.6608 119.119 86.3652 119.011 86.0737C119.001 86.049 118.997 86.0228 118.998 85.9964C118.998 85.97 119.004 85.944 119.015 85.9198C119.026 85.8957 119.041 85.874 119.06 85.8558C119.08 85.8377 119.102 85.8235 119.127 85.8141C119.151 85.8048 119.178 85.8005 119.204 85.8016C119.23 85.8026 119.256 85.8088 119.28 85.82C119.304 85.8312 119.325 85.847 119.343 85.8666C119.36 85.8862 119.374 85.9091 119.382 85.9339C119.494 86.2255 119.602 86.517 119.714 86.8086C119.731 86.8585 119.729 86.9131 119.707 86.9613C119.686 87.0095 119.647 87.0477 119.598 87.0681C119.575 87.076 119.551 87.0801 119.526 87.0802V87.0802ZM120.277 88.8135C120.254 88.8214 120.23 88.8255 120.205 88.8255C120.165 88.8263 120.126 88.8149 120.092 88.7928C120.059 88.7706 120.033 88.7389 120.017 88.7017C119.902 88.4141 119.79 88.1226 119.674 87.8271C119.664 87.8024 119.66 87.7761 119.66 87.7496C119.661 87.7232 119.667 87.6971 119.678 87.673C119.688 87.6488 119.704 87.627 119.723 87.6088C119.742 87.5906 119.765 87.5763 119.79 87.5668C119.814 87.5574 119.841 87.5529 119.867 87.5536C119.893 87.5543 119.919 87.5603 119.944 87.5711C119.968 87.5819 119.99 87.5974 120.008 87.6166C120.026 87.6359 120.04 87.6585 120.049 87.6832C120.161 87.9748 120.273 88.2663 120.389 88.554C120.399 88.5783 120.404 88.6044 120.403 88.6307C120.403 88.657 120.398 88.683 120.387 88.7071C120.377 88.7312 120.362 88.7531 120.343 88.7714C120.324 88.7896 120.302 88.804 120.277 88.8136L120.277 88.8135ZM120.988 90.5468C120.963 90.5579 120.936 90.5633 120.908 90.5628C120.869 90.563 120.83 90.5513 120.797 90.5292C120.764 90.5071 120.739 90.4757 120.724 90.439C120.605 90.1555 120.485 89.8639 120.369 89.5724C120.349 89.5237 120.349 89.4691 120.37 89.4206C120.39 89.3721 120.428 89.3336 120.477 89.3135C120.526 89.2934 120.58 89.2934 120.629 89.3135C120.677 89.3336 120.716 89.3721 120.736 89.4206C120.856 89.7122 120.976 89.9997 121.096 90.2873C121.115 90.3361 121.115 90.3905 121.095 90.439C121.074 90.4874 121.036 90.5261 120.988 90.5469V90.5468ZM121.731 92.2682C121.706 92.2793 121.678 92.2847 121.651 92.2842C121.612 92.2844 121.575 92.2736 121.542 92.2531C121.51 92.2325 121.484 92.2032 121.467 92.1684C121.343 91.8849 121.216 91.5973 121.092 91.3057C121.071 91.257 121.07 91.202 121.089 91.1526C121.109 91.1033 121.147 91.0637 121.196 91.0425C121.244 91.0213 121.3 91.0203 121.349 91.0397C121.398 91.0591 121.438 91.0973 121.459 91.1459C121.583 91.4375 121.707 91.7211 121.831 92.0047C121.842 92.0285 121.848 92.0543 121.849 92.0805C121.85 92.1068 121.845 92.1329 121.836 92.1575C121.827 92.182 121.813 92.2045 121.795 92.2235C121.777 92.2425 121.755 92.2577 121.731 92.2682H121.731ZM122.518 93.9697C122.49 93.9824 122.46 93.9892 122.43 93.9896C122.392 93.9887 122.355 93.9774 122.324 93.957C122.292 93.9365 122.266 93.9077 122.25 93.8738C122.118 93.5982 121.986 93.3107 121.855 93.0232C121.843 92.9996 121.837 92.974 121.835 92.9479C121.834 92.9218 121.838 92.8957 121.847 92.8711C121.856 92.8465 121.87 92.824 121.887 92.8048C121.905 92.7856 121.927 92.7702 121.95 92.7595C121.975 92.7482 122.001 92.7418 122.027 92.7407C122.054 92.7396 122.08 92.7438 122.105 92.7531C122.13 92.7624 122.153 92.7766 122.172 92.7948C122.192 92.8131 122.207 92.835 122.218 92.8593C122.346 93.1429 122.478 93.4264 122.613 93.7021C122.636 93.7503 122.639 93.8055 122.621 93.8557C122.603 93.9059 122.566 93.9468 122.518 93.9697ZM123.36 95.6471C123.33 95.6594 123.297 95.6662 123.264 95.6671C123.228 95.6672 123.192 95.6572 123.161 95.6381C123.13 95.6191 123.105 95.5918 123.089 95.5592C122.945 95.2877 122.805 95.0081 122.661 94.7206C122.65 94.697 122.643 94.6713 122.641 94.6451C122.64 94.6189 122.643 94.5926 122.652 94.5678C122.66 94.5429 122.674 94.52 122.691 94.5003C122.709 94.4806 122.73 94.4645 122.753 94.453C122.777 94.4415 122.802 94.4347 122.829 94.4331C122.855 94.4314 122.881 94.435 122.906 94.4435C122.931 94.452 122.954 94.4654 122.974 94.4827C122.993 94.5001 123.009 94.5212 123.021 94.5448C123.161 94.8284 123.304 95.1039 123.444 95.3755C123.469 95.4227 123.474 95.4777 123.458 95.5285C123.442 95.5793 123.407 95.6219 123.36 95.6471ZM124.271 97.2846C124.24 97.3001 124.206 97.3083 124.171 97.3086C124.137 97.3094 124.102 97.3009 124.072 97.2841C124.042 97.2672 124.017 97.2426 123.999 97.2128C123.844 96.9451 123.688 96.6736 123.532 96.39C123.507 96.3434 123.501 96.2887 123.516 96.2379C123.531 96.187 123.566 96.1442 123.612 96.1189C123.659 96.0935 123.713 96.0876 123.764 96.1025C123.815 96.1174 123.858 96.1518 123.884 96.1983C124.035 96.4778 124.191 96.7494 124.343 97.0091C124.37 97.0552 124.377 97.1101 124.364 97.1617C124.35 97.2134 124.317 97.2576 124.271 97.2846L124.271 97.2846ZM125.285 98.8582C125.252 98.8808 125.214 98.8933 125.174 98.8942C125.141 98.8942 125.109 98.8862 125.081 98.8709C125.052 98.8556 125.028 98.8334 125.01 98.8063C124.834 98.5586 124.662 98.2951 124.487 98.0194C124.458 97.9744 124.449 97.9201 124.461 97.8683C124.473 97.8164 124.504 97.7714 124.549 97.7429C124.594 97.7144 124.648 97.7048 124.7 97.7163C124.752 97.7277 124.797 97.7592 124.826 97.8038C124.994 98.0754 125.166 98.335 125.337 98.5826C125.367 98.6262 125.378 98.6795 125.368 98.7311C125.358 98.7827 125.329 98.8284 125.285 98.8582L125.285 98.8582ZM126.46 100.316C126.42 100.351 126.368 100.37 126.315 100.368C126.262 100.366 126.212 100.343 126.176 100.304C125.976 100.08 125.769 99.8368 125.569 99.5731C125.553 99.5525 125.54 99.5287 125.533 99.5033C125.526 99.4779 125.524 99.4514 125.527 99.4252C125.531 99.399 125.539 99.3737 125.552 99.3508C125.565 99.3278 125.583 99.3077 125.603 99.2916C125.624 99.2755 125.648 99.2636 125.674 99.2568C125.699 99.25 125.726 99.2483 125.752 99.2518C125.778 99.2554 125.803 99.2641 125.826 99.2774C125.849 99.2907 125.869 99.3085 125.884 99.3296C126.08 99.5811 126.28 99.8208 126.472 100.036C126.489 100.056 126.503 100.078 126.512 100.102C126.521 100.127 126.525 100.153 126.524 100.179C126.523 100.205 126.517 100.23 126.506 100.254C126.495 100.277 126.479 100.298 126.46 100.316L126.46 100.316ZM127.901 101.486C127.873 101.531 127.829 101.564 127.777 101.576C127.726 101.589 127.672 101.581 127.626 101.554C127.352 101.385 127.094 101.191 126.855 100.975C126.835 100.958 126.819 100.937 126.807 100.914C126.795 100.891 126.788 100.865 126.787 100.839C126.785 100.813 126.788 100.787 126.796 100.763C126.805 100.738 126.818 100.715 126.835 100.695C126.87 100.655 126.92 100.631 126.973 100.627C127.026 100.623 127.078 100.641 127.119 100.675C127.34 100.875 127.58 101.054 127.834 101.211C127.856 101.224 127.876 101.242 127.891 101.263C127.907 101.285 127.918 101.309 127.925 101.334C127.931 101.36 127.932 101.387 127.928 101.413C127.924 101.439 127.915 101.464 127.901 101.486H127.901ZM129.491 102.189C129.479 102.189 129.467 102.185 129.455 102.185C129.139 102.127 128.826 102.049 128.52 101.949C128.47 101.933 128.429 101.897 128.405 101.85C128.381 101.803 128.376 101.748 128.393 101.698C128.41 101.648 128.446 101.607 128.493 101.583C128.54 101.559 128.594 101.555 128.644 101.57C128.933 101.663 129.228 101.737 129.527 101.79C129.576 101.799 129.62 101.827 129.65 101.866C129.68 101.906 129.694 101.956 129.689 102.006C129.685 102.055 129.662 102.102 129.626 102.136C129.589 102.17 129.541 102.189 129.491 102.189ZM131.352 102.357H131.348C131.017 102.353 130.701 102.337 130.402 102.309C130.375 102.307 130.35 102.3 130.326 102.288C130.302 102.276 130.282 102.26 130.264 102.24C130.247 102.22 130.234 102.196 130.226 102.171C130.218 102.146 130.216 102.12 130.218 102.093C130.22 102.067 130.227 102.042 130.239 102.018C130.251 101.995 130.267 101.974 130.288 101.958C130.308 101.941 130.331 101.928 130.356 101.921C130.381 101.913 130.407 101.911 130.434 101.914C130.725 101.937 131.033 101.953 131.356 101.957C131.409 101.96 131.458 101.983 131.494 102.02C131.531 102.058 131.551 102.109 131.552 102.161C131.551 102.213 131.529 102.263 131.492 102.3C131.455 102.336 131.404 102.357 131.352 102.357L131.352 102.357ZM133.241 102.293C132.918 102.317 132.602 102.337 132.295 102.349H132.287C132.234 102.349 132.184 102.328 132.147 102.292C132.11 102.255 132.088 102.205 132.087 102.153C132.086 102.101 132.105 102.05 132.141 102.012C132.177 101.974 132.226 101.952 132.279 101.949C132.582 101.937 132.89 101.918 133.209 101.894C133.262 101.89 133.313 101.908 133.353 101.942C133.392 101.977 133.417 102.025 133.421 102.078C133.425 102.13 133.409 102.182 133.375 102.222C133.341 102.262 133.293 102.288 133.241 102.293ZM135.114 102.077C134.799 102.125 134.487 102.165 134.18 102.201H134.156C134.107 102.201 134.06 102.183 134.023 102.151C133.986 102.118 133.963 102.074 133.956 102.025C133.951 101.973 133.966 101.92 133.999 101.878C134.032 101.836 134.079 101.809 134.132 101.802C134.435 101.77 134.743 101.73 135.055 101.682C135.107 101.675 135.161 101.69 135.203 101.722C135.246 101.754 135.274 101.801 135.282 101.854C135.29 101.906 135.276 101.958 135.245 102C135.213 102.042 135.166 102.07 135.114 102.077L135.114 102.077ZM136.972 101.762C136.66 101.822 136.349 101.878 136.045 101.929C136.033 101.933 136.021 101.934 136.009 101.934C135.962 101.933 135.917 101.917 135.882 101.887C135.846 101.857 135.822 101.816 135.813 101.77C135.805 101.717 135.817 101.664 135.848 101.621C135.879 101.577 135.925 101.548 135.977 101.538C136.281 101.486 136.588 101.43 136.896 101.37C136.948 101.361 137.002 101.373 137.046 101.403C137.09 101.433 137.12 101.478 137.131 101.53C137.141 101.582 137.129 101.636 137.099 101.679C137.069 101.722 137.023 101.752 136.972 101.762L136.972 101.762ZM138.813 101.374C138.505 101.442 138.198 101.51 137.894 101.574C137.88 101.577 137.865 101.579 137.85 101.578C137.801 101.579 137.753 101.561 137.716 101.528C137.679 101.495 137.656 101.45 137.651 101.401C137.646 101.352 137.66 101.302 137.689 101.263C137.719 101.223 137.762 101.196 137.81 101.187C138.114 101.123 138.417 101.055 138.721 100.983C138.773 100.972 138.827 100.981 138.871 101.009C138.916 101.037 138.948 101.082 138.96 101.133C138.972 101.185 138.963 101.239 138.936 101.284C138.908 101.329 138.864 101.362 138.813 101.374ZM140.638 100.923C140.33 101.003 140.027 101.079 139.727 101.155C139.712 101.159 139.696 101.162 139.679 101.163C139.63 101.163 139.583 101.145 139.546 101.112C139.51 101.08 139.486 101.035 139.48 100.986C139.474 100.938 139.486 100.888 139.514 100.848C139.542 100.808 139.584 100.779 139.632 100.767C139.931 100.691 140.235 100.615 140.538 100.54C140.563 100.532 140.59 100.53 140.616 100.534C140.642 100.537 140.667 100.545 140.689 100.558C140.712 100.571 140.732 100.589 140.748 100.61C140.764 100.63 140.775 100.654 140.782 100.679C140.788 100.705 140.79 100.731 140.787 100.757C140.783 100.783 140.774 100.809 140.761 100.831C140.747 100.854 140.73 100.874 140.709 100.889C140.688 100.905 140.664 100.917 140.638 100.923L140.638 100.923ZM142.447 100.428C142.148 100.516 141.844 100.6 141.545 100.683C141.528 100.687 141.51 100.688 141.493 100.687C141.444 100.688 141.398 100.67 141.361 100.638C141.325 100.606 141.301 100.562 141.295 100.514C141.289 100.467 141.3 100.418 141.327 100.378C141.354 100.338 141.394 100.309 141.441 100.296C141.74 100.216 142.04 100.132 142.339 100.044C142.365 100.037 142.391 100.035 142.417 100.038C142.443 100.041 142.469 100.049 142.492 100.062C142.515 100.074 142.535 100.092 142.551 100.112C142.567 100.133 142.579 100.156 142.587 100.182C142.594 100.207 142.596 100.234 142.593 100.26C142.589 100.286 142.581 100.311 142.568 100.334C142.555 100.357 142.538 100.377 142.517 100.393C142.496 100.409 142.473 100.421 142.447 100.428L142.447 100.428ZM144.249 99.8966C143.949 99.9885 143.649 100.08 143.35 100.168C143.332 100.173 143.313 100.175 143.294 100.176C143.251 100.177 143.208 100.163 143.174 100.137C143.139 100.111 143.114 100.074 143.102 100.032C143.095 100.007 143.092 99.9808 143.095 99.9547C143.098 99.9286 143.106 99.9032 143.118 99.8802C143.131 99.8572 143.148 99.8369 143.169 99.8205C143.189 99.8041 143.213 99.792 143.238 99.7848C143.538 99.6969 143.833 99.6051 144.133 99.5171C144.183 99.5018 144.237 99.507 144.284 99.5317C144.33 99.5565 144.365 99.5986 144.38 99.649C144.396 99.6993 144.39 99.7536 144.366 99.8001C144.341 99.8465 144.299 99.8813 144.249 99.8966ZM146.042 99.3295C145.746 99.4253 145.447 99.5212 145.151 99.617C145.132 99.6235 145.111 99.6263 145.091 99.625C145.044 99.6255 144.998 99.609 144.961 99.5785C144.925 99.548 144.901 99.5055 144.893 99.4587C144.886 99.4119 144.895 99.3639 144.919 99.3234C144.944 99.2828 144.982 99.2524 145.027 99.2377C145.327 99.1417 145.622 99.0459 145.922 98.95C145.972 98.9346 146.027 98.9393 146.074 98.9632C146.12 98.987 146.156 99.0281 146.174 99.0779C146.182 99.103 146.185 99.1296 146.182 99.1559C146.18 99.1823 146.173 99.2079 146.161 99.2313C146.148 99.2548 146.131 99.2755 146.111 99.2924C146.091 99.3093 146.067 99.3219 146.042 99.3296L146.042 99.3295ZM147.823 98.7384L146.936 99.038C146.916 99.0443 146.894 99.0469 146.872 99.0459C146.825 99.0467 146.779 99.0304 146.742 98.9999C146.705 98.9694 146.681 98.9267 146.673 98.8797C146.665 98.8328 146.675 98.7846 146.7 98.7439C146.725 98.7033 146.763 98.673 146.809 98.6585L147.695 98.3589C147.746 98.3418 147.801 98.3452 147.848 98.3684C147.896 98.3916 147.933 98.4327 147.951 98.4828C147.966 98.5336 147.962 98.5885 147.938 98.6361C147.914 98.6836 147.873 98.7203 147.823 98.7385L147.823 98.7384ZM149.596 98.1192C149.305 98.2232 149.009 98.3271 148.71 98.4309C148.689 98.4387 148.668 98.4427 148.646 98.4428C148.604 98.443 148.564 98.4299 148.53 98.4055C148.496 98.3811 148.471 98.3466 148.458 98.3071C148.449 98.2824 148.445 98.2562 148.446 98.23C148.447 98.2037 148.453 98.178 148.465 98.1542C148.476 98.1304 148.491 98.1091 148.511 98.0914C148.53 98.0738 148.553 98.0602 148.578 98.0514C148.877 97.9515 149.169 97.8437 149.461 97.74C149.511 97.7227 149.566 97.7259 149.613 97.7488C149.661 97.7718 149.698 97.8126 149.716 97.8625C149.734 97.9124 149.731 97.9674 149.709 98.0154C149.686 98.0635 149.646 98.1008 149.596 98.1192ZM151.362 97.4763C151.07 97.5841 150.779 97.692 150.479 97.7998C150.457 97.8077 150.434 97.8117 150.411 97.8118C150.37 97.8123 150.33 97.7998 150.296 97.7761C150.262 97.7525 150.237 97.7188 150.223 97.68C150.206 97.6302 150.209 97.5755 150.231 97.5277C150.254 97.4799 150.294 97.4429 150.343 97.4244C150.639 97.3166 150.934 97.2087 151.222 97.1009C151.272 97.083 151.326 97.0856 151.374 97.108C151.422 97.1304 151.459 97.1709 151.477 97.2206C151.487 97.245 151.492 97.271 151.491 97.2972C151.491 97.3234 151.485 97.3492 151.474 97.3731C151.463 97.397 151.448 97.4184 151.428 97.4362C151.409 97.4539 151.386 97.4676 151.362 97.4763L151.362 97.4763ZM153.115 96.8133C152.831 96.9252 152.536 97.0369 152.24 97.1487C152.217 97.1566 152.193 97.1607 152.168 97.1607C152.128 97.1607 152.088 97.1485 152.055 97.1257C152.021 97.1029 151.996 97.0706 151.981 97.033C151.963 96.9831 151.966 96.9285 151.987 96.8802C152.009 96.832 152.048 96.7938 152.097 96.7733C152.396 96.6615 152.688 96.5497 152.975 96.4419C153 96.4327 153.026 96.4284 153.052 96.4293C153.078 96.4301 153.103 96.4361 153.127 96.4469C153.151 96.4576 153.172 96.4729 153.19 96.492C153.208 96.511 153.222 96.5333 153.231 96.5577C153.24 96.5821 153.244 96.608 153.243 96.6341C153.243 96.6601 153.237 96.6858 153.226 96.7095C153.215 96.7332 153.2 96.7546 153.181 96.7724C153.162 96.7902 153.139 96.8041 153.115 96.8133V96.8133ZM154.864 96.1303C154.581 96.2422 154.293 96.358 153.994 96.4738C153.97 96.4852 153.944 96.4907 153.918 96.4898C153.878 96.4897 153.839 96.4774 153.806 96.4545C153.773 96.4317 153.748 96.3994 153.734 96.362C153.715 96.3127 153.716 96.2579 153.737 96.2094C153.758 96.1609 153.797 96.1225 153.846 96.1024C154.145 95.9866 154.437 95.8707 154.721 95.7589C154.769 95.7403 154.823 95.7417 154.871 95.7626C154.919 95.7835 154.957 95.8223 154.976 95.8707C154.986 95.8951 154.992 95.9212 154.992 95.9476C154.992 95.974 154.986 96.0002 154.976 96.0244C154.965 96.0487 154.95 96.0706 154.931 96.0888C154.912 96.107 154.889 96.1211 154.864 96.1303L154.864 96.1303ZM156.61 95.4314C156.33 95.5433 156.039 95.663 155.739 95.7829C155.715 95.7935 155.689 95.799 155.663 95.7989C155.617 95.7987 155.573 95.7826 155.537 95.7533C155.502 95.724 155.477 95.6833 155.468 95.6382C155.459 95.5931 155.466 95.5462 155.488 95.5056C155.51 95.465 155.545 95.4332 155.587 95.4155C155.891 95.2916 156.178 95.1758 156.458 95.06C156.507 95.041 156.561 95.042 156.61 95.0628C156.658 95.0836 156.696 95.1225 156.716 95.1712C156.736 95.2198 156.736 95.2743 156.716 95.323C156.696 95.3717 156.658 95.4106 156.61 95.4314H156.61ZM158.343 94.7085C158.079 94.8204 157.788 94.9442 157.476 95.0719C157.453 95.083 157.427 95.0884 157.4 95.0879C157.361 95.0878 157.323 95.076 157.29 95.0539C157.257 95.0319 157.232 95.0006 157.217 94.9641C157.206 94.94 157.201 94.9141 157.201 94.8879C157.201 94.8617 157.206 94.8358 157.216 94.8116C157.226 94.7874 157.241 94.7655 157.259 94.7471C157.278 94.7287 157.3 94.7142 157.325 94.7045C157.636 94.5767 157.924 94.4529 158.187 94.341C158.237 94.3208 158.292 94.3208 158.341 94.3409C158.39 94.3611 158.43 94.3999 158.451 94.4489C158.461 94.4729 158.467 94.4989 158.467 94.5251C158.467 94.5514 158.462 94.5774 158.452 94.6017C158.442 94.6259 158.427 94.6479 158.409 94.6662C158.39 94.6846 158.367 94.699 158.343 94.7086L158.343 94.7085ZM160.072 93.9656C159.901 94.0415 159.605 94.1693 159.21 94.341C159.185 94.3524 159.157 94.3579 159.13 94.357C159.084 94.3573 159.039 94.3415 159.003 94.3122C158.967 94.2829 158.942 94.2421 158.933 94.1967C158.924 94.1513 158.931 94.1042 158.953 94.0635C158.975 94.0227 159.011 93.991 159.054 93.9736C159.445 93.8059 159.741 93.6781 159.913 93.6022C159.937 93.5913 159.962 93.5853 159.989 93.5845C160.015 93.5837 160.041 93.5881 160.066 93.5975C160.09 93.6069 160.113 93.6211 160.132 93.6392C160.151 93.6573 160.166 93.679 160.176 93.7031C160.187 93.7271 160.193 93.753 160.193 93.7793C160.194 93.8056 160.189 93.8317 160.179 93.8561C160.17 93.8805 160.155 93.9028 160.137 93.9216C160.118 93.9404 160.097 93.9553 160.072 93.9656ZM122.454 59.0788C122.07 59.2666 121.683 59.4383 121.295 59.614C120.948 59.7738 120.601 59.9215 120.249 60.0694C120.493 60.5966 120.736 61.1237 120.952 61.663C121.196 62.2381 121.419 62.8172 121.627 63.4042C121.843 63.9873 122.034 64.5825 122.21 65.1816C122.377 65.7515 122.507 66.3319 122.598 66.9189C122.839 67.0057 123.092 67.0543 123.348 67.0627C123.641 67.0688 123.933 67.0324 124.215 66.9549C124.501 66.874 124.776 66.7586 125.034 66.6114C125.295 66.4571 125.542 66.2807 125.773 66.0841C125.229 63.5216 124.093 61.1222 122.454 59.0788ZM106.027 79.308L104.449 75.8493C104.433 75.8413 103.918 74.683 103.918 74.683L101.841 70.0422C101.158 68.4925 100.471 66.9429 99.8083 65.3813C99.8083 65.3813 70.1175 99.8527 54.022 126.78C54.022 126.78 57.6325 129.512 61.3788 132.06V132.056L61.898 131.277C61.9129 131.255 61.9319 131.236 61.954 131.222C61.9762 131.207 62.001 131.197 62.027 131.193C62.053 131.188 62.0797 131.188 62.1055 131.194C62.1314 131.199 62.1559 131.21 62.1776 131.225C62.1995 131.239 62.2182 131.258 62.2328 131.28C62.2473 131.301 62.2573 131.326 62.2621 131.352C62.267 131.377 62.2666 131.404 62.261 131.429C62.2554 131.455 62.2447 131.479 62.2295 131.5L61.7102 132.279L61.7063 132.283C64.8774 134.424 68.0686 136.373 69.1869 136.373C69.1869 136.373 85.4382 109.909 88.2219 105.888C91.0097 101.862 106.482 87.3159 108.183 83.913C107.449 82.3873 106.738 80.8456 106.027 79.308ZM63.2719 129.947L62.7527 130.722C62.7345 130.75 62.7097 130.773 62.6804 130.789C62.6511 130.805 62.6183 130.813 62.585 130.814C62.5461 130.813 62.5083 130.801 62.4771 130.778C62.455 130.763 62.436 130.745 62.4211 130.723C62.4063 130.702 62.3959 130.677 62.3907 130.652C62.3855 130.626 62.3855 130.599 62.3907 130.574C62.396 130.548 62.4063 130.524 62.4212 130.502L62.9404 129.723C62.9706 129.679 63.0166 129.649 63.0688 129.638C63.1211 129.628 63.1753 129.638 63.22 129.667C63.2418 129.682 63.2606 129.701 63.275 129.723C63.2895 129.745 63.2995 129.77 63.3043 129.796C63.3091 129.822 63.3087 129.849 63.3032 129.875C63.2976 129.901 63.287 129.925 63.2719 129.947ZM64.3183 128.393L63.7951 129.168C63.7775 129.195 63.7533 129.218 63.7246 129.233C63.696 129.249 63.6639 129.256 63.6314 129.256C63.5916 129.258 63.5523 129.246 63.5195 129.224C63.4756 129.195 63.445 129.149 63.4346 129.098C63.4241 129.046 63.4346 128.992 63.4637 128.948L63.9868 128.17C64.016 128.126 64.0614 128.095 64.1131 128.085C64.1647 128.074 64.2184 128.085 64.2624 128.114C64.3063 128.144 64.3367 128.19 64.3471 128.242C64.3575 128.294 64.3472 128.349 64.3183 128.393H64.3183ZM65.3608 126.84L64.8375 127.614C64.8196 127.641 64.7953 127.664 64.7667 127.679C64.7381 127.694 64.7062 127.702 64.6738 127.702C64.634 127.704 64.5948 127.693 64.562 127.67C64.5181 127.64 64.4877 127.594 64.4773 127.542C64.4668 127.49 64.4771 127.435 64.506 127.391L65.0292 126.616C65.0585 126.572 65.1039 126.542 65.1555 126.531C65.2071 126.521 65.2608 126.531 65.3048 126.56C65.3487 126.59 65.379 126.636 65.3895 126.688C65.3999 126.741 65.3896 126.795 65.3607 126.84L65.3608 126.84ZM66.4031 125.282L65.8799 126.061C65.862 126.088 65.8377 126.11 65.8091 126.125C65.7805 126.141 65.7486 126.149 65.7162 126.149C65.6767 126.148 65.638 126.137 65.6043 126.117C65.5605 126.087 65.5301 126.04 65.5196 125.988C65.5092 125.936 65.5196 125.882 65.5485 125.837L66.0716 125.062C66.0859 125.04 66.1045 125.021 66.1261 125.007C66.1478 124.992 66.1722 124.981 66.1979 124.976C66.2236 124.971 66.2501 124.971 66.2759 124.976C66.3017 124.981 66.3262 124.991 66.3481 125.005C66.37 125.02 66.3887 125.038 66.4034 125.06C66.418 125.082 66.4281 125.106 66.4333 125.132C66.4384 125.158 66.4383 125.184 66.4332 125.21C66.428 125.236 66.4178 125.26 66.4031 125.282L66.4031 125.282ZM67.4456 123.728L66.9223 124.507C66.908 124.529 66.8893 124.548 66.8676 124.562C66.8458 124.577 66.8213 124.587 66.7956 124.592C66.7699 124.596 66.7434 124.596 66.7179 124.59C66.6923 124.585 66.6681 124.574 66.6468 124.559C66.6029 124.53 66.5723 124.485 66.5618 124.433C66.5513 124.381 66.5618 124.327 66.5909 124.284L67.114 123.509C67.1283 123.487 67.1468 123.468 67.1684 123.453C67.1901 123.438 67.2145 123.428 67.2401 123.423C67.2658 123.418 67.2922 123.418 67.3179 123.423C67.3436 123.428 67.368 123.438 67.3896 123.453C67.4336 123.482 67.4641 123.527 67.4746 123.579C67.4851 123.631 67.4746 123.684 67.4456 123.728L67.4456 123.728ZM68.488 122.175L67.9687 122.954C67.9497 122.98 67.9246 123.002 67.8954 123.018C67.8663 123.033 67.8339 123.041 67.801 123.041C67.765 123.041 67.7297 123.031 67.699 123.012C67.6683 122.993 67.6432 122.966 67.6265 122.934C67.6097 122.902 67.6019 122.867 67.6038 122.831C67.6057 122.795 67.6172 122.76 67.6373 122.73L68.1565 121.951C68.1865 121.908 68.2323 121.878 68.2839 121.869C68.3356 121.859 68.389 121.87 68.4326 121.899C68.4762 121.929 68.5064 121.974 68.5168 122.026C68.5271 122.077 68.5168 122.131 68.488 122.175V122.175ZM69.5304 120.621L69.0111 121.396C68.9929 121.424 68.9681 121.447 68.9388 121.463C68.9096 121.479 68.8768 121.487 68.8435 121.488C68.8035 121.487 68.7646 121.474 68.7316 121.452C68.7097 121.437 68.6909 121.419 68.6764 121.397C68.6619 121.375 68.6519 121.351 68.647 121.325C68.6422 121.299 68.6426 121.273 68.6482 121.247C68.6538 121.222 68.6645 121.198 68.6797 121.176L69.1988 120.397C69.229 120.354 69.2751 120.323 69.3273 120.313C69.3795 120.302 69.4337 120.313 69.4785 120.341C69.5003 120.356 69.5191 120.375 69.5335 120.397C69.548 120.42 69.5579 120.444 69.5628 120.47C69.5676 120.496 69.5672 120.523 69.5617 120.549C69.5561 120.575 69.5455 120.599 69.5304 120.621V120.621ZM70.5728 119.067L70.0536 119.842C70.0394 119.864 70.0209 119.883 69.9992 119.898C69.9775 119.913 69.953 119.924 69.9272 119.929C69.9014 119.935 69.8748 119.935 69.849 119.93C69.8231 119.925 69.7985 119.915 69.7765 119.9C69.7545 119.886 69.7357 119.867 69.721 119.845C69.7064 119.823 69.6962 119.799 69.6912 119.773C69.6861 119.747 69.6862 119.72 69.6915 119.695C69.6969 119.669 69.7072 119.644 69.7221 119.623L70.2413 118.844C70.2715 118.8 70.3175 118.769 70.3697 118.759C70.4219 118.749 70.4762 118.759 70.5209 118.788C70.5428 118.803 70.5615 118.822 70.5759 118.844C70.5904 118.866 70.6003 118.891 70.6052 118.917C70.61 118.943 70.6096 118.97 70.6041 118.995C70.5985 119.021 70.5879 119.046 70.5728 119.067L70.5728 119.067ZM71.6192 117.51L71.096 118.289C71.077 118.315 71.0518 118.337 71.0227 118.353C70.9935 118.368 70.9612 118.376 70.9283 118.376C70.8898 118.378 70.852 118.366 70.8204 118.345C70.7765 118.314 70.7462 118.268 70.7357 118.216C70.7253 118.164 70.7356 118.11 70.7645 118.065L71.2877 117.29C71.3168 117.246 71.3622 117.215 71.4139 117.205C71.4656 117.195 71.5194 117.205 71.5633 117.234C71.6073 117.263 71.6379 117.309 71.6484 117.36C71.6588 117.412 71.6483 117.466 71.6192 117.51H71.6192ZM72.6616 115.956L72.1384 116.735C72.1202 116.762 72.0958 116.784 72.0673 116.799C72.0388 116.814 72.007 116.822 71.9747 116.823C71.9351 116.823 71.8964 116.812 71.8628 116.791C71.8189 116.761 71.7886 116.715 71.7781 116.662C71.7677 116.61 71.778 116.556 71.8069 116.511L72.3301 115.736C72.3593 115.693 72.4047 115.662 72.4563 115.652C72.5079 115.641 72.5615 115.652 72.6054 115.681C72.6493 115.71 72.6799 115.755 72.6904 115.807C72.7009 115.859 72.6906 115.912 72.6616 115.956V115.956ZM73.704 114.402L73.1808 115.181C73.1629 115.208 73.1386 115.231 73.11 115.246C73.0814 115.261 73.0495 115.269 73.0171 115.269C72.9769 115.27 72.9377 115.257 72.9052 115.233C72.8613 115.204 72.8307 115.159 72.8203 115.107C72.8098 115.055 72.8202 115.002 72.8493 114.958L73.3725 114.179C73.4025 114.136 73.4483 114.106 73.4999 114.096C73.5516 114.087 73.6049 114.098 73.6485 114.127C73.6921 114.157 73.7223 114.202 73.7327 114.253C73.7431 114.305 73.7328 114.358 73.704 114.402V114.402ZM74.7465 112.849L74.2232 113.628C74.2089 113.65 74.1903 113.668 74.1685 113.683C74.1467 113.697 74.1222 113.707 74.0965 113.712C74.0708 113.717 74.0443 113.717 74.0188 113.711C73.9932 113.705 73.969 113.695 73.9477 113.68C73.9038 113.65 73.8732 113.605 73.8627 113.553C73.8522 113.502 73.8626 113.448 73.8917 113.404L74.4149 112.625C74.4294 112.603 74.4481 112.585 74.4699 112.57C74.4917 112.556 74.5161 112.546 74.5418 112.541C74.5675 112.536 74.5938 112.537 74.6194 112.542C74.6449 112.548 74.6691 112.558 74.6905 112.573C74.7344 112.602 74.765 112.648 74.7755 112.7C74.786 112.751 74.7755 112.805 74.7464 112.849L74.7465 112.849ZM75.7888 111.295L75.2696 112.07C75.2514 112.098 75.2266 112.121 75.1973 112.137C75.168 112.153 75.1353 112.162 75.1019 112.162C75.0618 112.162 75.0228 112.149 74.99 112.126C74.9461 112.097 74.9156 112.051 74.9051 112C74.8946 111.948 74.9051 111.894 74.9342 111.85L75.4573 111.072C75.4868 111.028 75.5321 110.998 75.5837 110.987C75.6353 110.977 75.6889 110.987 75.733 111.016C75.7768 111.046 75.8072 111.092 75.8177 111.144C75.8281 111.196 75.8177 111.251 75.7888 111.295L75.7888 111.295ZM76.8313 109.742L76.312 110.516C76.2937 110.544 76.2687 110.566 76.2394 110.582C76.2101 110.597 76.1774 110.605 76.1443 110.604C76.1046 110.606 76.0655 110.594 76.0325 110.572C76.0107 110.558 75.992 110.539 75.9775 110.517C75.963 110.496 75.9531 110.471 75.9482 110.446C75.9434 110.42 75.9437 110.393 75.9493 110.368C75.9548 110.342 75.9655 110.318 75.9805 110.297L76.4998 109.518C76.5143 109.496 76.5331 109.477 76.555 109.462C76.5769 109.447 76.6016 109.437 76.6276 109.431C76.6535 109.426 76.6803 109.426 76.7063 109.431C76.7323 109.437 76.7569 109.447 76.7789 109.462C76.8009 109.477 76.8197 109.496 76.8342 109.518C76.8487 109.54 76.8587 109.565 76.8636 109.591C76.8685 109.617 76.8681 109.643 76.8626 109.669C76.857 109.695 76.8464 109.72 76.8313 109.742H76.8313ZM77.8737 108.184L77.3544 108.963C77.3354 108.99 77.3103 109.012 77.2811 109.027C77.252 109.042 77.2196 109.05 77.1867 109.051C77.1473 109.049 77.1089 109.038 77.0749 109.019C77.053 109.004 77.0343 108.985 77.0198 108.963C77.0053 108.94 76.9954 108.916 76.9906 108.89C76.9857 108.864 76.9861 108.837 76.9917 108.811C76.9972 108.785 77.0079 108.761 77.023 108.739L77.5422 107.964C77.5723 107.92 77.6184 107.89 77.6706 107.88C77.7228 107.869 77.777 107.88 77.8217 107.908C77.8436 107.923 77.8624 107.941 77.877 107.963C77.8915 107.985 77.9015 108.009 77.9063 108.035C77.9112 108.061 77.9108 108.087 77.9052 108.113C77.8996 108.139 77.8888 108.163 77.8737 108.184L77.8737 108.184ZM78.9161 106.63L78.3969 107.409C78.3778 107.436 78.3527 107.458 78.3235 107.473C78.2944 107.488 78.262 107.497 78.2291 107.497C78.191 107.496 78.1537 107.485 78.1213 107.465C78.0992 107.45 78.0802 107.432 78.0654 107.41C78.0506 107.388 78.0403 107.363 78.0352 107.337C78.03 107.311 78.03 107.284 78.0351 107.258C78.0403 107.232 78.0506 107.207 78.0654 107.185L78.5846 106.411C78.6147 106.367 78.6608 106.336 78.713 106.326C78.7652 106.316 78.8194 106.326 78.8642 106.355C78.8861 106.369 78.9048 106.388 78.9194 106.409C78.9339 106.431 78.9439 106.456 78.9487 106.482C78.9536 106.507 78.9532 106.534 78.9476 106.559C78.942 106.585 78.9312 106.609 78.9161 106.63V106.63ZM79.9625 105.077L79.4393 105.855C79.4211 105.882 79.3967 105.904 79.3682 105.919C79.3396 105.935 79.3078 105.943 79.2755 105.943C79.2353 105.944 79.1961 105.931 79.1637 105.907C79.1198 105.878 79.0892 105.833 79.0787 105.781C79.0683 105.729 79.0787 105.676 79.1078 105.632L79.631 104.853C79.661 104.81 79.7068 104.78 79.7584 104.771C79.8101 104.761 79.8634 104.772 79.9069 104.802C79.9505 104.831 79.9807 104.876 79.9911 104.928C80.0015 104.979 79.9912 105.033 79.9625 105.077V105.077ZM81.0049 103.523L80.4817 104.302C80.4634 104.329 80.439 104.351 80.4105 104.366C80.3821 104.381 80.3503 104.389 80.3179 104.39C80.2778 104.39 80.2385 104.377 80.2061 104.354C80.1622 104.325 80.1316 104.279 80.1211 104.228C80.1107 104.176 80.1211 104.122 80.1502 104.078L80.6734 103.299C80.6878 103.278 80.7064 103.259 80.7282 103.244C80.75 103.23 80.7745 103.22 80.8002 103.215C80.8259 103.21 80.8523 103.211 80.8778 103.216C80.9034 103.222 80.9276 103.232 80.949 103.247C80.9929 103.277 81.0235 103.322 81.034 103.374C81.0445 103.425 81.034 103.479 81.0049 103.523L81.0049 103.523ZM82.0473 101.969L81.5241 102.744C81.5069 102.772 81.4827 102.795 81.454 102.81C81.4252 102.825 81.3929 102.833 81.3603 102.832C81.3206 102.834 81.2813 102.823 81.2485 102.8C81.2048 102.771 81.1744 102.725 81.1639 102.674C81.1534 102.622 81.1637 102.569 81.1926 102.525L81.7158 101.746C81.7451 101.702 81.7905 101.672 81.8421 101.661C81.8937 101.651 81.9474 101.661 81.9914 101.69C82.0353 101.72 82.0657 101.766 82.0761 101.818C82.0866 101.871 82.0762 101.925 82.0473 101.969L82.0473 101.969ZM83.2295 100.552L82.6145 101.258C82.5969 101.281 82.5744 101.298 82.5487 101.31C82.523 101.322 82.4949 101.328 82.4667 101.326C82.4285 101.327 82.391 101.316 82.3587 101.296C82.3264 101.276 82.3007 101.246 82.2846 101.212C82.2686 101.177 82.2629 101.139 82.2683 101.101C82.2736 101.063 82.2898 101.028 82.3149 100.999L82.926 100.292C82.9605 100.252 83.0094 100.227 83.0621 100.223C83.1149 100.219 83.167 100.236 83.2072 100.27C83.2474 100.305 83.2723 100.354 83.2765 100.406C83.2807 100.459 83.2638 100.511 83.2295 100.552ZM84.4556 99.1378L83.8406 99.8446C83.8225 99.8661 83.7998 99.8833 83.7743 99.895C83.7487 99.9068 83.7209 99.9128 83.6928 99.9126C83.6445 99.9132 83.5976 99.8961 83.561 99.8646C83.5209 99.8296 83.4963 99.7801 83.4925 99.7269C83.4888 99.6738 83.5062 99.6213 83.541 99.581L84.1521 98.8741C84.1877 98.8349 84.2371 98.811 84.2899 98.8073C84.3427 98.8036 84.3949 98.8203 84.4357 98.8541C84.4758 98.8892 84.5004 98.9387 84.5041 98.9919C84.5079 99.045 84.4904 99.0975 84.4556 99.1379L84.4556 99.1378ZM85.6817 97.7239L85.0667 98.4308C85.0485 98.4523 85.0259 98.4695 85.0004 98.4812C84.9748 98.4929 84.947 98.4989 84.9189 98.4987C84.8706 98.4993 84.8238 98.4822 84.7871 98.4507C84.747 98.4157 84.7224 98.3662 84.7187 98.3131C84.715 98.2599 84.7324 98.2075 84.7671 98.1672L85.3782 97.4602C85.4132 97.42 85.4627 97.3953 85.5159 97.3915C85.5691 97.3878 85.6216 97.4053 85.6618 97.4403C85.7021 97.4753 85.7268 97.5248 85.7305 97.578C85.7342 97.6312 85.7167 97.6836 85.6817 97.7239ZM86.9079 96.31L86.2928 97.017C86.2747 97.0384 86.252 97.0556 86.2265 97.0673C86.2009 97.079 86.1732 97.085 86.1451 97.0848C86.0967 97.0854 86.0499 97.0684 86.0133 97.0368C85.9732 97.0018 85.9486 96.9523 85.9448 96.8992C85.9411 96.8461 85.9585 96.7936 85.9933 96.7533L86.6043 96.0464C86.6393 96.0061 86.6888 95.9814 86.742 95.9777C86.7952 95.9739 86.8477 95.9915 86.8879 96.0264C86.9282 96.0614 86.9529 96.1109 86.9566 96.1641C86.9604 96.2173 86.9429 96.2698 86.9079 96.31H86.9079ZM88.1341 94.8961L87.519 95.6031C87.5008 95.6245 87.4782 95.6417 87.4526 95.6534C87.4271 95.6652 87.3993 95.6712 87.3712 95.6709C87.3229 95.6715 87.276 95.6545 87.2394 95.623C87.1993 95.5879 87.1747 95.5384 87.171 95.4853C87.1672 95.4322 87.1846 95.3797 87.2194 95.3394L87.8305 94.6325C87.8655 94.5922 87.915 94.5675 87.9682 94.5638C88.0214 94.56 88.0738 94.5776 88.1141 94.6126C88.1544 94.6475 88.1791 94.697 88.1828 94.7502C88.1866 94.8034 88.169 94.8559 88.134 94.8961H88.1341ZM89.3601 93.4783L88.7451 94.1852C88.7287 94.2058 88.7082 94.2228 88.6849 94.2351C88.6616 94.2474 88.636 94.2547 88.6097 94.2566C88.5834 94.2585 88.557 94.2549 88.5322 94.246C88.5074 94.2372 88.4847 94.2233 88.4655 94.2052C88.4457 94.1882 88.4294 94.1675 88.4177 94.1442C88.4059 94.121 88.3989 94.0956 88.3971 94.0695C88.3952 94.0435 88.3986 94.0174 88.4069 93.9927C88.4152 93.968 88.4283 93.9452 88.4456 93.9256L89.0566 93.2187C89.0917 93.1786 89.1412 93.154 89.1943 93.1502C89.2474 93.1465 89.2999 93.1639 89.3402 93.1987C89.36 93.2157 89.3763 93.2364 89.388 93.2597C89.3997 93.283 89.4067 93.3084 89.4086 93.3344C89.4104 93.3604 89.4071 93.3866 89.3988 93.4113C89.3905 93.436 89.3773 93.4588 89.3601 93.4784V93.4783ZM90.5863 92.0644L89.9712 92.7713C89.9548 92.792 89.9343 92.809 89.911 92.8212C89.8877 92.8335 89.8621 92.8408 89.8358 92.8427C89.8096 92.8446 89.7832 92.841 89.7584 92.8322C89.7336 92.8233 89.7108 92.8094 89.6917 92.7913C89.6719 92.7744 89.6556 92.7537 89.6439 92.7304C89.6321 92.7071 89.6251 92.6817 89.6233 92.6557C89.6214 92.6297 89.6247 92.6036 89.633 92.5789C89.6413 92.5542 89.6545 92.5314 89.6717 92.5118L90.2828 91.8049C90.3178 91.7648 90.3673 91.7402 90.4204 91.7364C90.4735 91.7327 90.526 91.7501 90.5663 91.7849C90.5862 91.8018 90.6024 91.8225 90.6142 91.8458C90.6259 91.8691 90.633 91.8945 90.6348 91.9205C90.6367 91.9466 90.6333 91.9727 90.625 91.9974C90.6167 92.0222 90.6035 92.045 90.5863 92.0646L90.5863 92.0644ZM91.8124 90.6507L91.1974 91.3575C91.1798 91.3796 91.1573 91.3973 91.1316 91.4092C91.1059 91.421 91.0778 91.4266 91.0496 91.4255C91.0114 91.426 90.9739 91.4154 90.9416 91.3951C90.9093 91.3748 90.8836 91.3455 90.8675 91.3109C90.8515 91.2763 90.8458 91.2377 90.8512 91.1999C90.8565 91.1621 90.8728 91.1267 90.8978 91.0979L91.5089 90.391C91.544 90.3509 91.5934 90.3263 91.6466 90.3226C91.6997 90.3188 91.7521 90.3362 91.7924 90.371C91.8123 90.388 91.8286 90.4087 91.8403 90.432C91.8521 90.4553 91.8591 90.4807 91.8609 90.5067C91.8628 90.5328 91.8595 90.5589 91.8511 90.5836C91.8428 90.6084 91.8297 90.6312 91.8124 90.6508L91.8124 90.6507ZM93.0385 89.2368L92.4235 89.9437C92.406 89.9658 92.3834 89.9835 92.3577 89.9953C92.332 90.0071 92.3039 90.0127 92.2757 90.0116C92.2375 90.0121 92.2 90.0015 92.1677 89.9812C92.1354 89.9609 92.1097 89.9316 92.0937 89.897C92.0776 89.8624 92.072 89.8238 92.0773 89.786C92.0827 89.7482 92.0989 89.7128 92.124 89.684L92.735 88.9771C92.7521 88.9572 92.7729 88.9408 92.7962 88.9289C92.8196 88.917 92.8451 88.9099 92.8713 88.9078C92.8974 88.9058 92.9237 88.9089 92.9487 88.917C92.9736 88.9252 92.9967 88.9381 93.0166 88.9552C93.0365 88.9722 93.0529 88.993 93.0648 89.0164C93.0767 89.0398 93.0839 89.0653 93.0859 89.0914C93.0879 89.1176 93.0848 89.1439 93.0767 89.1688C93.0686 89.1938 93.0556 89.2168 93.0385 89.2368ZM94.2647 87.8229L93.6496 88.5298C93.615 88.5693 93.5663 88.5935 93.5139 88.5972C93.4616 88.6009 93.4099 88.5839 93.37 88.5497C93.33 88.5147 93.3054 88.4652 93.3016 88.4121C93.2979 88.3589 93.3153 88.3065 93.3501 88.2662L93.9611 87.5592C93.9961 87.519 94.0456 87.4943 94.0988 87.4905C94.152 87.4868 94.2045 87.5043 94.2447 87.5393C94.285 87.5743 94.3097 87.6238 94.3134 87.677C94.3172 87.7302 94.2996 87.7827 94.2647 87.8229ZM95.4908 86.409L94.8757 87.116C94.8576 87.1374 94.8349 87.1546 94.8094 87.1663C94.7839 87.1781 94.7561 87.184 94.728 87.1838C94.6797 87.1844 94.6328 87.1674 94.5962 87.1359C94.5561 87.1008 94.5315 87.0513 94.5278 86.9982C94.524 86.9451 94.5414 86.8926 94.5762 86.8523L95.1873 86.1454C95.2222 86.1051 95.2718 86.0804 95.3249 86.0767C95.3781 86.0729 95.4306 86.0905 95.4709 86.1254C95.5111 86.1604 95.5358 86.2099 95.5396 86.2631C95.5433 86.3163 95.5258 86.3688 95.4908 86.409H95.4908ZM96.717 84.9952L96.1019 85.7021C96.0832 85.7229 96.0604 85.7397 96.035 85.7513C96.0096 85.763 95.9821 85.7693 95.9541 85.77C95.9058 85.7705 95.859 85.7535 95.8223 85.7221C95.7822 85.687 95.7576 85.6375 95.7539 85.5844C95.7501 85.5312 95.7676 85.4788 95.8024 85.4384L96.4134 84.7316C96.4485 84.6916 96.4979 84.6671 96.5509 84.6634C96.604 84.6598 96.6563 84.6773 96.6965 84.7122C96.7366 84.7471 96.7613 84.7964 96.7652 84.8494C96.769 84.9025 96.7517 84.9549 96.717 84.9952ZM97.9431 83.5813L97.328 84.2882C97.2934 84.3276 97.2447 84.3518 97.1923 84.3556C97.14 84.3593 97.0883 84.3423 97.0484 84.3082C97.0083 84.2731 96.9838 84.2237 96.98 84.1705C96.9763 84.1174 96.9937 84.065 97.0285 84.0246L97.6396 83.3177C97.6568 83.2977 97.6779 83.2812 97.7015 83.2693C97.7252 83.2574 97.7509 83.2503 97.7773 83.2484C97.8037 83.2465 97.8302 83.2498 97.8553 83.2582C97.8805 83.2666 97.9037 83.2798 97.9236 83.2971C97.9436 83.3145 97.96 83.3356 97.9718 83.3593C97.9836 83.383 97.9906 83.4088 97.9924 83.4352C97.9942 83.4616 97.9908 83.4881 97.9823 83.5131C97.9739 83.5382 97.9605 83.5614 97.9431 83.5813H97.9431ZM99.1692 82.1635L98.5541 82.8743C98.5349 82.8956 98.5115 82.9126 98.4854 82.9243C98.4593 82.9359 98.431 82.9421 98.4024 82.9422C98.3554 82.9421 98.3101 82.9251 98.2746 82.8943C98.2345 82.8593 98.2099 82.8098 98.2062 82.7567C98.2024 82.7036 98.2198 82.6511 98.2546 82.6108L98.8657 81.9039C98.9007 81.8638 98.9502 81.8392 99.0033 81.8354C99.0564 81.8317 99.1089 81.8491 99.1492 81.8839C99.169 81.9008 99.1853 81.9216 99.197 81.9449C99.2088 81.9682 99.2158 81.9936 99.2177 82.0196C99.2195 82.0457 99.2162 82.0718 99.2079 82.0965C99.1996 82.1213 99.1864 82.1441 99.1692 82.1637V82.1635ZM100.395 80.7497L99.7803 81.4566C99.7624 81.4786 99.7399 81.4964 99.7143 81.5088C99.6888 81.5212 99.6609 81.5279 99.6325 81.5284C99.6082 81.5289 99.584 81.5246 99.5614 81.5157C99.5388 81.5068 99.5182 81.4934 99.5007 81.4765C99.4809 81.4595 99.4646 81.4388 99.4529 81.4155C99.4412 81.3923 99.4342 81.3669 99.4323 81.3409C99.4304 81.3149 99.4338 81.2888 99.4421 81.264C99.4504 81.2393 99.4635 81.2165 99.4807 81.1969L100.092 80.49C100.127 80.4499 100.176 80.4253 100.229 80.4216C100.283 80.4178 100.335 80.4352 100.375 80.47C100.395 80.487 100.411 80.5077 100.423 80.531C100.435 80.5543 100.442 80.5797 100.444 80.6058C100.446 80.6318 100.442 80.6579 100.434 80.6827C100.426 80.7074 100.413 80.7303 100.395 80.7499L100.395 80.7497ZM101.621 79.3358L101.006 80.0427C100.988 80.0642 100.966 80.0815 100.94 80.0932C100.915 80.1049 100.887 80.1109 100.859 80.1106C100.82 80.1111 100.783 80.1005 100.751 80.0802C100.718 80.0599 100.693 80.0306 100.677 79.996C100.661 79.9614 100.655 79.9228 100.66 79.885C100.666 79.8472 100.682 79.8118 100.707 79.783L101.318 79.0761C101.353 79.036 101.402 79.0114 101.456 79.0077C101.509 79.0039 101.561 79.0214 101.602 79.0561C101.621 79.0731 101.638 79.0938 101.649 79.1171C101.661 79.1404 101.668 79.1658 101.67 79.1919C101.672 79.2179 101.669 79.2441 101.66 79.2688C101.652 79.2936 101.639 79.3164 101.621 79.336L101.621 79.3358ZM102.848 77.9219L102.233 78.6288C102.214 78.6508 102.191 78.6682 102.164 78.68C102.138 78.6917 102.11 78.6974 102.081 78.6967C102.043 78.6965 102.006 78.6854 101.974 78.6648C101.943 78.6441 101.917 78.6148 101.902 78.5804C101.886 78.5459 101.881 78.5077 101.887 78.4703C101.892 78.4328 101.908 78.3978 101.933 78.3693L102.544 77.6623C102.579 77.6222 102.629 77.5976 102.682 77.5939C102.735 77.5901 102.787 77.6076 102.828 77.6423C102.847 77.6593 102.864 77.68 102.876 77.7033C102.887 77.7266 102.894 77.752 102.896 77.7781C102.898 77.8041 102.895 77.8303 102.886 77.855C102.878 77.8797 102.865 77.9026 102.848 77.9221L102.848 77.9219ZM104.074 76.508L103.459 77.215C103.439 77.2362 103.416 77.2532 103.39 77.2648C103.364 77.2765 103.336 77.2826 103.307 77.2828C103.269 77.2826 103.232 77.2715 103.2 77.2509C103.169 77.2303 103.144 77.201 103.128 77.1665C103.112 77.1321 103.107 77.0938 103.113 77.0564C103.118 77.019 103.134 76.9839 103.159 76.9554L103.77 76.2444C103.806 76.2052 103.855 76.1812 103.908 76.1775C103.961 76.1738 104.013 76.1906 104.054 76.2244C104.094 76.2595 104.119 76.3091 104.122 76.3622C104.126 76.4154 104.109 76.4679 104.074 76.5083V76.508Z" fill="white"/>
<path d="M89.073 44.6181C89.043 44.6181 89.0136 44.6098 88.988 44.5939C88.3547 44.1755 87.6276 43.9205 86.8717 43.8517C86.1158 43.7828 85.3546 43.9024 84.6561 44.1996C84.6183 44.2192 84.5743 44.2229 84.5337 44.2101C84.493 44.1973 84.4592 44.1689 84.4395 44.1311C84.4197 44.0934 84.4158 44.0493 84.4284 44.0087C84.4411 43.968 84.4693 43.934 84.507 43.9141C85.2534 43.5832 86.0716 43.4468 86.885 43.5178C87.6985 43.5888 88.4806 43.8649 89.1585 44.3201C89.1882 44.3386 89.2111 44.3664 89.2237 44.3991C89.2363 44.4318 89.2379 44.4677 89.2282 44.5014C89.2186 44.5351 89.1982 44.5647 89.1702 44.5857C89.1422 44.6068 89.1081 44.6182 89.073 44.6181Z" fill="white"/>
<path d="M91.4138 57.5489C91.4836 56.7084 91.5857 55.8877 91.6693 55.0623C91.7643 54.2376 91.8284 53.4153 91.9361 52.5776C92.0714 53.4107 92.0894 54.2585 91.9896 55.0965C91.9096 55.9363 91.7159 56.7613 91.4138 57.5489Z" fill="white"/>
<path d="M92.5883 49.0899C92.5749 49.0899 92.5616 49.0883 92.5485 49.0852C92.5071 49.0747 92.4716 49.0482 92.4497 49.0115C92.4278 48.9748 92.4214 48.9309 92.4319 48.8895C92.9495 46.8453 90.8747 45.1034 90.8539 45.0863C90.8209 45.059 90.8002 45.0198 90.7961 44.9773C90.7921 44.9348 90.8051 44.8924 90.8322 44.8595C90.8594 44.8265 90.8985 44.8057 90.9411 44.8015C90.9836 44.7974 91.026 44.8103 91.059 44.8374C91.1513 44.9139 93.3116 46.7287 92.7443 48.9682C92.7356 49.003 92.7155 49.0339 92.6873 49.0559C92.659 49.0779 92.6242 49.0899 92.5883 49.0899Z" fill="white"/>
<path d="M70.5439 30.132C70.7243 29.9834 70.9521 29.9046 71.1857 29.91C71.4194 29.9154 71.6433 30.0047 71.8166 30.1615C71.8166 30.1615 72.5376 28.454 77.2361 28.7775C77.2361 28.7775 76.8944 30.0201 76.4775 30.1106C76.0605 30.2011 77.686 31.8569 78.7938 31.5291C78.7938 31.5291 81.3182 33.9067 80.4469 36.9339C79.5881 39.9175 78.7389 40.9903 76.9361 39.5671C76.8806 39.5229 76.8211 39.4841 76.7582 39.4512C76.2744 39.2019 74.1526 38.1891 73.7364 39.3779C73.6498 39.6407 73.6709 39.9271 73.795 40.1745C74.3559 41.3415 76.7138 45.5765 80.3015 42.9036C80.3015 42.9036 84.5625 40.1576 82.5742 36.2744C82.3663 35.8806 82.1093 35.5148 81.8093 35.1858C81.5154 34.8469 81.2938 34.4516 81.1581 34.024C81.0224 33.5965 80.9755 33.1458 81.0201 32.6994C81.0588 32.0685 81.3257 31.4733 81.771 31.0247C82.2054 30.6023 82.8374 30.3185 83.5293 31.0859C83.8161 31.4055 84.015 31.7939 84.1066 32.2134C84.1711 32.4064 84.1909 32.6116 84.1645 32.8134C84.1381 33.0152 84.0662 33.2084 83.9543 33.3784L84.5041 34.045C84.6216 33.5712 84.8046 33.1161 85.0477 32.6929C85.4658 32.0339 85.6575 31.2566 85.5938 30.4789C85.4753 29.2489 84.9161 27.4953 83.0344 25.7187C83.0344 25.7187 80.2837 22.2986 76.7157 23.1602C73.1477 24.0218 70.27 25.6505 70.5439 30.132Z" fill="white"/>
<path d="M77.6347 33.8326C77.0048 34.0027 76.3786 34.1417 75.7637 34.3166C75.4545 34.3977 75.1529 34.4987 74.8548 34.6069C74.5522 34.71 74.2683 34.8613 74.0139 35.0549C74.2134 34.7888 74.477 34.5775 74.7801 34.4405C75.0737 34.2916 75.3819 34.1736 75.6999 34.0884C76.0148 34.0013 76.3354 33.9361 76.6593 33.8934C76.9822 33.8468 77.3084 33.8265 77.6347 33.8326Z" fill="white"/>
<path d="M71.6167 35.0749C71.8696 35.0495 72.1249 35.0848 72.3614 35.1781C72.4861 35.2283 72.5986 35.3049 72.691 35.4025C72.7835 35.5002 72.8537 35.6167 72.897 35.7441C72.9576 35.9994 72.9618 36.2648 72.9095 36.5219L72.7947 37.2564C72.6948 37.7286 72.6641 38.2128 72.7038 38.6938C72.7134 38.8069 72.7483 38.9163 72.8058 39.0141C72.8634 39.1118 72.9422 39.1954 73.0364 39.2586C73.2528 39.3665 73.4964 39.4075 73.7362 39.3765C73.4903 39.455 73.2253 39.4498 72.9827 39.3617C72.8641 39.2975 72.7614 39.2075 72.6823 39.0984C72.6031 38.9892 72.5495 38.8637 72.5253 38.731C72.4433 38.229 72.4553 37.7161 72.5609 37.2185L72.6881 36.489C72.7423 36.2621 72.7541 36.0271 72.723 35.7958C72.6245 35.3417 72.0947 35.1209 71.6167 35.0749Z" fill="white"/>
<path d="M70.5444 30.1318L71.1235 32.9705C71.233 33.4392 71.3386 33.9082 71.4635 34.3706C71.5317 34.5996 71.5993 34.8293 71.6864 35.0496C71.7614 35.2707 71.8636 35.4816 71.9906 35.6774L71.9769 35.6646C72.1553 35.8046 72.3209 35.9603 72.4717 36.1298C72.5472 36.2148 72.6158 36.3058 72.6768 36.4018C72.7437 36.4956 72.7749 36.6102 72.7648 36.7249C72.7559 36.615 72.7106 36.5111 72.6361 36.4298C72.5665 36.3448 72.4902 36.2655 72.408 36.1926C72.2427 36.0473 72.0694 35.9114 71.8888 35.7856C71.8836 35.782 71.879 35.7776 71.875 35.7727C71.5878 35.3675 71.3773 34.9132 71.2539 34.4322C71.112 33.9667 70.9963 33.4937 70.9074 33.0153C70.7183 32.0639 70.5971 31.1004 70.5444 30.1318Z" fill="white"/>
<path d="M74.8193 37.7612C74.9191 37.8115 75.0047 37.886 75.0681 37.978C75.1316 38.07 75.1709 38.1764 75.1824 38.2876C75.1862 38.404 75.1502 38.5182 75.0803 38.6114C75.0468 38.6552 75.0089 38.6955 74.9673 38.7317C74.922 38.7628 74.8748 38.7896 74.8302 38.8173C74.972 38.6787 75.0556 38.4912 75.0642 38.2931C75.0598 38.1973 75.0333 38.1039 74.9867 38.0201C74.9395 37.9286 74.8834 37.8419 74.8193 37.7612Z" fill="white"/>
<path d="M83.9543 33.377C83.9432 33.6119 83.9249 33.8408 83.9257 34.0656C83.9258 34.1753 83.9326 34.285 83.946 34.3939C83.9521 34.4452 83.9619 34.496 83.9754 34.5459C83.9986 34.6151 84.0072 34.6884 84.0006 34.7611C83.9863 34.8324 83.958 34.9002 83.9174 34.9605C83.8768 35.0209 83.8246 35.0726 83.7639 35.1126C83.6619 35.1852 83.5491 35.2413 83.4296 35.2787C83.2035 35.3605 82.9603 35.384 82.7227 35.347C82.9436 35.2947 83.1573 35.2153 83.3588 35.1107C83.5446 35.0105 83.751 34.8709 83.7658 34.7296C83.7814 34.6866 83.7257 34.5385 83.7232 34.415C83.7162 34.2934 83.7234 34.1714 83.7447 34.0515C83.7799 33.8173 83.8506 33.5898 83.9543 33.377Z" fill="white"/>
<path d="M84.5037 34.0454C84.7448 34.3079 84.9874 34.5628 85.239 34.8061C85.4876 35.0494 85.7506 35.2775 86.0266 35.4893C86.2976 35.7016 86.591 35.8837 86.9016 36.0323C87.2185 36.1766 87.5583 36.264 87.9055 36.2906C87.5468 36.3545 87.1776 36.3239 86.8343 36.2017C86.4908 36.0798 86.1695 35.9028 85.8829 35.6776C85.5967 35.4584 85.3362 35.2077 85.1063 34.93C84.8726 34.6589 84.6704 34.3621 84.5037 34.0454Z" fill="white"/>
<path d="M83.5657 44.4648C83.2615 44.4968 82.9539 44.4619 82.6645 44.3626C82.3736 44.27 82.0955 44.141 81.8369 43.9786C81.579 43.8187 81.3378 43.6335 81.1168 43.4255L80.7997 43.1031C80.7062 42.9837 80.6075 42.8707 80.5205 42.7476L81.2333 43.2852C81.4759 43.4525 81.7094 43.6295 81.9612 43.7769C82.2079 43.9317 82.4642 44.0706 82.7285 44.1927C82.9958 44.3164 83.2769 44.4077 83.5657 44.4648Z" fill="white"/>
<path d="M75.6468 35.8886C75.7394 35.8854 75.8271 35.8464 75.8915 35.7798C75.9559 35.7131 75.9918 35.6241 75.9918 35.5315C75.9918 35.4388 75.9559 35.3498 75.8915 35.2832C75.8271 35.2165 75.7394 35.1775 75.6468 35.1743C75.5542 35.1775 75.4665 35.2165 75.4021 35.2832C75.3377 35.3498 75.3018 35.4388 75.3018 35.5315C75.3018 35.6241 75.3377 35.7131 75.4021 35.7798C75.4665 35.8464 75.5542 35.8854 75.6468 35.8886Z" fill="white"/>
<path d="M64.5737 139.925C63.751 138.758 61.9777 139.098 60.7675 139.517C60.1698 139.736 59.5311 139.82 58.8971 139.763C58.2632 139.705 57.6499 139.508 57.1011 139.186C54.7447 137.732 54.8765 135.136 55.0762 133.978C55.1799 133.427 55.1013 132.858 54.8525 132.356C53.6184 130.024 50.6669 132.899 50.6669 132.899C51.1198 133.145 51.5211 133.476 51.8491 133.874C52.1895 134.269 52.456 134.722 52.6359 135.212C52.8216 135.701 52.9203 136.218 52.9274 136.741C52.9441 137.259 52.8445 137.773 52.6359 138.247C52.5854 137.285 52.3902 136.336 52.0568 135.431C51.8918 134.988 51.6901 134.559 51.4537 134.149C51.226 133.73 50.9385 133.339 50.6669 132.899C50.6669 132.899 49.2171 132.616 47.1842 132.208C47.5273 132.578 47.8213 132.99 48.0589 133.434C48.3035 133.877 48.5029 134.342 48.654 134.824C48.8117 135.319 48.8859 135.836 48.8736 136.354C48.8686 136.62 48.8186 136.883 48.7258 137.133C48.6331 137.383 48.4659 137.599 48.2466 137.752C48.4409 137.32 48.4927 136.837 48.3944 136.374C48.3137 135.911 48.2029 135.453 48.0629 135.004C47.7873 134.089 47.4438 133.187 47.1842 132.208C46.0899 131.989 44.8238 131.733 43.5258 131.469C43.9178 131.807 44.2523 132.207 44.5162 132.652C44.7889 133.095 45.0024 133.571 45.1513 134.07C45.2975 134.579 45.353 135.11 45.315 135.639C45.2711 136.168 45.0787 136.673 44.7599 137.097C44.8418 136.614 44.8673 136.124 44.8357 135.635C44.7823 135.163 44.6888 134.697 44.5562 134.241C44.4224 133.774 44.2651 133.314 44.0849 132.863L43.5258 131.469C41.3531 131.022 39.0886 130.555 37.3792 130.175C32.7582 129.157 32.4148 131.202 32.4148 131.202C32.5941 131.006 32.8098 130.848 33.0497 130.735C33.2984 130.609 33.5862 130.584 33.8525 130.667C34.1158 130.762 34.3422 130.938 34.4996 131.17C34.6731 131.385 34.802 131.632 34.879 131.897C34.9569 132.163 34.9933 132.439 34.9868 132.716C34.969 132.983 34.933 133.248 34.879 133.51C34.8142 134.011 34.8399 134.52 34.9548 135.012C35.2243 135.992 35.7543 136.881 36.4885 137.584C37.2255 138.287 38.0497 138.892 38.9407 139.385L38.9567 139.393C40.6781 140.152 42.3635 140.975 44.033 141.846C44.8677 142.293 45.6905 142.756 46.5012 143.256L47.1003 143.639L47.6875 144.054C47.8792 144.198 48.0669 144.358 48.2546 144.51C48.4303 144.673 48.626 144.869 48.7778 145.029C49.4279 145.679 50.1395 146.265 50.9025 146.778C51.6705 147.308 52.465 147.799 53.2829 148.248C54.1017 148.697 54.9443 149.101 55.8071 149.458C56.238 149.635 56.6812 149.78 57.133 149.893C57.5827 150.023 58.0523 150.071 58.5189 150.033C57.575 150.128 56.6222 149.996 55.7392 149.65C54.8402 149.351 53.9645 148.987 53.1191 148.559C52.271 148.137 51.4458 147.671 50.6469 147.162C49.8252 146.662 49.0628 146.071 48.3744 145.4C47.7204 144.759 46.9845 144.207 46.1857 143.759C45.391 143.279 44.5722 142.828 43.7454 142.389C42.092 141.518 40.4026 140.695 38.7051 139.909L38.6972 139.905L38.6812 139.897C37.7451 139.362 36.8876 138.701 36.1331 137.932C35.3677 137.144 34.8331 136.162 34.5874 135.092C34.481 134.553 34.4742 134 34.5674 133.458C34.6295 133.208 34.6788 132.955 34.7153 132.7C34.7379 132.449 34.7204 132.197 34.6633 131.953C34.6064 131.708 34.5034 131.476 34.3598 131.27C34.2316 131.055 34.0406 130.885 33.8126 130.783C33.5634 130.721 33.3022 130.727 33.0563 130.801C32.8103 130.874 32.5888 131.013 32.4148 131.202C29.0638 136.011 37.2513 140.995 44.085 143.771C50.9185 146.543 52.4682 149.25 52.4682 149.25C54.9045 152.921 57.1291 152.685 58.6788 151.663C59.2706 151.247 59.7586 150.7 60.1049 150.065C60.4512 149.429 60.6466 148.723 60.6757 148C60.7995 146.167 62.5089 144.318 62.5089 144.318C62.5089 144.318 65.8917 141.794 64.5737 139.925ZM58.0197 144.633C57.6922 145.5 56.486 144.913 54.4451 145.081C52.6879 145.229 51.7253 143.256 52.0488 142.389C52.3763 141.518 53.9779 141.318 55.6273 141.938C57.2729 142.557 58.3472 143.763 58.0197 144.633V144.633Z" fill="white"/>
<path d="M55.0754 133.977C55.1268 133.994 55.1815 133.999 55.2352 133.992C55.2889 133.985 55.3403 133.966 55.3853 133.935C55.4823 133.884 55.5736 133.823 55.6576 133.753C55.8304 133.615 55.9952 133.467 56.1511 133.31C56.4613 132.991 56.7665 132.665 57.0595 132.325C57.6569 131.656 58.23 130.962 58.8754 130.316C58.4316 131.111 57.9036 131.857 57.3005 132.539C56.9989 132.884 56.6704 133.204 56.318 133.497C56.1384 133.644 55.9455 133.774 55.7416 133.885C55.6374 133.94 55.5276 133.984 55.4141 134.015C55.359 134.038 55.299 134.047 55.2398 134.04C55.1806 134.033 55.124 134.011 55.0754 133.977Z" fill="white"/>
<path d="M62.8069 139.126C63.2898 138.385 63.8101 137.668 64.3656 136.98C64.9156 136.29 65.4734 135.614 66.0621 134.945C65.6675 135.743 65.183 136.492 64.6181 137.18C64.0715 137.88 63.4655 138.531 62.8069 139.126Z" fill="white"/>
<path d="M182.018 97.8361C178.739 91.2301 179.37 88.1748 179.37 88.1748C179.978 83.8135 178.156 82.5155 176.319 82.2559C175.6 82.1746 174.872 82.2602 174.192 82.5061C173.512 82.752 172.898 83.1515 172.397 83.6736C171.091 84.9637 168.583 85.2193 168.583 85.2193C168.583 85.2193 164.377 84.8638 164.126 87.1404C163.97 88.5622 165.52 89.4768 166.706 89.968C167.298 90.2 167.832 90.5602 168.27 91.0228C168.707 91.4854 169.036 92.039 169.234 92.6439C170.037 95.296 168.215 97.1531 167.301 97.888C166.857 98.2302 166.539 98.7088 166.394 99.2499C165.771 101.818 169.885 101.614 169.885 101.614C169.711 101.13 169.63 100.618 169.645 100.105C169.655 99.5824 169.756 99.066 169.945 98.5789C170.128 98.0893 170.397 97.6363 170.74 97.241C171.07 96.8416 171.486 96.5221 171.958 96.3064C171.355 97.0596 170.87 97.8999 170.52 98.7986C170.353 99.2404 170.221 99.6943 170.124 100.157C170.017 100.628 169.973 101.107 169.885 101.614C169.885 101.614 170.784 102.789 172.038 104.438C172.024 103.935 172.078 103.433 172.197 102.944C172.303 102.449 172.462 101.967 172.673 101.507C172.882 101.033 173.168 100.597 173.519 100.216C173.699 100.02 173.911 99.8548 174.146 99.7293C174.383 99.6038 174.652 99.5536 174.917 99.5854C174.485 99.78 174.127 100.107 173.895 100.52C173.646 100.92 173.425 101.336 173.232 101.766C172.832 102.633 172.493 103.535 172.038 104.438V104.442C172.713 105.333 173.487 106.359 174.286 107.413C174.219 106.903 174.234 106.385 174.33 105.88C174.417 105.366 174.573 104.866 174.793 104.394C175.022 103.916 175.331 103.481 175.708 103.108C176.093 102.742 176.573 102.492 177.094 102.385C176.71 102.691 176.366 103.042 176.067 103.432C175.793 103.82 175.554 104.231 175.352 104.662C175.137 105.089 174.973 105.544 174.793 106.004L174.286 107.413V107.418C175.62 109.191 177.006 111.044 178.036 112.458C180.82 116.288 182.434 114.978 182.434 114.978C188.129 113.6 185.297 104.442 182.018 97.8361ZM175.137 93.5946C174.318 94.0258 172.984 93.1193 172.161 91.5616C171.339 90.004 171.335 88.3905 172.153 87.9552C172.972 87.5238 173.487 88.7619 175.129 89.988C176.539 91.0425 175.956 93.1592 175.137 93.5946ZM183.384 110.629C183.107 111.102 182.745 111.522 182.318 111.867C182.103 112.011 181.898 112.168 181.703 112.338C181.521 112.51 181.367 112.709 181.248 112.929C181.126 113.149 181.049 113.39 181.02 113.64C180.974 113.886 181.005 114.139 181.108 114.367C181.249 114.575 181.443 114.741 181.669 114.848C181.896 114.956 182.148 115.001 182.398 114.978C182.145 115.007 181.89 114.984 181.647 114.91C181.377 114.839 181.144 114.666 181 114.427C180.869 114.181 180.816 113.901 180.848 113.624C180.864 113.349 180.932 113.079 181.048 112.829C181.165 112.578 181.321 112.348 181.511 112.146C181.699 111.956 181.901 111.78 182.114 111.619C182.497 111.289 182.815 110.891 183.053 110.445C183.505 109.533 183.697 108.515 183.608 107.501C183.524 106.477 183.305 105.469 182.957 104.502C182.174 102.797 181.45 101.066 180.784 99.3099C180.457 98.4232 180.145 97.5285 179.87 96.6219L179.674 95.935L179.51 95.2361C179.458 95.0004 179.426 94.7567 179.386 94.5172C179.362 94.2775 179.346 94.0019 179.338 93.7823C179.282 92.8649 179.137 91.9553 178.903 91.0664C178.684 90.1601 178.415 89.2668 178.096 88.3905C177.781 87.5114 177.419 86.6501 177.01 85.8104C176.803 85.3908 176.567 84.9863 176.303 84.6002C176.05 84.2063 175.73 83.8602 175.357 83.5778C176.126 84.1343 176.753 84.8652 177.186 85.7106C177.661 86.53 178.076 87.383 178.428 88.2626C178.784 89.14 179.092 90.0359 179.35 90.9465C179.637 91.8654 179.817 92.8142 179.886 93.7742C179.952 94.6865 180.137 95.5861 180.437 96.4502C180.716 97.3368 181.028 98.2194 181.359 99.0942C182.022 100.843 182.741 102.577 183.492 104.29V104.298L183.5 104.318C183.846 105.338 184.05 106.401 184.107 107.477C184.158 108.574 183.908 109.664 183.384 110.629Z" fill="white"/>
<path d="M167.768 98.4626C167.085 98.3994 166.398 98.371 165.712 98.3775C165.028 98.3815 164.346 98.4051 163.664 98.4482C162.982 98.4837 162.301 98.5514 161.618 98.6128C160.936 98.6817 160.252 98.755 159.561 98.8163C159.89 98.7066 160.225 98.6193 160.559 98.5235C160.896 98.447 161.233 98.3635 161.575 98.3042C162.257 98.1782 162.947 98.0933 163.64 98.0498C164.335 98.0076 165.031 98.0134 165.724 98.0673C166.419 98.114 167.106 98.2467 167.768 98.4626Z" fill="white"/>
<path d="M164.919 88.9093C164.073 89.171 163.21 89.3758 162.337 89.5222C161.468 89.6732 160.603 89.8029 159.711 89.884C160.115 89.6919 160.536 89.5378 160.968 89.4236C161.396 89.3007 161.831 89.2108 162.267 89.1292C163.141 88.9653 164.03 88.8916 164.919 88.9093Z" fill="white"/>
<path d="M115.34 41.1265C115.536 41.109 115.734 41.134 115.919 41.1999C116.105 41.2658 116.274 41.3711 116.416 41.5084C116.557 41.6576 116.653 41.8439 116.693 42.0455C116.734 42.2428 116.745 42.445 116.726 42.6456L116.72 42.5955C116.796 42.6761 116.895 42.7322 117.003 42.7567C117.132 42.7913 117.265 42.81 117.399 42.8124C117.671 42.8288 117.956 42.7898 118.249 42.7825C118.541 42.7728 118.826 42.7414 119.124 42.7498C119.277 42.7485 119.43 42.7622 119.581 42.7907C119.752 42.8157 119.913 42.8868 120.047 42.9965C120.12 43.0629 120.176 43.147 120.207 43.2406C120.239 43.3343 120.246 43.4346 120.228 43.5318C120.187 43.7084 120.085 43.8649 119.94 43.9739C119.698 44.1602 119.427 44.3056 119.138 44.4046C118.863 44.5107 118.58 44.5934 118.292 44.6518C118.149 44.6827 118.003 44.7102 117.86 44.7316C117.787 44.7415 117.717 44.7546 117.637 44.7625L117.524 44.7689L117.464 44.769L117.427 44.7662L117.4 44.7609C117.388 44.7516 117.372 44.7663 117.331 44.7067L117.337 44.7172C117.343 44.7451 117.407 44.7555 117.398 44.7524C117.402 44.753 117.406 44.7524 117.41 44.7506L117.398 44.7548C117.384 44.7606 117.37 44.7673 117.357 44.7746L117.268 44.8272L117.087 44.9456L116.729 45.1949L116.019 45.7115C116.227 45.5052 116.443 45.3072 116.663 45.1123L116.996 44.8236C117.053 44.7759 117.111 44.7306 117.172 44.6864L117.268 44.6214C117.286 44.61 117.305 44.5995 117.324 44.59L117.363 44.5746C117.376 44.5714 117.389 44.5696 117.403 44.5692C117.419 44.57 117.435 44.5743 117.45 44.5818C117.465 44.5894 117.478 44.6 117.489 44.613L117.495 44.6236C117.458 44.5719 117.452 44.589 117.448 44.5822C117.445 44.5813 117.446 44.5816 117.448 44.5815L117.465 44.5814L117.513 44.5781L117.616 44.5655L117.82 44.5232C117.96 44.493 118.096 44.4578 118.233 44.4188C118.505 44.341 118.773 44.2493 119.036 44.144C119.292 44.0507 119.531 43.9169 119.745 43.7477C119.833 43.682 119.896 43.5882 119.924 43.4818C119.933 43.4366 119.929 43.3899 119.914 43.3465C119.899 43.3031 119.872 43.2644 119.838 43.2343C119.618 43.1081 119.367 43.0472 119.114 43.0588C118.835 43.0446 118.544 43.0697 118.26 43.0731C117.976 43.0734 117.684 43.1082 117.38 43.0842C117.225 43.0721 117.073 43.0404 116.926 42.9899C116.84 42.9662 116.759 42.9256 116.689 42.8705C116.618 42.8154 116.559 42.7469 116.515 42.669C116.509 42.6571 116.507 42.6437 116.508 42.6305L116.51 42.6188C116.538 42.4406 116.54 42.2592 116.515 42.0806C116.49 41.9044 116.421 41.7375 116.314 41.5952C116.192 41.4551 116.043 41.3413 115.875 41.2608C115.708 41.1802 115.526 41.1345 115.34 41.1265Z" fill="white"/>
<path d="M141.072 26.1363C143.811 25.2732 146.563 24.4593 149.327 23.6946C152.089 22.9192 154.863 22.1891 157.638 21.4677C160.418 20.7608 163.2 20.0636 165.993 19.4114C168.784 18.7483 171.587 18.1353 174.404 17.5723C171.665 18.4363 168.913 19.2506 166.148 20.0151C163.386 20.7903 160.613 21.5204 157.837 22.2409C155.057 22.9468 152.275 23.6441 149.482 24.296C146.691 24.9588 143.888 25.5722 141.072 26.1363Z" fill="white"/>
<path d="M129.597 37.1149C132.336 36.2517 135.088 35.4378 137.853 34.6731C140.615 33.8978 143.388 33.1676 146.164 32.4463C148.943 31.7393 151.725 31.0421 154.519 30.39C157.309 29.7268 160.113 29.1138 162.929 28.5508C160.19 29.4148 157.438 30.2291 154.674 30.9937C151.912 31.7689 149.139 32.499 146.363 33.2195C143.583 33.9254 140.801 34.6226 138.007 35.2746C135.217 35.9373 132.413 36.5508 129.597 37.1149Z" fill="white"/>
<path d="M150.586 38.0544C152.09 37.4457 153.617 36.9126 155.151 36.4062C156.683 35.895 158.229 35.4287 159.778 34.971C161.33 34.5277 162.885 34.094 164.453 33.705C166.02 33.3112 167.595 32.9446 169.192 32.6543C167.688 33.264 166.161 33.7974 164.627 34.3036C163.094 34.8146 161.549 35.281 160 35.7377C158.447 36.1801 156.892 36.6137 155.324 37.0026C153.757 37.3961 152.182 37.7631 150.586 38.0544Z" fill="white"/>
<path d="M7.92848 25.5529C7.92848 25.5529 6.29516 13.9493 0.567874 6.1558C-5.15942 -1.63772 34.3223 0.185154 34.3223 0.185154L40.3868 13.7914C40.3868 13.7914 11.579 14.9053 7.92848 25.5529Z" fill="white"/>
<path d="M79.8673 63.2763C79.981 62.7908 80.1017 62.3074 80.2243 61.8246C80.3479 61.342 80.4626 60.8569 80.5936 60.3765L81.363 57.4892L81.3637 57.4868C81.3756 57.4422 81.4023 57.403 81.4394 57.3755C81.4765 57.3481 81.5218 57.334 81.5679 57.3356C82.3218 57.3624 83.0217 57.4462 83.7433 57.5306C84.4587 57.6207 85.1717 57.7214 85.8841 57.8261C86.595 57.939 87.3058 58.0518 88.0132 58.1832C88.722 58.3066 89.4262 58.4557 90.132 58.5935L90.1413 58.5953C90.1878 58.6045 90.2291 58.6311 90.2568 58.6696C90.2845 58.7081 90.2964 58.7557 90.2903 58.8028C90.0961 60.2633 89.8344 61.7062 89.5679 63.1496C89.2974 64.5915 89.0196 66.0331 88.6496 67.4561C88.4708 68.1692 88.2705 68.8782 88.0292 69.5767C87.7976 70.2861 87.4948 70.97 87.1252 71.6182C86.9311 71.9521 86.6946 72.2593 86.4214 72.5323C86.122 72.8233 85.7403 73.015 85.3281 73.0816C84.5671 73.1239 83.804 73.0498 83.0653 72.8621C80.2041 72.1583 77.4027 71.2305 74.6871 70.0873C73.3292 69.5294 71.9787 68.9554 70.6358 68.3655C69.2996 67.7593 67.9633 67.1559 66.6482 66.5038L66.6742 66.5108L65.2971 66.2957C65.2934 66.2951 65.2899 66.2939 65.2868 66.2919C65.2836 66.29 65.2808 66.2875 65.2786 66.2845C65.2764 66.2815 65.2749 66.2781 65.274 66.2745C65.2731 66.2708 65.273 66.2671 65.2735 66.2634C65.2748 66.2564 65.2786 66.25 65.2843 66.2456C65.2899 66.2412 65.297 66.2391 65.3042 66.2396L66.6908 66.3441C66.6978 66.3446 66.7046 66.3461 66.7111 66.3487L66.717 66.351C68.0777 66.8935 69.4331 67.4489 70.799 67.9765C72.1578 68.5209 73.5223 69.0495 74.8924 69.5622C76.2591 70.0826 77.6315 70.5838 79.0098 71.0658C80.3891 71.539 81.7735 72.008 83.1814 72.3392C83.8621 72.5223 84.5651 72.6095 85.2699 72.5985C85.586 72.5553 85.8813 72.416 86.1156 72.1994C86.3672 71.96 86.5884 71.6905 86.7741 71.397C87.5112 70.1477 88.0713 68.8022 88.4384 67.3989C88.8314 65.99 89.1474 64.5608 89.3849 63.1175C89.62 61.674 89.7807 60.2156 89.9074 58.7634L90.0656 58.9726L87.9344 58.6567L85.8067 58.3287C85.0982 58.2173 84.3896 58.1066 83.6802 58.0085C82.9765 57.9127 82.2499 57.8043 81.5679 57.7623L81.7727 57.6088L80.8686 60.4567C80.7207 60.9322 80.5565 61.4029 80.4012 61.8762C80.2449 62.3492 80.0867 62.8217 79.9216 63.2921C79.9192 63.299 79.9143 63.3047 79.9078 63.308C79.9013 63.3114 79.8938 63.3121 79.8869 63.3101C79.8799 63.308 79.874 63.3034 79.8703 63.2971C79.8667 63.2908 79.8656 63.2833 79.8673 63.2763Z" fill="white"/>
<path d="M65.3287 66.2642L65.3288 66.2681L65.2719 66.269C65.272 66.2746 65.2739 66.2799 65.2774 66.2843C65.281 66.2887 65.2858 66.2919 65.2912 66.2935C65.2966 66.2952 65.3023 66.2952 65.3077 66.2936C65.3164 66.2901 65.3167 66.2886 65.3167 66.2886L65.2925 66.2967C64.4308 66.2186 63.5708 66.1245 62.7122 65.9971C61.8489 65.8686 60.9956 65.6798 60.1585 65.4322C59.7007 65.3147 59.2859 65.0693 58.9624 64.7247C58.6537 64.3506 58.4768 63.8853 58.4588 63.4007C58.4412 62.9437 58.491 62.4867 58.6068 62.0443C58.7138 61.6066 58.8653 61.1811 59.059 60.7743L59.1126 61.0739C58.2798 60.2973 57.4542 59.5127 56.6437 58.7121L56.6672 58.7309C56.3331 58.4965 56.0655 58.1795 55.8904 57.8109C55.8419 57.7012 55.821 57.5813 55.8295 57.4616C55.8379 57.342 55.8755 57.2262 55.9389 57.1244C56.0023 57.0292 56.0846 56.948 56.1807 56.8859C56.2768 56.8239 56.3847 56.7822 56.4975 56.7636C56.7149 56.7275 56.9381 56.7693 57.1277 56.8816L57.5992 57.1791C57.9103 57.3771 58.2264 57.5668 58.5423 57.7565C59.174 58.1362 59.8165 58.4989 60.4714 58.8327C60.7945 59.0004 61.1292 59.1448 61.4729 59.2648C61.5498 59.2928 61.6312 59.3063 61.7131 59.3045C61.8 59.3029 61.8867 59.2947 61.9724 59.28C62.0072 59.2744 62.0409 59.2632 62.0721 59.2469C62.0976 59.2282 62.0871 59.236 62.0903 59.2266C62.0696 59.158 62.0346 59.0947 61.9875 59.0407C61.7589 58.7581 61.5115 58.4912 61.247 58.2419C61.115 58.1168 60.979 57.9977 60.8383 57.8811C60.7673 57.8213 60.6969 57.767 60.6195 57.6929C60.586 57.6659 60.5589 57.632 60.54 57.5935C60.521 57.5549 60.5107 57.5127 60.5098 57.4698C60.5151 57.4214 60.5333 57.3753 60.5625 57.3363C60.5917 57.2974 60.6308 57.267 60.6758 57.2483C60.8698 57.1719 61.0772 57.1355 61.2856 57.1414C61.4777 57.1393 61.6697 57.1496 61.8604 57.1723C63.0108 57.303 64.0901 57.7953 64.9429 58.5785C65.5246 59.0763 66.024 59.6628 66.4227 60.3164L66.2808 60.2017C67.7783 60.6975 69.2866 61.1674 70.7901 61.6433C72.2949 62.1044 73.803 62.603 75.3124 62.9643C75.4918 63.0082 75.6737 63.0409 75.8572 63.0623C76.0331 63.0608 76.2082 63.0387 76.379 62.9965C76.7794 62.9235 77.1848 62.8812 77.5916 62.8702C78.4113 62.8373 79.2289 62.9747 79.9928 63.2736C80.7393 63.581 81.4353 63.9989 82.0575 64.5134C82.6754 65.0166 83.2529 65.5527 83.8724 66.0414C83.8753 66.0437 83.8778 66.0465 83.8797 66.0497C83.8815 66.053 83.8827 66.0565 83.8832 66.0602C83.8837 66.0639 83.8834 66.0676 83.8824 66.0712C83.8815 66.0748 83.8798 66.0782 83.8775 66.0811C83.8731 66.0866 83.8669 66.0904 83.8599 66.0916C83.853 66.0928 83.8458 66.0914 83.8398 66.0877C83.1715 65.6593 82.5582 65.1523 81.9134 64.7055C81.2877 64.2466 80.5983 63.8816 79.8671 63.622C79.14 63.3837 78.3739 63.2873 77.6104 63.338C77.2278 63.361 76.8475 63.4133 76.4729 63.4946L76.191 63.5532C76.1358 63.5661 76.0799 63.576 76.0236 63.583C75.9578 63.5916 75.8912 63.5931 75.8251 63.5874C75.6152 63.5712 75.4067 63.5414 75.2007 63.4982C74.4072 63.3432 73.6472 63.1217 72.8824 62.9084C72.1193 62.6925 71.3629 62.4579 70.6086 62.2181C69.099 61.7408 67.605 61.223 66.1094 60.7044L66.1064 60.7034C66.048 60.6832 65.9987 60.6429 65.9673 60.5897C65.6039 59.9757 65.1522 59.4185 64.6267 58.936C64.1118 58.4436 63.506 58.0561 62.8431 57.795C62.5099 57.6672 62.1647 57.5731 61.8127 57.5142C61.638 57.4847 61.4616 57.4665 61.2845 57.4598C61.1235 57.4475 60.9616 57.4651 60.8069 57.5115C60.778 57.5195 60.7831 57.5425 60.7975 57.4865C60.7852 57.4287 60.7933 57.4739 60.8218 57.4959C60.8752 57.552 60.9478 57.6148 61.0155 57.6765C61.1539 57.8013 61.2905 57.9313 61.4208 58.0658C61.6805 58.3361 61.9254 58.6203 62.1544 58.9171C62.2281 59.0036 62.2763 59.1088 62.2936 59.2211C62.2936 59.2625 62.2822 59.3032 62.2607 59.3385C62.2392 59.3739 62.2084 59.4027 62.1717 59.4218C62.1211 59.4485 62.0664 59.4667 62.0099 59.4755C61.9135 59.491 61.816 59.4989 61.7184 59.4993C61.6153 59.5002 61.5129 59.4824 61.4161 59.4467C61.0645 59.3185 60.7226 59.165 60.393 58.9875C59.7327 58.6509 59.0887 58.2886 58.4413 57.9317L57.4743 57.3895L56.9945 57.1207C56.8596 57.0496 56.704 57.0284 56.555 57.0607C56.4857 57.0755 56.4202 57.1043 56.3626 57.1455C56.305 57.1867 56.2564 57.2393 56.22 57.3001C56.189 57.3579 56.1731 57.4226 56.1738 57.4882C56.1745 57.5538 56.1917 57.6181 56.2238 57.6753C56.3882 57.9655 56.6217 58.2106 56.9035 58.3889L56.9219 58.4032L56.9271 58.4079C57.7834 59.1594 58.6246 59.9272 59.4584 60.7028C59.4975 60.7391 59.5241 60.7868 59.5344 60.8392C59.5448 60.8915 59.5383 60.9458 59.516 60.9942L59.5121 61.0025C59.1426 61.7389 58.9459 62.5498 58.9371 63.3736C58.9378 63.7599 59.0663 64.1351 59.3025 64.4406C59.5696 64.7312 59.91 64.9446 60.2879 65.0584C61.0959 65.3401 61.9225 65.5653 62.7618 65.7322C63.6005 65.9288 64.453 66.0662 65.3002 66.2397L65.2762 66.2478C65.28 66.244 65.2846 66.2411 65.2897 66.2394C65.2956 66.2376 65.3018 66.2376 65.3077 66.2394C65.3136 66.2411 65.3187 66.2446 65.3226 66.2494C65.3266 66.2545 65.3289 66.2608 65.3289 66.2673C65.3294 66.271 65.3291 66.2748 65.3282 66.2784C65.3272 66.2821 65.3255 66.2855 65.3232 66.2885C65.3209 66.2914 65.318 66.2939 65.3148 66.2958C65.3115 66.2977 65.3079 66.2989 65.3042 66.2994C65.3005 66.2999 65.2967 66.2996 65.2931 66.2986C65.2894 66.2976 65.286 66.296 65.283 66.2937C65.2801 66.2914 65.2776 66.2885 65.2757 66.2852C65.2738 66.282 65.2726 66.2784 65.2721 66.2747L65.272 66.2682L65.2722 66.2642C65.2725 66.257 65.2757 66.2501 65.2809 66.2451C65.2862 66.2401 65.2932 66.2373 65.3005 66.2373C65.3077 66.2373 65.3147 66.2401 65.32 66.2451C65.3253 66.2501 65.3284 66.257 65.3287 66.2642L65.3287 66.2642Z" fill="white"/>
</svg>
