<svg width="371" height="160" viewBox="0 0 371 160" fill="none" xmlns="http://www.w3.org/2000/svg">
<path d="M338.247 66.7059C337.773 66.0868 337.358 65.4315 336.942 64.7687C328.929 52.185 293.914 58.1492 293.914 58.1492C289.955 88.4871 283.064 84.9116 281.788 83.0036C280.512 81.0957 278.208 62.3584 276.684 59.8096C272.28 59.4236 263.282 59.489 263.282 59.489C254.598 59.6931 246.431 67.3249 238.396 79.7557C230.36 92.1793 216.192 102.695 216.192 102.695C216.192 102.695 220.4 103.081 221.931 112.257C222.872 112.548 225.693 111.303 227.75 110.298C229.584 109.401 231.63 109.026 233.663 109.213C236.974 109.518 241.735 110.574 245.541 114.172C246.009 114.608 246.506 115.012 247.029 115.381C247.51 115.111 247.78 114.929 247.78 114.929C255.626 111.681 260.219 100.401 260.219 100.401C259.583 98.9827 259.212 97.4598 259.126 95.9079C259.002 94.363 259.024 92.8098 259.191 91.269C259.359 89.7615 259.476 88.2686 259.519 86.7686C259.596 85.2559 259.53 83.7394 259.323 82.239C259.948 83.6641 260.304 85.1924 260.373 86.7468C260.48 88.2903 260.448 89.8403 260.278 91.3782C260.11 92.8784 260.015 94.3713 259.979 95.8788C259.925 97.3903 260.005 98.9037 260.22 100.401C260.66 104.426 261.613 108.378 263.056 112.162C265.129 112.848 267.267 113.319 269.436 113.567C270.503 113.689 271.579 113.723 272.652 113.669C273.751 113.608 274.846 113.492 275.933 113.32C274.952 113.907 273.872 114.312 272.747 114.514C272.183 114.623 271.613 114.691 271.04 114.718C270.466 114.725 269.892 114.703 269.319 114.652C268.181 114.529 267.064 114.26 265.994 113.851C264.928 113.455 263.935 112.884 263.056 112.162C263.67 113.846 264.485 115.45 265.484 116.939C270.893 117.25 276.194 118.577 281.11 120.85C282.357 121.425 283.502 122.197 284.654 122.765C285.827 123.349 287.056 123.815 288.322 124.156C290.871 124.849 293.497 125.22 296.138 125.263C297.48 125.306 298.756 125.234 300.141 125.19C301.503 125.175 302.864 125.24 304.217 125.387C306.901 125.663 309.577 125.969 312.231 126.435C313.244 126.61 314.251 126.799 315.257 126.996C314.79 126.363 314.39 125.685 314.061 124.971C313.549 123.896 313.164 122.765 312.916 121.6C312.661 120.435 312.507 119.251 312.457 118.061C312.391 116.86 312.437 115.655 312.595 114.463L312.603 114.427L312.617 114.376C313.017 113.084 313.264 111.749 313.354 110.4C313.467 109.031 313.481 107.656 313.398 106.285C313.303 104.913 313.135 103.547 312.894 102.192C312.632 100.86 312.282 99.4689 312.092 98.0634C311.71 95.262 311.622 92.4283 311.83 89.6086C311.903 88.2032 312.049 86.7976 312.26 85.414C312.455 84.0251 312.72 82.647 313.055 81.285C312.709 84.0541 312.519 86.8403 312.486 89.6305C312.446 92.4004 312.648 95.1685 313.091 97.9031C313.186 98.5878 313.354 99.2577 313.492 99.9278L313.944 101.996C314.213 103.393 314.391 104.807 314.477 106.227C314.692 109.074 314.363 111.936 313.507 114.66C313.326 115.78 313.233 116.912 313.23 118.046C313.221 119.2 313.312 120.352 313.5 121.491C313.683 122.633 313.976 123.755 314.375 124.84C314.656 125.603 315.01 126.337 315.432 127.032C317.014 127.353 318.582 127.717 320.135 128.147C322.746 128.828 325.257 129.849 327.602 131.183C325.178 130.045 322.628 129.199 320.004 128.664C318.655 128.35 317.296 128.078 315.928 127.848C315.924 127.844 315.919 127.841 315.913 127.841C314.652 127.622 313.383 127.433 312.107 127.265C309.453 126.923 306.791 126.625 304.13 126.413C302.812 126.29 301.487 126.239 300.163 126.26C298.873 126.304 297.458 126.399 296.116 126.355C293.383 126.299 290.667 125.893 288.037 125.146C286.717 124.761 285.438 124.249 284.216 123.617C283.604 123.318 283.006 122.918 282.445 122.59C281.883 122.248 281.322 121.891 280.731 121.6C278.373 120.363 275.889 119.382 273.323 118.672C270.756 117.904 268.136 117.325 265.484 116.939L259.454 117.514C259.64 117.771 259.776 118.06 259.855 118.366C261.408 123.384 259.17 143.039 259.17 143.039C267.781 149.345 315.447 159.096 315.447 159.096C346.174 164.259 346.458 137.009 346.458 137.009C351.956 88.1086 341.15 70.4635 338.247 66.7059ZM299.799 116.553C299.235 116.662 298.665 116.73 298.092 116.757C297.518 116.764 296.944 116.743 296.371 116.692C295.233 116.568 294.116 116.299 293.046 115.89C291.98 115.494 290.987 114.923 290.108 114.201C292.181 114.887 294.319 115.358 296.488 115.606C297.555 115.728 298.631 115.762 299.704 115.708C300.803 115.647 301.898 115.531 302.985 115.359C302.004 115.946 300.924 116.351 299.799 116.553V116.553Z" fill="white"/>
<path d="M276.619 59.8438C276.409 59.5276 276.176 59.2277 275.921 58.9467C275.666 58.6702 275.387 58.4178 275.087 58.1925C274.788 57.9722 274.466 57.7859 274.126 57.6369C273.799 57.4903 273.451 57.3963 273.094 57.3581L273.208 57.3359C272.476 57.6877 271.703 57.9457 270.906 58.1039C270.097 58.2781 269.263 58.3054 268.445 58.1845C267.594 58.0588 266.793 57.7092 266.123 57.1716C265.507 56.6208 264.967 55.9912 264.516 55.2991C263.636 53.9668 262.853 52.5728 262.174 51.128C261.49 49.6932 260.874 48.2426 260.3 46.7522L260.889 47.1409C260.21 47.2098 259.525 47.1057 258.896 46.8384C258.531 46.6669 258.222 46.3937 258.007 46.0515C257.81 45.7209 257.692 45.3488 257.663 44.9647C257.629 44.3064 257.723 43.6476 257.939 43.0248C258.129 42.4307 258.38 41.8577 258.687 41.3147C259.264 40.4725 259.534 39.4587 259.454 38.4418C259.408 37.9467 259.271 37.4642 259.051 37.0182L258.654 36.275C258.516 36.0115 258.383 35.7436 258.258 35.4696C258 34.9213 257.795 34.3499 257.645 33.763C257.48 33.1916 257.347 32.6117 257.246 32.0258C257.119 31.4445 257.08 30.8487 257.007 30.2596C256.983 29.6651 256.947 29.072 256.979 28.4782C257.028 26.0901 257.614 23.7435 258.692 21.6112C258.729 21.5395 258.786 21.4798 258.856 21.4392C258.926 21.3985 259.006 21.3786 259.087 21.3817C259.168 21.3848 259.246 21.4108 259.313 21.4566C259.38 21.5025 259.432 21.5663 259.464 21.6407L259.471 21.6569C260.361 23.7092 261.496 25.6462 262.853 27.4253C264.204 29.2218 265.827 30.7974 267.663 32.0953C269.495 33.3964 271.587 34.2858 273.795 34.7024C276 35.1084 278.265 35.0477 280.445 34.5245L280.461 34.5209C280.512 34.5093 280.565 34.5125 280.615 34.5302C280.665 34.5479 280.708 34.5793 280.74 34.6207C281.62 35.83 282.233 37.2119 282.538 38.6752C282.863 40.1046 283.029 41.5655 283.033 43.0312C283.041 44.4901 282.937 45.9474 282.722 47.3903C282.465 48.7602 282.368 50.1552 282.434 51.5474C282.499 52.8928 282.864 54.2068 283.5 55.3944C284.136 56.5385 285.106 57.4609 286.282 58.0374C287.48 58.5958 288.804 58.831 290.122 58.7194C291.472 58.6105 292.794 58.2708 294.029 57.7151C294.148 57.6635 294.278 57.6442 294.407 57.6591C294.536 57.674 294.658 57.7226 294.762 57.8C294.866 57.8774 294.948 57.9808 294.999 58.0998C295.051 58.2188 295.069 58.3492 295.054 58.4778L295.053 58.4873C294.517 63.1287 293.685 67.7311 292.561 72.2664C291.978 74.5554 291.212 76.794 290.27 78.9607C289.787 80.0675 289.193 81.1227 288.497 82.1106C288.134 82.6197 287.721 83.0922 287.266 83.5214C286.793 83.9844 286.237 84.3544 285.627 84.6122C284.974 84.8925 284.252 84.972 283.553 84.8405C282.861 84.6989 282.225 84.3601 281.722 83.8652C281.454 83.6107 281.239 83.3046 281.092 82.9654C280.974 82.6723 280.875 82.3724 280.793 82.0674C280.63 81.4849 280.506 80.9122 280.383 80.3376C279.902 78.045 279.571 75.748 279.204 73.4555L278.124 66.5841C277.939 65.4406 277.745 64.2988 277.521 63.1643C277.339 62.0287 277.037 60.9155 276.619 59.8438L276.615 59.8334C276.607 59.8164 276.606 59.7969 276.612 59.7792C276.618 59.7615 276.631 59.7469 276.648 59.7385C276.665 59.7301 276.684 59.7285 276.702 59.7342C276.72 59.7398 276.735 59.7522 276.744 59.7687C277.252 60.825 277.634 61.937 277.883 63.0822C278.172 64.2097 278.431 65.3433 278.681 66.478C279.187 68.7468 279.612 71.0289 280.069 73.3026C280.518 75.5764 280.983 77.8511 281.494 80.0905C281.627 80.6468 281.764 81.205 281.927 81.7357C282.002 81.9893 282.091 82.2384 282.194 82.4816C282.284 82.673 282.413 82.8438 282.572 82.9831C282.903 83.3035 283.324 83.5154 283.778 83.5905C284.233 83.6657 284.7 83.6006 285.116 83.4038C286.035 82.9139 286.807 82.1891 287.353 81.3036C287.965 80.3732 288.492 79.3891 288.925 78.3634C289.808 76.2618 290.522 74.0929 291.058 71.8775C292.142 67.3986 292.987 62.8653 293.589 58.2968L294.613 59.0689C293.216 59.6732 291.725 60.0327 290.206 60.1318C288.646 60.2381 287.085 59.9347 285.679 59.2517C284.266 58.541 283.11 57.4081 282.372 56.0106C281.677 54.6461 281.295 53.1442 281.253 51.6138C281.215 50.1384 281.353 48.6636 281.664 47.2206C281.924 45.8356 282.078 44.4326 282.123 43.0241C282.175 41.6208 282.067 40.2162 281.801 38.8373C281.561 37.4769 281.044 36.1804 280.281 35.0285L280.576 35.1245C278.31 35.5933 275.975 35.6129 273.701 35.1823C272.57 34.9616 271.467 34.6121 270.415 34.1406C269.36 33.6824 268.351 33.1237 267.404 32.4723C265.516 31.1601 263.827 29.5841 262.389 27.7927C260.917 26.0172 259.668 24.0688 258.669 21.9909L259.448 22.0365C258.534 24.0642 258.079 26.2688 258.118 28.4925C258.122 29.6019 258.238 30.708 258.464 31.7942C258.57 32.3383 258.706 32.8762 258.871 33.4053C259.016 33.9289 259.206 34.4393 259.437 34.9311C259.551 35.1795 259.675 35.4258 259.804 35.6707C259.934 35.9223 260.067 36.1371 260.222 36.4457C260.514 37.0317 260.696 37.6659 260.759 38.3172C260.858 39.6121 260.514 40.9022 259.783 41.9763C259.244 42.8445 258.942 43.8378 258.904 44.8584C258.901 45.0424 258.951 45.2235 259.046 45.3809C259.141 45.5383 259.279 45.6657 259.444 45.7484C259.88 45.9296 260.353 46.0024 260.824 45.9604L260.832 45.96C260.958 45.9544 261.082 45.9892 261.187 46.0593C261.291 46.1293 261.371 46.231 261.413 46.3494C261.935 47.8039 262.524 49.258 263.152 50.6784C263.757 52.1029 264.464 53.4822 265.267 54.8054C265.65 55.4474 266.116 56.0367 266.652 56.5586C267.199 57.0287 267.862 57.3452 268.573 57.4758C270.074 57.714 271.612 57.5226 273.009 56.9236L273.039 56.9115C273.065 56.9009 273.094 56.8973 273.123 56.9012C273.531 56.9636 273.925 57.0928 274.291 57.2835C274.646 57.4646 274.98 57.6849 275.287 57.9402C275.585 58.1979 275.858 58.4841 276.1 58.7947C276.339 59.1027 276.555 59.4283 276.744 59.7688C276.749 59.7771 276.752 59.7862 276.753 59.7957C276.755 59.8052 276.754 59.8148 276.752 59.824C276.749 59.8333 276.745 59.8419 276.739 59.8495C276.733 59.8571 276.726 59.8634 276.717 59.8682C276.701 59.8769 276.682 59.8792 276.664 59.8747C276.646 59.8702 276.63 59.8592 276.619 59.8438Z" fill="white"/>
<path d="M259.362 46.3779C259.213 47.5362 259.057 48.6851 258.936 49.8358C258.822 50.9868 258.711 52.1351 258.676 53.2833C258.619 54.4248 258.667 55.569 258.818 56.7019C258.892 57.263 259.043 57.8113 259.266 58.3316C259.476 58.8658 259.824 59.3343 260.276 59.6887C259.741 59.4142 259.3 58.9876 259.009 58.4628C258.72 57.9374 258.506 57.3743 258.373 56.7898C258.123 55.6316 258.027 54.4456 258.087 53.2623C258.134 52.09 258.269 50.9229 258.489 49.7705C258.694 48.6194 258.986 47.4854 259.362 46.3779Z" fill="white"/>
<path d="M259.011 21.8644C258.861 21.6028 258.766 21.3135 258.731 21.0139C258.697 20.7144 258.724 20.411 258.811 20.1222L258.931 19.6888L259.119 19.287C259.185 19.1542 259.245 19.0158 259.316 18.8864L259.564 18.522C259.893 18.0357 260.265 17.5805 260.677 17.1622C261.095 16.7574 261.539 16.3842 261.975 15.9965C263.814 14.6077 265.784 13.4003 267.856 12.3914C268.89 11.9012 269.935 11.4324 270.98 10.9663C272.037 10.533 273.101 10.1147 274.166 9.70342C275.235 9.31282 276.319 8.97555 277.398 8.61783C277.944 8.45391 278.47 8.26777 279.053 8.10669C279.619 7.95497 280.192 7.8332 280.77 7.74185C283.067 7.36444 285.417 7.46004 287.675 8.02276C289.925 8.58888 292.004 9.68909 293.737 11.2299C295.446 12.7943 296.854 14.6578 297.892 16.7284C298.935 18.7905 299.731 20.9674 300.266 23.2147L300.277 23.2752C300.84 26.3594 301.831 29.3502 303.221 32.1611C303.907 33.5637 304.701 34.9107 305.596 36.19C306.477 37.4719 307.472 38.6722 308.568 39.7764L310.302 41.3805C310.926 41.9255 311.512 42.512 312.057 43.1358C313.172 44.3663 314.092 45.7601 314.785 47.2687C316.221 50.2495 316.58 53.6346 315.801 56.8498C315.797 56.8677 315.785 56.8831 315.77 56.8929C315.754 56.9027 315.735 56.9061 315.717 56.9025C315.699 56.8989 315.683 56.8884 315.672 56.8734C315.661 56.8583 315.657 56.8397 315.659 56.8214L315.66 56.8132C315.865 55.2434 315.802 53.6502 315.473 52.1015C315.175 50.5676 314.634 49.0907 313.872 47.7263C313.497 47.0481 313.08 46.394 312.623 45.7681C312.155 45.1508 311.647 44.5647 311.102 44.0133C310.57 43.4491 310 42.9216 309.396 42.4347L307.544 40.8328C305.164 38.5374 303.232 35.8204 301.847 32.8202C301.157 31.3346 300.573 29.8022 300.1 28.2342C299.609 26.6654 299.252 25.0578 299.032 23.4287L299.043 23.4888C298.607 21.3024 297.956 19.1643 297.1 17.1055C296.243 15.0435 294.984 13.1717 293.398 11.5986C292.582 10.8379 291.674 10.1825 290.694 9.64752C289.708 9.12457 288.653 8.74143 287.561 8.50913C285.373 8.07368 283.116 8.12735 280.952 8.66629C280.416 8.79009 279.887 8.94201 279.367 9.12144C278.867 9.29727 278.336 9.52627 277.807 9.72699L274.622 10.9171C273.577 11.3378 272.529 11.7513 271.474 12.1499L268.375 13.4807C266.333 14.3953 264.365 15.465 262.487 16.6805C262.049 17.014 261.595 17.3373 261.169 17.6886C260.751 18.044 260.362 18.4316 260.005 18.8476L259.738 19.1607C259.661 19.2713 259.596 19.3888 259.523 19.5031L259.311 19.8509L259.164 20.2244C258.953 20.7195 258.941 21.2765 259.13 21.7802L259.137 21.7955C259.145 21.8121 259.146 21.8309 259.14 21.8482C259.134 21.8654 259.122 21.8799 259.106 21.8886C259.09 21.8973 259.072 21.8997 259.054 21.8952C259.036 21.8907 259.021 21.8797 259.011 21.8644V21.8644Z" fill="white"/>
<path d="M260.814 35.9358C261.823 35.2116 262.924 34.6243 264.087 34.1896C264.669 33.9663 265.266 33.7871 265.875 33.6537C266.487 33.4987 267.125 33.4694 267.749 33.5675C267.153 33.6962 266.568 33.8729 266.001 34.096L264.298 34.7398C263.157 35.1674 262.02 35.6081 260.814 35.9358Z" fill="white"/>
<path d="M264.005 40.0064C264.234 39.9984 264.451 39.9018 264.611 39.7369C264.77 39.572 264.86 39.3516 264.86 39.1223C264.86 38.893 264.77 38.6726 264.611 38.5077C264.451 38.3428 264.234 38.2462 264.005 38.2383C263.775 38.2462 263.558 38.3428 263.398 38.5077C263.239 38.6726 263.149 38.893 263.149 39.1223C263.149 39.3516 263.239 39.572 263.398 39.7369C263.558 39.9018 263.775 39.9984 264.005 40.0064Z" fill="white"/>
<path d="M262.577 50.7162C263.021 50.73 263.465 50.7178 263.907 50.6794C264.339 50.6401 264.764 50.588 265.186 50.5077C265.608 50.4257 266.029 50.3317 266.45 50.2163C266.873 50.1025 267.298 49.977 267.748 49.8643C267.413 50.1824 267.03 50.4464 266.613 50.6467C266.194 50.8503 265.751 50.9983 265.294 51.0869C264.373 51.2852 263.411 51.154 262.577 50.7162Z" fill="white"/>
<path d="M259.294 140.426C257.101 139.62 254.847 138.992 252.553 138.549C250.295 138.09 247.975 138.016 245.693 138.331L244.852 138.472L244.032 138.695C243.487 138.847 242.952 139.031 242.429 139.246C241.384 139.695 240.382 140.239 239.436 140.87C238.472 141.501 237.557 142.224 236.48 142.848C235.402 143.452 234.242 143.897 233.036 144.169C231.839 144.453 230.609 144.577 229.378 144.538C228.09 144.539 226.819 144.231 225.675 143.64C225.359 143.448 225.077 143.204 224.841 142.919C224.63 142.66 224.499 142.471 224.314 142.258C223.967 141.859 223.565 141.511 223.121 141.224C222.143 140.657 221.11 140.189 220.038 139.828C218.882 139.461 217.773 138.958 216.735 138.331C216.209 137.976 215.747 137.535 215.368 137.027C215.182 136.787 215.015 136.558 214.836 136.346C214.748 136.236 214.655 136.142 214.561 136.035C214.458 135.914 214.339 135.792 214.252 135.67C213.556 134.705 212.916 133.701 212.338 132.661C211.752 131.639 211.168 130.621 210.609 129.585L210.78 129.711L209.279 129.383C208.76 129.295 208.251 129.156 207.759 128.968C206.773 128.557 205.907 127.903 205.243 127.067C204.879 126.648 204.629 126.144 204.518 125.601C204.475 125.315 204.493 125.023 204.571 124.745C204.649 124.466 204.785 124.208 204.97 123.985C205.325 123.568 205.759 123.225 206.247 122.976C206.735 122.727 207.267 122.577 207.814 122.535C208.342 122.505 208.872 122.526 209.396 122.6L210.924 122.71C211.943 122.774 212.963 122.822 213.984 122.853C216.024 122.915 218.065 122.901 220.093 122.774C222.106 122.67 224.107 122.39 226.071 121.938C227.021 121.713 227.941 121.376 228.812 120.936C229.22 120.723 229.6 120.46 229.943 120.152C230.287 119.837 230.6 119.489 230.876 119.114C231.107 118.852 231.251 118.526 231.289 118.18C231.276 118.105 231.264 118.076 231.168 117.993C231.025 117.901 230.869 117.832 230.704 117.787C229.793 117.603 228.854 117.59 227.938 117.75C227.469 117.815 227.007 117.916 226.554 118.053C226.369 118.108 226.191 118.183 226.023 118.277L225.866 118.379C225.797 118.426 225.728 118.464 225.658 118.504C225.523 118.58 225.383 118.647 225.239 118.706C224.704 118.919 224.145 119.064 223.574 119.138C223.3 119.177 223.027 119.205 222.755 119.223C222.44 119.252 222.123 119.24 221.811 119.189C221.151 119.077 220.541 118.769 220.059 118.304C219.601 117.845 219.268 117.276 219.094 116.652C218.788 115.454 218.95 114.186 219.545 113.102C219.84 112.499 220.307 111.995 220.887 111.655C221.08 111.553 221.29 111.485 221.507 111.454C221.633 111.438 221.762 111.437 221.889 111.451C221.955 111.459 222.02 111.471 222.084 111.487L222.167 111.509L222.176 111.507C222.325 111.522 222.475 111.512 222.621 111.479C223.559 111.264 224.474 110.957 225.352 110.562C225.813 110.366 226.272 110.161 226.73 109.948L227.415 109.623C227.661 109.506 227.911 109.396 228.165 109.292C229.181 108.885 230.25 108.623 231.339 108.512C232.415 108.415 233.5 108.452 234.567 108.624C235.611 108.766 236.644 108.975 237.661 109.25C239.709 109.789 241.656 110.655 243.428 111.814C244.306 112.402 245.128 113.07 245.884 113.808C246.614 114.479 247.394 115.093 248.218 115.644C251.734 117.691 255.792 118.615 259.848 118.292L259.855 118.292C259.874 118.29 259.892 118.297 259.906 118.309C259.921 118.321 259.93 118.338 259.932 118.357C259.933 118.376 259.928 118.395 259.916 118.409C259.905 118.424 259.888 118.434 259.869 118.436C255.722 119.072 251.48 118.349 247.779 116.376C246.873 115.83 246.012 115.212 245.204 114.53C242.965 112.545 240.261 111.156 237.341 110.492C236.372 110.259 235.389 110.088 234.399 109.98C233.436 109.85 232.462 109.841 231.497 109.954C230.546 110.066 229.615 110.308 228.73 110.674C228.51 110.767 228.293 110.866 228.078 110.972L227.378 111.314C226.91 111.539 226.437 111.757 225.958 111.968C224.973 112.431 223.94 112.782 222.878 113.017C222.522 113.092 222.154 113.093 221.797 113.019L221.713 112.999C221.685 112.992 221.707 112.999 221.702 112.997L221.709 112.999C221.713 112.999 221.714 112.998 221.708 112.999C221.671 113.006 221.635 113.019 221.602 113.038C221.305 113.238 221.068 113.515 220.915 113.838C220.511 114.567 220.393 115.421 220.586 116.233C220.686 116.6 220.874 116.937 221.133 117.215C221.391 117.47 221.72 117.642 222.077 117.707C222.27 117.742 222.468 117.751 222.664 117.733C222.903 117.72 223.141 117.7 223.374 117.67C223.822 117.62 224.261 117.516 224.683 117.358C224.777 117.322 224.869 117.279 224.957 117.231C225 117.21 225.041 117.186 225.08 117.16L225.247 117.056C225.524 116.896 225.819 116.771 226.127 116.684C226.658 116.531 227.199 116.419 227.747 116.352C228.858 116.177 229.992 116.22 231.087 116.478C231.416 116.573 231.726 116.726 232.003 116.928C232.176 117.062 232.32 117.228 232.426 117.418C232.533 117.609 232.6 117.818 232.623 118.035C232.652 118.409 232.579 118.783 232.412 119.118C232.285 119.394 232.126 119.654 231.939 119.893C231.602 120.338 231.218 120.746 230.794 121.109C230.365 121.476 229.891 121.787 229.384 122.036C228.413 122.497 227.391 122.843 226.339 123.064C224.297 123.484 222.218 123.702 220.132 123.716C218.064 123.76 216.004 123.69 213.95 123.559C212.923 123.492 211.898 123.407 210.875 123.306L209.342 123.142C208.852 123.065 208.355 123.037 207.86 123.057C207.381 123.088 206.913 123.212 206.483 123.423C206.052 123.633 205.667 123.927 205.35 124.286C205.203 124.455 205.094 124.654 205.029 124.869C204.965 125.084 204.947 125.31 204.978 125.532C205.072 125.996 205.283 126.429 205.591 126.79C206.203 127.568 207.01 128.173 207.93 128.541C208.398 128.715 208.881 128.841 209.374 128.919L210.883 129.213C210.917 129.22 210.95 129.234 210.979 129.254C211.007 129.274 211.031 129.3 211.049 129.33L211.054 129.339C212.183 131.372 213.451 133.325 214.849 135.184C214.937 135.297 215.031 135.379 215.12 135.479C215.225 135.587 215.343 135.698 215.444 135.813C215.654 136.041 215.843 136.278 216.026 136.493C216.367 136.914 216.777 137.274 217.238 137.557C218.237 138.098 219.296 138.521 220.393 138.816C221.564 139.152 222.694 139.616 223.764 140.198C224.315 140.535 224.815 140.948 225.25 141.425C225.457 141.649 225.671 141.936 225.836 142.125C225.983 142.285 226.152 142.423 226.339 142.534C227.299 143.002 228.354 143.241 229.422 143.231C230.541 143.266 231.66 143.162 232.753 142.92C233.843 142.688 234.893 142.299 235.871 141.765C236.83 141.22 237.791 140.522 238.801 139.886C239.823 139.238 240.903 138.686 242.026 138.235C242.598 138.026 243.181 137.851 243.773 137.712L244.661 137.511L245.562 137.395C247.949 137.153 250.36 137.333 252.684 137.927C254.975 138.506 257.206 139.298 259.35 140.292C259.367 140.299 259.38 140.313 259.387 140.33C259.395 140.347 259.395 140.367 259.388 140.384C259.382 140.402 259.369 140.416 259.352 140.424C259.335 140.432 259.316 140.433 259.298 140.428L259.294 140.426Z" fill="white"/>
<path d="M210.83 129.463C212.249 129.341 213.669 129.284 215.089 129.237C216.509 129.183 217.929 129.175 219.349 129.168L221.479 129.183C222.211 129.183 222.939 129.283 223.644 129.482C224.992 129.96 226.307 130.529 227.58 131.183C226.894 130.987 226.223 130.755 225.544 130.543C224.889 130.291 224.218 130.084 223.535 129.922C222.859 129.783 222.169 129.722 221.479 129.742L219.349 129.757C217.929 129.75 216.509 129.742 215.089 129.688C213.669 129.641 212.249 129.584 210.83 129.463Z" fill="white"/>
<path d="M211.551 130.729C212.505 131.464 213.418 132.248 214.324 133.04C214.792 133.421 215.209 133.869 215.665 134.186C216.125 134.517 216.641 134.763 217.189 134.912C217.716 135.07 218.326 135.094 218.927 135.206C219.527 135.305 220.12 135.434 220.706 135.594C221.905 135.845 223.019 136.4 223.942 137.204C223.446 136.874 222.902 136.624 222.328 136.462C221.764 136.282 221.187 136.139 220.604 136.036C220.019 135.935 219.434 135.829 218.844 135.758C218.234 135.7 217.628 135.607 217.03 135.479C216.417 135.305 215.842 135.018 215.335 134.634C214.867 134.239 214.424 133.815 214.01 133.365C213.172 132.508 212.34 131.643 211.551 130.729Z" fill="white"/>
<path d="M198.132 111.877C197.662 110.925 197.087 110.028 196.419 109.202L196.531 109.275C195.413 109.1 194.37 108.6 193.533 107.839C193.097 107.398 192.828 106.819 192.773 106.202C192.746 105.895 192.759 105.587 192.814 105.284C192.888 104.995 192.978 104.711 193.084 104.432C193.595 103.346 194.494 102.49 195.605 102.033C196.16 101.769 196.765 101.624 197.38 101.608C198.043 101.604 198.69 101.807 199.231 102.189L198.272 102.495C198.418 102.098 198.619 101.724 198.868 101.382C199.104 101.047 199.381 100.742 199.691 100.475C200.319 99.9389 201.064 99.5584 201.866 99.3637C202.64 99.1782 203.442 99.1367 204.232 99.2413L204.796 99.3137C205.015 99.346 205.231 99.3994 205.441 99.4732C205.83 99.6057 206.204 99.7817 206.553 99.9978C207.875 100.851 208.932 102.055 209.605 103.475C210.266 104.82 210.747 106.245 211.035 107.715L209.66 107.799C209.779 106.864 210.061 105.957 210.492 105.119C210.923 104.255 211.564 103.514 212.357 102.963C213.168 102.433 214.11 102.141 215.079 102.12C215.31 102.111 215.542 102.118 215.772 102.141L216.116 102.163C216.251 102.169 216.385 102.19 216.515 102.228C216.98 102.366 217.42 102.58 217.815 102.862C219.236 103.976 220.285 105.493 220.827 107.213C221.4 108.842 221.771 110.535 221.932 112.254C221.553 110.596 221.01 108.981 220.311 107.431C219.675 105.92 218.626 104.618 217.285 103.672C216.968 103.478 216.625 103.332 216.265 103.239C216.188 103.22 216.109 103.212 216.029 103.217L215.732 103.214C214.782 103.166 213.843 103.434 213.062 103.976C212.477 104.463 211.996 105.062 211.65 105.739C211.304 106.416 211.099 107.156 211.048 107.915L211.047 107.92C211.029 108.084 210.954 108.236 210.834 108.35C210.714 108.464 210.558 108.532 210.393 108.541C210.228 108.551 210.065 108.501 209.933 108.402C209.801 108.303 209.708 108.16 209.672 107.999C209.393 106.66 208.941 105.362 208.329 104.138C207.757 102.962 206.886 101.956 205.804 101.22C205.546 101.056 205.271 100.922 204.983 100.819C204.855 100.771 204.723 100.736 204.588 100.715L204.087 100.645C203.453 100.554 202.809 100.574 202.182 100.706C201.582 100.831 201.02 101.096 200.541 101.478C200.073 101.858 199.701 102.343 199.456 102.894L199.427 102.963C199.364 103.11 199.246 103.226 199.097 103.286C198.949 103.346 198.783 103.344 198.635 103.282C198.586 103.26 198.539 103.233 198.497 103.2C198.138 102.956 197.721 102.813 197.288 102.786C196.855 102.759 196.423 102.848 196.037 103.045C195.137 103.362 194.382 103.995 193.913 104.826C193.67 105.215 193.552 105.669 193.575 106.127C193.598 106.586 193.761 107.026 194.042 107.389C194.733 108.132 195.623 108.661 196.606 108.914L196.63 108.921C196.666 108.932 196.698 108.956 196.719 108.987C197.32 109.881 197.795 110.854 198.132 111.877Z" fill="white"/>
<path d="M193.212 111.381C192.821 110.577 192.127 109.96 191.282 109.666C190.462 109.431 189.584 109.497 188.808 109.852C188.434 109.967 188.098 110.181 187.836 110.47C187.574 110.76 187.394 111.115 187.317 111.498C187.282 112.299 187.5 113.091 187.942 113.762C188.386 114.502 188.915 115.188 189.517 115.807C189.663 115.968 189.817 116.114 189.969 116.264L190.464 116.695C190.817 117 191.158 117.31 191.495 117.623C192.848 118.873 194.112 120.186 195.373 121.518C195.467 121.618 195.53 121.744 195.552 121.879L195.559 121.926C195.642 122.349 195.78 122.76 195.971 123.148C196.37 123.98 196.938 124.72 197.638 125.322C197.993 125.644 198.349 125.859 198.825 126.224C199.696 126.906 200.431 127.747 200.992 128.701C201.557 129.638 201.975 130.656 202.232 131.72L202.199 131.616C202.532 132.535 203.156 133.32 203.976 133.852C204.852 134.363 205.847 134.636 206.862 134.644C207.926 134.667 208.989 134.557 210.026 134.317C211.087 134.086 212.127 133.77 213.137 133.373C212.189 133.929 211.186 134.389 210.145 134.744C209.088 135.114 207.986 135.339 206.868 135.413C205.693 135.498 204.517 135.264 203.464 134.736C202.931 134.441 202.453 134.058 202.049 133.603C201.659 133.144 201.334 132.634 201.082 132.086L201.069 132.053L201.049 131.982C200.78 131.07 200.381 130.201 199.866 129.402C199.356 128.611 198.714 127.914 197.968 127.34C197.634 127.084 197.114 126.762 196.707 126.401C196.279 126.042 195.89 125.639 195.546 125.199C195.195 124.757 194.895 124.277 194.654 123.767C194.399 123.234 194.223 122.667 194.131 122.084L194.317 122.492C193.096 121.166 191.836 119.858 190.572 118.581C190.254 118.265 189.933 117.952 189.607 117.65L189.091 117.166C188.924 116.991 188.755 116.818 188.601 116.637C187.971 115.916 187.429 115.123 186.987 114.274C186.472 113.382 186.277 112.342 186.435 111.325C186.492 111.058 186.593 110.802 186.734 110.567C186.884 110.345 187.055 110.138 187.244 109.948L187.877 109.513L188.558 109.234C189.488 108.905 190.507 108.934 191.416 109.316C191.842 109.518 192.221 109.806 192.53 110.161C192.839 110.516 193.071 110.932 193.212 111.381Z" fill="white"/>
<path d="M194.845 122.006C194.622 121.2 194.638 120.347 194.889 119.55C195.01 119.133 195.224 118.75 195.515 118.429C195.658 118.264 195.835 118.132 196.032 118.04C196.23 117.948 196.445 117.899 196.663 117.896C196.339 118.098 196.07 118.378 195.881 118.709C195.696 119.03 195.552 119.372 195.451 119.728C195.218 120.448 195.076 121.211 194.845 122.006Z" fill="white"/>
<path d="M196.567 109.096C197.069 108.972 197.478 108.887 197.913 108.801C198.367 108.7 198.83 108.64 199.295 108.622C198.979 109.022 198.527 109.292 198.025 109.38C197.776 109.438 197.517 109.443 197.266 109.394C197.014 109.345 196.776 109.243 196.567 109.096Z" fill="white"/>
<path d="M199.229 102.693C199.221 103.325 199.304 103.956 199.476 104.564C199.629 105.172 199.954 105.723 200.411 106.151C200.653 106.355 200.934 106.508 201.237 106.599C201.54 106.69 201.859 106.719 202.173 106.683C202.5 106.657 202.825 106.603 203.143 106.523L204.081 106.185L203.172 106.61C202.853 106.721 202.525 106.807 202.192 106.864C201.846 106.933 201.49 106.93 201.146 106.857C200.801 106.784 200.475 106.642 200.188 106.439C199.623 106.003 199.197 105.414 198.959 104.742C198.707 104.087 198.552 103.399 198.5 102.699C198.496 102.651 198.501 102.602 198.515 102.556C198.53 102.51 198.554 102.467 198.585 102.43C198.616 102.393 198.654 102.363 198.697 102.341C198.74 102.319 198.787 102.306 198.836 102.302C198.884 102.298 198.932 102.304 198.978 102.319C199.024 102.334 199.067 102.358 199.103 102.39C199.14 102.422 199.17 102.46 199.191 102.504C199.213 102.547 199.225 102.594 199.228 102.642C199.229 102.653 199.23 102.664 199.229 102.675L199.229 102.693Z" fill="white"/>
<path d="M202.167 106.806C202.673 107.576 203.121 108.383 203.505 109.22C203.935 110.062 204.229 110.968 204.376 111.902C204.418 112.076 204.501 112.237 204.618 112.372C204.736 112.507 204.884 112.611 205.05 112.676C205.432 112.867 205.841 112.998 206.263 113.064C206.694 113.142 207.135 113.146 207.568 113.075C208.014 113.037 208.428 112.829 208.724 112.493C208.613 112.705 208.458 112.89 208.271 113.039C208.084 113.187 207.868 113.295 207.636 113.355C207.176 113.492 206.695 113.545 206.215 113.515C205.725 113.493 205.244 113.377 204.798 113.174C204.538 113.072 204.308 112.905 204.132 112.689C203.955 112.473 203.836 112.216 203.788 111.941C203.641 111.069 203.406 110.214 203.086 109.389L202.167 106.806Z" fill="white"/>
<path d="M211.07 107.741C211.231 108.878 211.593 109.978 212.138 110.989C212.274 111.231 212.429 111.462 212.602 111.679C212.821 111.942 213.014 112.224 213.18 112.522C213.348 112.824 213.481 113.144 213.579 113.475C213.68 113.823 213.727 114.113 213.796 114.401C213.831 114.658 213.902 114.909 214.005 115.147C214.148 115.361 214.328 115.548 214.536 115.7C214.742 115.86 214.978 115.979 215.23 116.048C215.482 116.117 215.745 116.136 216.004 116.103C216.551 115.99 217.042 115.694 217.397 115.264C217.796 114.821 218.136 114.329 218.408 113.799L218.393 113.846C218.575 112.989 218.696 112.12 218.756 111.245C218.835 110.368 218.776 109.483 218.582 108.624C218.84 109.475 218.964 110.361 218.948 111.25C218.952 112.142 218.893 113.033 218.771 113.917C218.769 113.93 218.765 113.943 218.76 113.955L218.756 113.964C218.506 114.551 218.18 115.103 217.787 115.606C217.382 116.161 216.799 116.562 216.135 116.742C215.786 116.815 215.426 116.818 215.075 116.75C214.725 116.683 214.391 116.547 214.093 116.35C213.787 116.159 213.518 115.915 213.3 115.628C213.18 115.469 213.093 115.289 213.043 115.096L212.907 114.642C212.783 114.083 212.569 113.549 212.272 113.06C212.121 112.83 211.948 112.615 211.756 112.417C211.526 112.168 211.317 111.901 211.128 111.619C210.414 110.505 209.906 109.271 209.631 107.977C209.609 107.884 209.607 107.787 209.622 107.693C209.638 107.598 209.673 107.508 209.724 107.427C209.774 107.346 209.841 107.275 209.919 107.22C209.997 107.164 210.085 107.124 210.179 107.103C210.272 107.082 210.369 107.079 210.464 107.095C210.558 107.11 210.649 107.145 210.73 107.196C210.811 107.246 210.882 107.313 210.937 107.391C210.993 107.469 211.032 107.557 211.054 107.65C211.058 107.668 211.061 107.685 211.064 107.702L211.07 107.741Z" fill="white"/>
<path d="M209.725 120.499C209.755 120.499 209.777 120.506 209.806 120.506L209.873 120.55L209.725 120.499Z" fill="white"/>
<path d="M224.521 119.516C211.994 117.615 200.189 112.765 197.257 111.506C196.75 111.283 196.206 111.153 195.653 111.12C192.984 110.981 192.066 111.848 191.818 112.744C191.707 113.176 191.738 113.633 191.907 114.046C192.077 114.459 192.375 114.807 192.758 115.038L205.789 123.223L205.796 123.216C206.452 122.427 207.213 121.732 208.056 121.147C207.748 121.794 207.369 122.405 206.926 122.968C208.139 122.635 209.42 122.64 210.63 122.982C225.717 124.41 229.508 121.264 229.508 121.264C227.89 119.756 224.521 119.516 224.521 119.516ZM213.518 118.271L216.58 120.499L209.558 119.45L203.236 115.22L213.518 118.271ZM217.455 122.05C214.845 121.81 212.242 121.511 209.638 121.22C209.587 121.211 209.538 121.194 209.493 121.169C207.086 119.72 204.687 118.256 202.31 116.756L198.745 114.491C197.578 113.712 196.39 112.962 195.23 112.161C196.477 112.816 197.702 113.508 198.934 114.178L202.602 116.268C205.023 117.645 207.415 119.072 209.806 120.506C212.373 120.82 214.954 121.14 217.521 121.504C220.109 121.868 222.705 122.247 225.286 122.699C222.669 122.538 220.058 122.298 217.455 122.05H217.455Z" fill="white"/>
<path d="M209.873 120.55L209.725 120.499C209.755 120.499 209.777 120.506 209.806 120.506L209.873 120.55Z" fill="#FF0000"/>
<path d="M121.043 16.0852C121.043 16.0852 119.17 14.9633 117.423 16.9579C117.423 16.9579 114.302 12.5296 101.071 16.3644C101.071 16.3644 102.819 19.7004 104.067 19.7004C105.315 19.7004 101.695 25.4348 98.3252 25.1855C98.3252 25.1855 92.5835 33.5378 96.9522 41.6408C101.258 49.6271 104.351 52.164 108.622 46.9837C108.753 46.823 108.9 46.6752 109.059 46.5425C110.287 45.5309 115.725 41.3248 117.652 44.4611C118.063 45.1578 118.18 45.9886 117.979 46.7716C117.099 50.4511 112.986 64.0033 101.071 58.5947C101.071 58.5947 87.1867 53.3946 90.4616 41.0757C90.8117 39.8227 91.3196 38.6192 91.973 37.4938C92.6029 36.3442 92.9911 35.0783 93.1138 33.7735C93.2366 32.4688 93.0912 31.1528 92.6867 29.9061C92.1847 28.1289 91.0524 26.5948 89.5011 25.59C87.9971 24.6531 86.0145 24.2342 84.5126 26.8541C83.891 27.944 83.5633 29.1764 83.5616 30.4307C83.5588 31.5788 83.7726 32.9868 84.7197 33.6625L83.5616 35.9064C82.9318 34.6264 82.1264 33.4405 81.1686 32.3827C79.5647 30.7604 78.5344 28.6599 78.2339 26.3999C77.8099 22.8148 78.3204 17.4617 82.5977 11.2235C82.5977 11.2235 88.3395 -0.24531 99.0742 0.00400673C109.809 0.253323 119.046 3.12049 121.043 16.0852Z" fill="white"/>
<path d="M103.069 31.0452C104.933 30.6194 106.849 30.4618 108.759 30.5771C109.72 30.6249 110.675 30.7695 111.607 31.0086C112.559 31.2126 113.443 31.6541 114.178 32.2919C113.33 31.8986 112.424 31.6438 111.495 31.5374C110.578 31.4056 109.652 31.3098 108.718 31.268C106.851 31.1525 104.975 31.1436 103.069 31.0452Z" fill="white"/>
<path d="M121.042 30.8667C120.36 31.074 119.728 31.4217 119.188 31.8874C118.932 32.0984 118.723 32.361 118.575 32.6579C118.428 32.9549 118.345 33.2796 118.331 33.6109C118.381 34.2905 118.56 34.9545 118.857 35.568L119.673 37.5721C120.282 38.9281 120.636 40.3844 120.717 41.8684C120.716 42.2593 120.644 42.6468 120.505 43.0123C120.356 43.3822 120.111 43.7064 119.797 43.9522C119.158 44.3541 118.403 44.5331 117.652 44.4613C118.357 44.4012 119.027 44.1332 119.579 43.6913C119.806 43.4501 119.976 43.1622 120.079 42.848C120.183 42.5339 120.215 42.2009 120.176 41.8726C120.122 41.1785 119.981 40.4939 119.756 39.835C119.546 39.1601 119.295 38.4914 119.028 37.8251C118.772 37.1539 118.494 36.4865 118.244 35.7991C118.125 35.4521 118.004 35.1061 117.91 34.7402C117.793 34.362 117.754 33.9642 117.794 33.5704C117.835 33.1787 117.963 32.8011 118.168 32.4645C118.373 32.1279 118.649 31.8405 118.978 31.6229C119.596 31.2101 120.304 30.9508 121.042 30.8667Z" fill="white"/>
<path d="M121.042 16.0859C121.276 17.4832 121.45 18.888 121.564 20.3005C121.694 21.7105 121.774 23.1248 121.805 24.5432C121.827 25.9615 121.806 27.3824 121.695 28.8043C121.63 30.2538 121.305 31.6799 120.737 33.0153C120.729 33.0319 120.719 33.0472 120.706 33.0608C120.268 33.5319 119.857 34.0272 119.475 34.5445C119.285 34.8035 119.116 35.0772 118.97 35.363C118.807 35.6413 118.742 35.9658 118.785 36.2852C118.684 35.9639 118.703 35.6174 118.836 35.3082C118.95 34.9963 119.09 34.6941 119.253 34.4045C119.579 33.8272 119.956 33.2801 120.379 32.7695L120.348 32.8149C120.59 32.1771 120.751 31.5116 120.828 30.834C120.936 30.1503 120.979 29.4522 121.031 28.7565C121.114 27.3599 121.128 25.955 121.136 24.5494C121.136 21.7359 121.074 18.9172 121.042 16.0859Z" fill="white"/>
<path d="M113.553 40.521C113.421 40.7916 113.315 41.0738 113.235 41.3639C113.154 41.6319 113.136 41.9151 113.183 42.1912C113.222 42.4647 113.342 42.7204 113.527 42.9256C113.723 43.1521 113.941 43.3588 114.177 43.5429C114.026 43.4981 113.877 43.445 113.732 43.3836C113.591 43.3059 113.458 43.2142 113.334 43.11C113.077 42.8872 112.903 42.5834 112.842 42.2488C112.798 41.9172 112.848 41.5801 112.985 41.2752C113.113 40.9832 113.308 40.725 113.553 40.521Z" fill="white"/>
<path d="M84.7188 33.6641C85.1508 34.2056 85.4955 34.8112 85.7404 35.459C85.8717 35.7897 85.9666 36.1336 86.0235 36.4847C86.0542 36.6688 86.0664 36.8554 86.0599 37.0419L86.0564 37.1854L86.0648 37.2632C86.0616 37.3139 86.0727 37.3645 86.0969 37.4092C86.204 37.6372 86.3931 37.8166 86.6266 37.9118C86.9038 38.0533 87.1959 38.1638 87.4974 38.2413C88.1386 38.4139 88.7981 38.5094 89.462 38.5259C88.8062 38.7825 88.0956 38.8674 87.3978 38.7725C87.0336 38.7354 86.677 38.6441 86.3398 38.5017C86.1414 38.4249 85.9603 38.3095 85.8067 38.1624C85.6532 38.0153 85.5303 37.8393 85.4452 37.6446C85.4004 37.5349 85.3785 37.4172 85.3808 37.2988L85.3783 37.1238L85.3837 37.0147C85.3914 36.8639 85.388 36.7127 85.3735 36.5624C85.3458 36.243 85.2959 35.9259 85.224 35.6135C85.0825 34.973 84.8961 34.329 84.7188 33.6641Z" fill="white"/>
<path d="M83.5616 35.9062C83.283 36.9145 82.8903 37.8878 82.3909 38.8073C81.9022 39.7402 81.3121 40.6167 80.6314 41.4208C79.9503 42.24 79.1426 42.9453 78.2386 43.51C77.3324 44.0711 76.2951 44.3862 75.2295 44.424C76.2048 44.1314 77.1211 43.6702 77.9368 43.0614C78.7351 42.4481 79.4619 41.7473 80.1036 40.972C80.7627 40.1978 81.372 39.3827 81.9279 38.5315C82.4875 37.6765 83.0432 36.8094 83.5616 35.9062Z" fill="white"/>
<path d="M92.7075 65.0795C93.4963 64.7341 94.2421 64.2982 94.9299 63.7806C95.6124 63.2716 96.2598 62.7174 96.8678 62.1216C97.4947 61.5434 98.0568 60.897 98.6406 60.2642L99.4906 59.2842C99.7673 58.9498 100.043 58.6129 100.348 58.29C100.174 58.6943 99.9719 59.0849 99.7703 59.478C99.5421 59.8532 99.3176 60.2342 99.0667 60.5974C98.5605 61.3254 97.9851 62.0029 97.3484 62.6203C96.7086 63.2427 95.9946 63.7842 95.2225 64.2327C94.457 64.6968 93.5981 64.986 92.7075 65.0795Z" fill="white"/>
<path d="M80.2208 41.197C79.5997 40.2777 78.8314 39.4667 77.9467 38.7965C77.7625 38.634 77.5394 38.5218 77.299 38.4708C77.0586 38.4199 76.8091 38.432 76.5748 38.5058C76.1608 38.7867 75.8636 39.2089 75.7391 39.6931C75.5685 40.2093 75.4457 40.74 75.372 41.2786C75.3349 41.5465 75.3019 41.8253 75.2777 42.0829C75.2792 42.3283 75.3007 42.6165 75.3253 42.8846C75.4328 43.9839 75.6368 45.0717 75.9352 46.1353C76.4846 48.2994 77.338 50.375 78.4701 52.3002C79.6171 54.2246 80.9892 56.006 82.5575 57.6067C83.3439 58.401 84.1613 59.1659 84.9908 59.9112C85.8523 60.6211 86.6755 61.3835 87.5722 62.0353C88.0049 62.3843 88.4818 62.6675 88.9336 62.9868C89.4119 63.2615 89.8711 63.5733 90.3693 63.8066C91.3319 64.329 92.3559 64.7298 93.4176 64.9997C95.5379 65.5615 97.7911 65.3253 99.7485 64.336C101.715 63.2875 103.368 61.7351 104.535 59.8381C104.54 59.83 104.547 59.8238 104.556 59.821C104.565 59.8182 104.574 59.819 104.582 59.8232C104.59 59.8279 104.596 59.8351 104.598 59.8436C104.601 59.8521 104.601 59.8613 104.597 59.8696C103.581 61.9294 101.985 63.6478 100.004 64.8134C98.9899 65.3881 97.874 65.7618 96.7178 65.9141C95.5578 66.0509 94.3827 65.9763 93.2494 65.6938C92.1243 65.4269 91.0414 65.0065 90.0311 64.4445C89.5153 64.1886 89.047 63.8574 88.5577 63.5616C88.0984 63.2234 87.6124 62.9192 87.1766 62.553C86.2632 61.8678 85.4634 61.0674 84.6182 60.3155C84.1871 59.9492 83.8218 59.5121 83.426 59.1092C83.0447 58.6916 82.632 58.3047 82.2778 57.8631C80.8 56.1571 79.458 54.3383 78.2641 52.4234C77.0483 50.5089 76.08 48.4484 75.3822 46.291C75.0416 45.1995 74.8192 44.0747 74.7188 42.9358C74.6997 42.644 74.6824 42.3718 74.6889 42.0554C74.722 41.7554 74.7626 41.4765 74.8087 41.1894C74.9005 40.6167 75.0451 40.0538 75.2405 39.5076C75.3284 39.2063 75.4756 38.9254 75.6734 38.6814C75.8712 38.4374 76.1157 38.2352 76.3925 38.0866C76.7038 37.9647 77.0484 37.9577 77.3643 38.0668C77.6516 38.1651 77.9199 38.3118 78.1575 38.5006C79.0297 39.2429 79.7505 40.1462 80.2802 41.1611C80.2824 41.165 80.2839 41.1694 80.2844 41.1739C80.285 41.1784 80.2847 41.183 80.2835 41.1873C80.2822 41.1917 80.2802 41.1958 80.2774 41.1994C80.2746 41.203 80.2711 41.206 80.2672 41.2082C80.2594 41.2122 80.2504 41.2132 80.2419 41.2112C80.2334 41.2091 80.2259 41.2041 80.2208 41.197Z" fill="white"/>
<path d="M82.3302 38.2623C81.2158 37.577 79.9727 37.1267 78.6775 36.9392C77.4015 36.7064 76.0842 36.942 74.9684 37.6027C74.4423 37.9678 73.9999 38.4404 73.6706 38.9892L72.5381 40.6137C71.7886 41.7178 70.9493 42.7583 70.0288 43.7247C70.0073 43.7459 69.9817 43.7623 69.9535 43.773C69.9252 43.7836 69.8951 43.7883 69.865 43.7866L69.8482 43.7855C65.1835 43.5096 60.5029 43.399 55.8345 43.4305C53.4999 43.4499 51.1677 43.5434 48.8489 43.7253C46.548 43.8524 44.2698 44.2474 42.0606 44.9021L42.0215 44.9127L41.9681 44.9241C40.7453 45.2367 39.5807 45.743 38.5184 46.4238C37.9658 46.7581 37.4341 47.1256 36.9262 47.5243L36.1566 48.1158C35.9083 48.3237 35.6742 48.5502 35.4323 48.7662C33.5049 50.5253 31.7925 52.5059 30.3309 54.6667C27.3972 59.0245 24.9993 63.719 23.1891 68.6492C22.7416 69.8862 22.2517 71.1075 21.8388 72.3568L20.6573 76.1258C20.2575 77.3668 19.8999 78.682 19.4342 79.9387C18.9814 81.2077 18.4516 82.435 17.9444 83.6536L16.3828 87.3148L15.5696 89.1393C15.2925 89.7704 14.9836 90.387 14.6441 90.9869C14.5752 91.0989 14.4969 91.2049 14.4102 91.3037C14.4597 91.3057 14.4639 91.1921 14.4667 91.2376C14.4588 91.3088 14.4618 91.3807 14.4756 91.451C14.5276 91.7086 14.6166 91.9574 14.7398 92.1897C15.0123 92.7094 15.3761 93.176 15.8138 93.5672C16.7079 94.3696 17.8261 94.88 19.0186 95.0302L18.5498 96.1666C17.8143 95.5929 17.1182 94.9705 16.466 94.3038C16.1086 93.9443 15.797 93.5423 15.5382 93.1067C15.4602 92.965 15.3983 92.815 15.3536 92.6596C15.3301 92.5571 15.3141 92.453 15.306 92.3482C15.3059 92.2109 15.3294 92.0746 15.3752 91.9452C15.4275 91.806 15.5116 91.6809 15.6207 91.5798C15.6714 91.5327 15.7246 91.4885 15.7803 91.4474C15.8286 91.4195 15.8756 91.3974 15.9247 91.3741C16.0888 91.2988 16.264 91.25 16.4435 91.2298C16.9566 91.1932 17.4722 91.2296 17.9749 91.338C18.4447 91.423 18.8944 91.5368 19.3424 91.6543L20.6778 92.0784L21.9695 92.5957C25.3435 94.1162 28.3359 96.1346 31.451 97.9108C34.5458 99.7157 37.7465 101.333 41.0358 102.754C44.3361 104.158 47.7092 105.384 51.1406 106.428L51.1447 106.429C51.2387 106.458 51.32 106.518 51.3751 106.6C51.4302 106.681 51.4559 106.779 51.4477 106.877C51.1506 110.226 51.0302 113.588 51.0871 116.949C51.1104 118.62 51.2534 120.288 51.515 121.939C51.6394 122.744 51.8712 123.529 52.2041 124.274C52.3591 124.609 52.5909 124.903 52.8809 125.132C52.9551 125.164 53.0271 125.198 53.0989 125.236C53.1748 125.26 53.2556 125.258 53.3331 125.276C53.5075 125.297 53.7455 125.285 53.9486 125.29L74.2336 125.345C80.9952 125.379 87.7565 125.342 94.518 125.334L114.803 125.266L114.569 125.369C115.95 123.916 117.462 122.593 119.085 121.416C120.704 120.221 122.464 119.229 124.324 118.459C126.204 117.669 128.224 117.264 130.264 117.269C131.299 117.287 132.327 117.436 133.325 117.712L136.135 118.653C137.074 118.957 138.016 119.254 138.959 119.528C139.867 119.834 140.806 120.036 141.759 120.132C142.817 120.251 143.84 120.583 144.767 121.107C145.254 121.367 145.695 121.707 146.07 122.112C146.279 122.336 146.442 122.6 146.547 122.888C146.653 123.176 146.699 123.483 146.683 123.789C146.71 124.311 146.692 124.835 146.63 125.354C146.566 125.957 146.311 126.523 145.902 126.972C145.462 127.405 144.883 127.669 144.266 127.717C143.724 127.775 143.177 127.758 142.639 127.666C142.127 127.586 141.62 127.47 141.124 127.321L139.706 126.893C139.252 126.763 138.791 126.663 138.325 126.592C137.939 126.513 137.54 126.517 137.156 126.603L137.296 125.639C139.172 126.952 141.376 127.72 143.662 127.858C144.818 127.919 145.977 127.853 147.118 127.66C148.296 127.499 149.465 127.302 150.653 127.104C151.251 127.01 151.845 126.906 152.502 126.863C152.862 126.834 153.225 126.855 153.579 126.927C154.007 127.018 154.393 127.246 154.68 127.575C154.927 127.869 155.117 128.206 155.238 128.57C155.586 129.546 155.638 130.603 155.388 131.608C155.211 132.275 154.897 132.899 154.465 133.438C154.033 133.977 153.493 134.42 152.88 134.738C151.73 135.327 150.479 135.694 149.193 135.818L149.754 135.396C149.454 136.08 149.081 136.731 148.643 137.336C148.207 137.948 147.699 138.504 147.131 138.996C146.534 139.495 145.855 139.887 145.123 140.155C144.371 140.408 143.576 140.509 142.784 140.452L143.383 140.206C142.165 141.623 140.969 143.015 139.597 144.356C139.422 144.522 139.237 144.69 139.03 144.856C138.818 145.018 138.596 145.165 138.365 145.298C137.932 145.542 137.482 145.755 137.018 145.935C136.114 146.285 135.18 146.553 134.227 146.733C132.34 147.085 130.413 147.173 128.502 146.996C128.025 146.963 127.554 146.886 127.08 146.832L125.676 146.587L124.36 146.372L123.02 146.232C119.373 146.045 115.717 146.163 112.09 146.585C108.437 146.954 104.795 147.505 101.171 148.146C99.3732 148.465 97.5923 148.887 95.7782 149.286C93.9717 149.687 92.159 150.077 90.3414 150.444C86.7047 151.169 83.052 151.83 79.3778 152.355C72.0308 153.445 64.6178 154.03 57.1907 154.108C56.2624 154.111 55.3345 154.146 54.4063 154.124L51.6219 154.062C49.765 154.049 47.912 153.917 46.0587 153.807C44.2032 153.728 42.3575 153.513 40.5097 153.333C39.5817 153.231 38.6727 153.174 37.7263 153.027C36.7891 152.882 35.8613 152.683 34.9477 152.429C31.2575 151.434 27.9102 149.45 25.2685 146.692C22.6233 143.918 20.9506 140.362 20.5016 136.557C19.6886 129.184 19.3621 121.8 19.177 114.413C19.0155 107.026 18.9953 99.6396 19.1163 92.2542C19.1165 92.2349 19.1243 92.2164 19.1381 92.2029C19.152 92.1894 19.1706 92.1819 19.1899 92.1821C19.2093 92.1822 19.2277 92.1901 19.2413 92.2039C19.2548 92.2177 19.2623 92.2363 19.2621 92.2556C19.2931 99.638 19.4633 107.017 19.7729 114.393C20.0999 121.761 20.5035 129.143 21.4205 136.438C21.8914 140.025 23.5165 143.362 26.051 145.946C28.5766 148.531 31.7609 150.379 35.2606 151.291C36.1301 151.524 37.0126 151.707 37.9036 151.837C38.7854 151.967 39.7239 152.02 40.6337 152.112C42.4665 152.275 44.296 152.472 46.1363 152.534C47.974 152.627 49.8104 152.743 51.6516 152.739L54.4114 152.778C55.3312 152.792 56.2514 152.749 57.1712 152.738L59.9306 152.682L62.6875 152.539C64.5265 152.467 66.3601 152.306 68.1946 152.158C70.0313 152.039 71.8573 151.795 73.6889 151.617C75.5152 151.39 77.3426 151.164 79.1631 150.892C82.8072 150.364 86.431 149.702 90.0423 148.975C91.8475 148.607 93.6479 148.216 95.4493 147.813C97.2442 147.415 99.0611 146.98 100.903 146.65C104.557 145.997 108.229 145.435 111.932 145.053C115.652 144.612 119.403 144.502 123.142 144.724L124.559 144.878L125.978 145.117L127.303 145.355C127.747 145.407 128.189 145.483 128.635 145.516C130.409 145.689 132.198 145.616 133.952 145.299C134.817 145.14 135.665 144.902 136.487 144.589C136.886 144.436 137.273 144.256 137.647 144.049C137.817 143.952 137.981 143.845 138.138 143.729C138.292 143.606 138.45 143.465 138.61 143.314C139.889 142.079 141.114 140.674 142.308 139.296C142.378 139.215 142.464 139.151 142.562 139.109C142.66 139.066 142.766 139.045 142.872 139.049L142.908 139.05C143.502 139.093 144.099 139.021 144.665 138.835C145.237 138.626 145.77 138.32 146.239 137.932C146.721 137.517 147.152 137.047 147.524 136.531C147.9 136.015 148.223 135.462 148.486 134.881L148.488 134.877C148.537 134.765 148.614 134.667 148.712 134.594C148.811 134.521 148.926 134.474 149.048 134.458C150.151 134.358 151.227 134.054 152.219 133.56C152.675 133.334 153.078 133.014 153.401 132.62C153.724 132.227 153.961 131.77 154.094 131.278C154.226 130.783 154.253 130.266 154.175 129.759C154.126 129.29 153.962 128.841 153.697 128.451C153.593 128.321 153.444 128.233 153.279 128.204C153.046 128.159 152.807 128.146 152.569 128.165C152.03 128.193 151.44 128.285 150.854 128.373C149.676 128.556 148.48 128.746 147.283 128.896C146.057 129.088 144.814 129.144 143.576 129.065C141.051 128.888 138.626 128.006 136.579 126.52L136.568 126.512C136.487 126.452 136.425 126.372 136.387 126.28C136.349 126.188 136.337 126.087 136.353 125.988C136.369 125.889 136.411 125.797 136.475 125.721C136.54 125.645 136.624 125.587 136.719 125.556C137.294 125.384 137.903 125.36 138.49 125.485C139.003 125.568 139.51 125.684 140.008 125.831L141.43 126.276C141.88 126.417 142.339 126.527 142.805 126.606C143.701 126.759 144.677 126.742 145.157 126.242C145.663 125.75 145.694 124.776 145.671 123.803C145.675 123.692 145.671 123.581 145.657 123.471C145.657 123.39 145.639 123.311 145.605 123.238C145.541 123.063 145.442 122.902 145.316 122.764C145.018 122.441 144.669 122.169 144.283 121.96C143.484 121.499 142.602 121.199 141.688 121.079C140.669 120.969 139.666 120.744 138.698 120.409C137.743 120.12 136.798 119.812 135.856 119.495L133.04 118.521C132.129 118.265 131.19 118.122 130.244 118.094C128.312 118.073 126.396 118.438 124.607 119.167C120.994 120.694 117.736 122.95 115.036 125.793L115.026 125.803C114.997 125.833 114.962 125.856 114.923 125.872C114.885 125.888 114.844 125.896 114.802 125.896L94.5194 125.828C87.7585 125.82 80.9974 125.783 74.2367 125.817L53.9546 125.872C53.7357 125.868 53.5492 125.885 53.3036 125.866C53.1727 125.854 53.0427 125.833 52.9149 125.802L52.5595 125.637C52.173 125.356 51.862 124.983 51.654 124.553C51.2827 123.76 51.0203 122.921 50.874 122.058C50.5829 120.377 50.413 118.677 50.3656 116.972C50.2611 113.581 50.3359 110.186 50.5895 106.803L50.8966 107.253C47.4172 106.246 43.9947 105.053 40.6436 103.679C37.2966 102.286 34.0366 100.693 30.8812 98.9082C27.7118 97.169 24.695 95.1488 21.4805 93.7229L20.2617 93.2404L19.0197 92.8516C18.5958 92.7422 18.1709 92.637 17.7535 92.5637C17.3743 92.4824 16.986 92.4513 16.5986 92.4713C16.5468 92.4846 16.4564 92.4954 16.4689 92.5026L16.4605 92.5004C16.4734 92.4972 16.485 92.4901 16.4939 92.4802C16.5 92.4604 16.5424 92.4313 16.5499 92.3881C16.5719 92.2154 16.5491 92.3772 16.6454 92.5091C16.8538 92.8439 17.1003 93.1535 17.3801 93.4315C17.991 94.0493 18.6421 94.6261 19.3292 95.158L19.3351 95.1627C19.4448 95.2488 19.5231 95.3684 19.5581 95.5032C19.5931 95.638 19.5829 95.7806 19.529 95.909C19.4751 96.0375 19.3805 96.1447 19.2598 96.2143C19.139 96.284 18.9987 96.3121 18.8604 96.2945C17.4036 96.1164 16.0363 95.4973 14.9423 94.5203C14.3887 94.0277 13.9283 93.4396 13.5832 92.7842C13.3951 92.4313 13.2616 92.052 13.1872 91.6592C13.1388 91.404 13.1455 91.1415 13.207 90.8891C13.2575 90.7015 13.3514 90.5284 13.4812 90.3837C13.4957 90.3432 13.486 90.38 13.533 90.2953C13.8193 89.8018 14.1096 89.1765 14.3835 88.593L15.1964 86.7946L16.7696 83.1588C17.2859 81.9363 17.8121 80.7343 18.2552 79.5115C18.716 78.2865 19.0588 77.0462 19.4765 75.7697L20.6905 71.9673C21.1147 70.7062 21.6173 69.4704 22.0769 68.2211C23.9466 63.2127 26.4136 58.4476 29.4246 54.0286C30.1919 52.9274 31.0147 51.8658 31.8897 50.8479C32.7812 49.8375 33.7355 48.884 34.7469 47.9932C35.0016 47.7715 35.2476 47.5403 35.5094 47.327L36.3226 46.7177C36.8623 46.3057 37.4263 45.9267 38.0117 45.5827C39.1919 44.8452 40.4878 44.3107 41.8451 44.0016L41.7529 44.0236C44.0438 43.3702 46.4038 42.9887 48.784 42.887C51.1343 42.7327 53.4842 42.6692 55.8312 42.6795C60.5264 42.6895 65.2091 42.927 69.885 43.2995L69.7047 43.3601C70.6198 42.4347 71.4586 41.4369 72.2129 40.3766L73.3752 38.784C73.741 38.2083 74.2242 37.7159 74.7932 37.3389C75.3685 36.9684 76.0236 36.7395 76.7046 36.671C77.3719 36.5918 78.047 36.6051 78.7106 36.7104C80.0295 36.9297 81.2892 37.4169 82.412 38.1418C82.4282 38.1521 82.4397 38.1684 82.4439 38.1871C82.4482 38.2058 82.4448 38.2254 82.4347 38.2416C82.4245 38.2579 82.4083 38.2695 82.3897 38.2739C82.371 38.2783 82.3513 38.2752 82.3349 38.2652L82.3302 38.2623Z" fill="white"/>
<path d="M48.0874 50.6157C48.9965 50.8732 49.8214 51.3657 50.4788 52.0436C51.1563 52.7107 51.6981 53.5024 52.0745 54.3751C52.4516 55.2428 52.6636 56.1731 52.6997 57.1184C52.7178 57.5836 52.6939 58.0495 52.6284 58.5105C52.549 58.9679 52.4279 59.4171 52.2667 59.8525C52.1048 59.4019 52.0319 58.9672 51.913 58.5423C51.7855 58.1201 51.709 57.6998 51.5672 57.298C51.341 56.5 51.0638 55.7173 50.7371 54.9549C50.4094 54.1967 50.0263 53.4638 49.5908 52.7618C49.1346 52.0161 48.6325 51.2993 48.0874 50.6157Z" fill="white"/>
<path d="M51.2679 68.0688C51.5488 71.3015 51.6859 74.5333 51.7723 77.7648C51.8678 80.9963 51.878 84.2273 51.8718 87.4583C51.8383 90.6889 51.7863 93.9195 51.6496 97.1496C51.522 100.38 51.3426 103.609 51.0182 106.838C50.7355 103.606 50.5976 100.374 50.5116 97.1423C50.4165 93.9106 50.4062 90.6796 50.4143 87.4489C50.4497 84.2181 50.5015 80.9876 50.6386 77.7575C50.7667 74.5274 50.9453 71.2977 51.2679 68.0688Z" fill="white"/>
<path d="M118.021 46.7142C120.692 48.383 123.313 50.121 125.885 51.9284C127.173 52.8309 128.45 53.7497 129.717 54.6847L131.601 56.1225C131.932 56.37 132.243 56.6421 132.532 56.9366L132.98 57.4037L133.358 57.881C134.335 59.1391 135.226 60.4613 136.025 61.8388C136.83 63.1961 137.614 64.5623 138.376 65.9374C139.883 68.7001 141.434 71.4319 143.031 74.1328C143.829 75.4846 144.643 76.8273 145.472 78.161L146.712 80.1606C147.079 80.8144 147.516 81.4269 148.014 81.9876C148.543 82.5052 149.172 83.0181 149.719 83.6622C150.367 84.3367 150.758 85.2173 150.822 86.15C150.773 87.1064 150.356 88.0069 149.658 88.6635C149.359 88.9645 149.046 89.25 148.718 89.5188C148.424 89.7551 148.139 90.0031 147.86 90.259C147.299 90.7737 146.783 91.3143 146.258 91.896C145.723 92.4859 145.17 93.0583 144.608 93.6239C143.474 94.7547 142.27 95.8131 141.003 96.7929C139.712 97.7917 138.306 98.6335 136.815 99.3003C136.033 99.6307 135.211 99.8578 134.37 99.9759C133.487 100.107 132.586 100.028 131.739 99.7474C131.604 99.7067 131.489 99.6175 131.416 99.4969L131.411 99.4891C130.864 98.5836 130.265 97.6806 129.658 96.7968C129.053 95.9091 128.419 95.0427 127.756 94.1975C127.091 93.3589 126.379 92.5574 125.626 91.7968C124.9 91.0144 124.012 90.4006 123.023 89.9986L123.017 89.9967C123 89.9906 122.986 89.9781 122.977 89.9618C122.969 89.9455 122.966 89.9266 122.971 89.9089C122.976 89.8911 122.988 89.8759 123.003 89.8662C123.019 89.8566 123.038 89.8532 123.056 89.8568C124.136 90.1352 125.136 90.6655 125.971 91.4043C126.828 92.0965 127.632 92.853 128.374 93.667C129.866 95.2804 131.236 97.0014 132.475 98.816L132.147 98.5576C133.536 98.8406 134.98 98.6309 136.23 97.9647C137.595 97.3148 138.878 96.5057 140.053 95.5542C141.269 94.6108 142.433 93.6007 143.538 92.5286C144.097 91.9949 144.65 91.453 145.185 90.8935C145.727 90.324 146.311 89.7426 146.922 89.2126C147.229 88.946 147.544 88.6867 147.869 88.4393C148.163 88.1939 148.443 87.9843 148.689 87.7343C149.167 87.3234 149.478 86.7533 149.567 86.13C149.529 85.4832 149.271 84.8688 148.835 84.3889C148.388 83.815 147.824 83.2951 147.277 82.6707C147.132 82.5075 146.997 82.3364 146.872 82.1581L146.556 81.624L145.987 80.5817L144.876 78.5024C144.142 77.1133 143.393 75.734 142.628 74.3645C141.094 71.6274 139.476 68.936 137.724 66.3327C135.988 63.733 134.226 61.1012 132.345 58.6994L131.989 58.2555L131.618 57.8768C131.364 57.605 131.088 57.3542 130.793 57.1267L128.96 55.6722L125.259 52.7698C122.786 50.837 120.345 48.8578 117.935 46.8321C117.921 46.8203 117.912 46.8034 117.91 46.7851C117.907 46.7667 117.912 46.7482 117.923 46.7332C117.934 46.7183 117.95 46.708 117.968 46.7045C117.987 46.7009 118.005 46.7044 118.021 46.7143L118.021 46.7142Z" fill="white"/>
<path d="M127.784 70.2305C126.507 75.0212 125.302 79.8237 124.295 84.645C123.777 87.0348 123.416 89.4557 123.213 91.8924C123.144 93.0642 123.137 94.3578 123.034 95.6116C122.933 96.8902 122.719 98.1574 122.394 99.398C121.627 101.85 120.399 104.134 118.776 106.127C118.026 107.126 117.231 108.092 116.487 109.063C116.129 109.545 115.765 110.023 115.444 110.539C115.099 111.037 114.788 111.56 114.477 112.085C113.256 114.217 112.165 116.419 111.208 118.681C110.199 120.935 109.329 123.25 108.478 125.58C109.561 120.71 111.242 115.992 113.483 111.533C114.061 110.406 114.724 109.324 115.465 108.296C116.2 107.281 116.954 106.312 117.663 105.31C119.157 103.435 120.285 101.298 120.989 99.0076C121.302 97.8547 121.512 96.6764 121.616 95.4865C121.732 94.2729 121.728 93.0881 121.839 91.79C122.1 89.2946 122.551 86.8227 123.189 84.3961C124.413 79.5802 125.948 74.8485 127.784 70.2305Z" fill="white"/>
<path d="M149.12 88.2651C150.724 89.5097 152.244 90.8355 153.788 92.07C154.179 92.3703 154.568 92.666 154.95 92.9256L155.585 93.3035C155.819 93.4513 156.042 93.6064 156.254 93.769C157.072 94.4277 157.826 95.1638 158.503 95.967C159.848 97.5574 160.906 99.3695 161.629 101.322C162.386 103.256 162.6 105.36 162.248 107.406C162.035 105.44 161.473 103.528 160.587 101.76C159.725 100.016 158.651 98.3857 157.39 96.9043C156.782 96.1605 156.11 95.4721 155.38 94.8472C155.204 94.6908 155.022 94.5468 154.839 94.4129L154.207 93.9748C153.792 93.6533 153.398 93.3046 153.028 92.9312C151.584 91.4996 150.276 89.9376 149.12 88.2651Z" fill="white"/>
<path d="M133.021 99.3682C134.454 101.289 135.434 103.509 135.887 105.862C135.937 106.162 135.98 106.465 136.021 106.769C136.049 107.063 136.052 107.411 136.089 107.663C136.146 108.178 136.268 108.683 136.455 109.166C136.861 110.199 137.383 111.182 138.009 112.098C138.629 113.047 139.311 113.954 140.051 114.812C140.408 115.255 140.803 115.666 141.183 116.091C141.595 116.483 141.971 116.918 142.395 117.298C144.012 118.938 145.95 120.229 148.087 121.091C146.897 120.971 145.739 120.634 144.67 120.097C143.601 119.553 142.591 118.904 141.652 118.159C139.763 116.672 138.122 114.895 136.789 112.896C136.113 111.872 135.563 110.77 135.153 109.614C134.955 108.994 134.841 108.351 134.815 107.702C134.796 107.373 134.805 107.136 134.805 106.848L134.763 106.013C134.502 103.727 133.915 101.489 133.021 99.3682Z" fill="white"/>
<path d="M149.12 118.06C149.265 117.121 149.591 116.22 150.079 115.405C150.557 114.581 151.139 113.821 151.809 113.143C152.487 112.478 153.239 111.892 154.05 111.398C154.454 111.152 154.87 110.93 155.298 110.731C155.735 110.551 156.172 110.377 156.617 110.231C155.843 110.767 155.081 111.283 154.357 111.843C153.635 112.397 152.947 112.994 152.299 113.632C151.66 114.276 151.069 114.965 150.532 115.696C149.984 116.436 149.511 117.227 149.12 118.06Z" fill="white"/>
<path d="M151.751 119.721C153.371 117.134 155.146 114.647 157.066 112.274C158.026 111.084 159.024 109.922 160.059 108.788C161.112 107.66 162.227 106.591 163.4 105.587C164.595 104.539 165.94 103.675 167.39 103.023C168.174 102.693 169.019 102.532 169.869 102.549C170.741 102.572 171.593 102.815 172.345 103.256C173.745 104.157 174.816 105.485 175.399 107.043C175.703 107.784 175.923 108.557 176.054 109.347C176.217 110.165 176.2 111.009 176.006 111.819L175.773 111.309C177.413 112.144 178.993 113.05 180.559 113.992C182.123 114.935 183.666 115.913 185.152 116.976C186.671 118.01 188.079 119.198 189.352 120.522C189.996 121.206 190.543 121.974 190.976 122.807C191.452 123.694 191.565 124.731 191.291 125.699L191.299 125.672C191.092 126.474 190.648 127.195 190.025 127.74C189.686 128.011 189.292 128.205 188.87 128.308C188.449 128.411 188.009 128.42 187.584 128.335C186.794 128.174 186.043 127.861 185.373 127.413C184.73 126.993 184.122 126.521 183.556 126.001L184.533 125.58C184.505 126.578 184.291 127.563 183.902 128.483C183.52 129.412 182.948 130.251 182.223 130.948C181.497 131.633 180.647 132.174 179.717 132.54C179.324 132.71 178.941 132.903 178.57 133.116C178.399 133.214 178.235 133.322 178.079 133.441C178.02 133.486 177.965 133.536 177.914 133.59C177.875 133.623 177.886 133.663 177.921 133.533L177.673 132.836C178.127 133.23 178.503 133.706 178.78 134.24C179.076 134.787 179.231 135.4 179.231 136.022C179.231 136.644 179.076 137.257 178.781 137.804C178.512 138.325 178.157 138.796 177.733 139.2C176.88 140.002 175.797 140.517 174.636 140.672C174.096 140.737 173.553 140.762 173.01 140.748C172.426 140.747 171.846 140.654 171.29 140.474L171.806 140.476C170.108 141.001 168.363 141.36 166.595 141.549C164.832 141.729 163.054 141.719 161.292 141.52C160.375 141.433 159.475 141.221 158.616 140.889C158.138 140.705 157.706 140.42 157.349 140.054C156.992 139.687 156.718 139.248 156.546 138.767C156.294 137.802 156.41 136.779 156.872 135.895C157.079 135.467 157.346 135.072 157.665 134.72C158.006 134.295 158.495 134.015 159.035 133.936L158.974 133.943C159.228 133.905 159.485 133.883 159.742 133.878C159.995 133.873 160.247 133.882 160.499 133.906C161.013 133.948 161.516 134.082 161.983 134.302L161.607 134.74C161.375 134.329 161.194 133.892 161.068 133.438C160.937 132.986 160.879 132.516 160.895 132.045C160.912 131.571 161.046 131.107 161.286 130.697C161.529 130.301 161.861 129.966 162.254 129.717C162.27 129.707 162.29 129.703 162.309 129.707C162.328 129.711 162.344 129.722 162.355 129.738C162.365 129.753 162.368 129.772 162.365 129.79C162.362 129.808 162.353 129.824 162.339 129.836C161.997 130.101 161.721 130.44 161.531 130.828C161.351 131.209 161.266 131.629 161.283 132.05C161.303 132.473 161.39 132.891 161.54 133.287C161.685 133.683 161.877 134.061 162.112 134.412C162.147 134.464 162.165 134.527 162.163 134.59C162.161 134.653 162.138 134.714 162.099 134.764C162.06 134.814 162.006 134.85 161.945 134.867C161.884 134.884 161.819 134.882 161.759 134.859L161.736 134.85C161.323 134.7 160.889 134.617 160.45 134.604C160.226 134.596 160.002 134.601 159.779 134.619C159.561 134.636 159.343 134.667 159.128 134.711L159.099 134.715L159.067 134.718C158.762 134.824 158.497 135.023 158.311 135.287C158.069 135.588 157.871 135.923 157.724 136.28C157.413 136.952 157.36 137.716 157.576 138.425C157.712 138.749 157.916 139.039 158.175 139.277C158.433 139.514 158.74 139.694 159.074 139.802C159.834 140.058 160.625 140.211 161.426 140.256C163.093 140.383 164.769 140.332 166.426 140.103C168.08 139.899 169.71 139.537 171.295 139.023C171.457 138.969 171.631 138.968 171.793 139.019L171.811 139.025C172.668 139.213 173.551 139.249 174.421 139.13C175.26 139.022 176.044 138.654 176.663 138.078C177.27 137.55 177.651 136.809 177.727 136.009C177.73 135.625 177.64 135.247 177.466 134.906C177.286 134.547 177.044 134.223 176.752 133.947L176.7 133.9C176.612 133.819 176.548 133.716 176.513 133.602C176.479 133.487 176.476 133.366 176.504 133.25C176.562 133.009 176.685 132.789 176.86 132.613C176.968 132.502 177.084 132.4 177.208 132.308C177.418 132.153 177.638 132.013 177.867 131.888C178.293 131.653 178.732 131.443 179.182 131.259C179.967 130.973 180.689 130.538 181.308 129.977C181.917 129.413 182.407 128.734 182.752 127.98C183.102 127.224 183.313 126.411 183.373 125.58L183.376 125.537C183.383 125.427 183.421 125.322 183.485 125.233C183.55 125.144 183.639 125.076 183.742 125.036C183.844 124.996 183.956 124.987 184.064 125.008C184.172 125.03 184.271 125.082 184.35 125.158C184.854 125.652 185.395 126.106 185.969 126.516C186.506 126.921 187.116 127.219 187.766 127.392C188.061 127.472 188.37 127.485 188.671 127.431C188.971 127.376 189.256 127.256 189.504 127.077C190.015 126.666 190.392 126.113 190.587 125.487L190.595 125.461C190.851 124.668 190.788 123.807 190.421 123.059C190.056 122.256 189.564 121.518 188.963 120.872C187.74 119.549 186.376 118.364 184.896 117.336C181.912 115.283 178.734 113.527 175.407 112.093C175.318 112.053 175.245 111.983 175.201 111.895C175.157 111.808 175.145 111.708 175.167 111.612L175.174 111.582C175.284 110.899 175.251 110.201 175.079 109.531C174.921 108.828 174.685 108.145 174.375 107.494C173.819 106.209 172.887 105.122 171.701 104.375C171.115 104.058 170.464 103.879 169.798 103.854C169.133 103.828 168.47 103.956 167.862 104.227C166.528 104.815 165.287 105.592 164.176 106.534C163.009 107.475 161.895 108.48 160.839 109.544C159.764 110.599 158.723 111.696 157.712 112.822C155.703 115.085 153.747 117.41 151.871 119.804C151.866 119.811 151.858 119.818 151.85 119.822C151.842 119.827 151.833 119.831 151.823 119.832C151.814 119.833 151.804 119.833 151.795 119.83C151.786 119.828 151.777 119.824 151.769 119.818C151.755 119.807 151.745 119.791 151.742 119.773C151.739 119.755 151.742 119.737 151.751 119.721Z" fill="white"/>
<path d="M166.394 108.626C166.402 109.974 166.574 111.316 166.906 112.623C167.078 113.241 167.352 113.826 167.717 114.354C168.061 114.85 168.58 115.2 169.17 115.333C169.778 115.478 170.414 115.471 171.019 115.312C171.647 115.167 172.242 114.905 172.774 114.541C173.878 113.774 174.833 112.812 175.59 111.701C175.054 112.994 174.199 114.13 173.104 115.003C172.54 115.472 171.878 115.809 171.167 115.988C170.455 116.167 169.713 116.185 168.993 116.039C168.242 115.856 167.587 115.398 167.158 114.755C166.767 114.146 166.494 113.468 166.355 112.757C166.106 111.39 166.119 109.988 166.394 108.626Z" fill="white"/>
<path d="M177.129 121.509C178.515 121.559 179.863 121.974 181.037 122.713C181.629 123.07 182.177 123.495 182.671 123.978C183.166 124.455 183.596 124.994 183.952 125.582C183.434 125.133 182.935 124.688 182.404 124.284C181.883 123.875 181.336 123.499 180.768 123.157C180.202 122.811 179.615 122.502 179.01 122.231C178.399 121.951 177.771 121.71 177.129 121.509Z" fill="white"/>
<path d="M161.858 134.577C162.18 134.901 162.551 135.173 162.957 135.383C163.351 135.612 163.752 135.827 164.158 136.036C164.968 136.453 165.791 136.852 166.618 137.243C168.267 138.043 169.937 138.807 171.55 139.75C169.737 139.329 167.978 138.708 166.302 137.899C165.459 137.499 164.645 137.039 163.868 136.523C163.05 136.046 162.361 135.378 161.858 134.577Z" fill="white"/>
<path d="M174.716 124.665C175.001 124.821 175.25 125.035 175.447 125.293C175.561 125.431 175.643 125.592 175.687 125.764C175.732 125.937 175.737 126.117 175.704 126.292C175.601 126.64 175.384 126.943 175.088 127.154C174.822 127.358 174.53 127.528 174.22 127.658C174.078 127.718 173.94 127.788 173.808 127.868C173.683 127.929 173.562 127.999 173.447 128.076L173.132 128.352C173.037 128.455 172.95 128.564 172.871 128.68C172.539 129.142 172.339 129.687 172.296 130.254C172.212 130.814 172.297 131.386 172.538 131.899C172.779 132.411 173.166 132.841 173.651 133.134C173.77 133.215 173.902 133.275 174.042 133.312C174.18 133.357 174.314 133.419 174.456 133.456C174.751 133.513 175.05 133.549 175.35 133.564C175.659 133.572 175.968 133.561 176.276 133.532C176.582 133.478 176.894 133.432 177.212 133.391C176.919 133.507 176.619 133.618 176.314 133.721C176.002 133.807 175.684 133.874 175.363 133.921C175.033 133.949 174.701 133.95 174.371 133.926C174.204 133.897 174.039 133.859 173.877 133.811C173.708 133.78 173.545 133.722 173.393 133.641C172.749 133.349 172.228 132.842 171.919 132.206C171.62 131.576 171.5 130.876 171.57 130.182C171.641 129.488 171.9 128.826 172.32 128.268C172.426 128.129 172.543 127.999 172.67 127.877L173.086 127.552C173.378 127.383 173.687 127.243 174.006 127.134C174.564 127.007 175.05 126.669 175.363 126.192C175.41 126.062 175.427 125.922 175.413 125.785C175.4 125.647 175.356 125.514 175.284 125.395C175.136 125.123 174.943 124.876 174.716 124.665Z" fill="white"/>
<path d="M168.808 110.703C168.893 111.086 169.01 111.461 169.158 111.824C169.28 112.169 169.498 112.472 169.787 112.698C169.931 112.801 170.095 112.871 170.269 112.903C170.443 112.936 170.621 112.931 170.793 112.888C170.981 112.854 171.166 112.807 171.347 112.746C171.53 112.676 171.709 112.595 171.903 112.532C171.751 112.662 171.584 112.775 171.42 112.899C171.238 112.997 171.048 113.08 170.852 113.148C170.642 113.219 170.419 113.241 170.199 113.212C169.979 113.183 169.769 113.103 169.585 112.979C169.25 112.706 169.012 112.331 168.907 111.912C168.796 111.519 168.762 111.109 168.808 110.703Z" fill="white"/>
<path d="M169.473 110.232C169.864 110.121 170.27 110.067 170.676 110.07C171.091 110.073 171.502 110.138 171.896 110.264C172.307 110.399 172.666 110.658 172.922 111.007C173.143 111.368 173.219 111.799 173.135 112.214C173.088 111.834 172.941 111.472 172.708 111.166C172.458 110.893 172.137 110.693 171.781 110.591C171.032 110.365 170.255 110.244 169.473 110.232Z" fill="white"/>
<path d="M175.049 132.145C175.193 131.849 175.413 131.597 175.686 131.413C175.832 131.312 175.996 131.242 176.17 131.206C176.343 131.17 176.522 131.17 176.696 131.204C177.028 131.311 177.319 131.516 177.53 131.793C177.616 131.934 177.707 132.07 177.782 132.212C177.837 132.366 177.902 132.511 177.945 132.665C177.732 132.422 177.543 132.181 177.33 131.97C177.132 131.768 176.886 131.621 176.616 131.541C176.345 131.477 176.061 131.514 175.816 131.645C175.54 131.778 175.282 131.946 175.049 132.145Z" fill="white"/>
<path d="M162.248 133.758C162.267 133.188 162.412 132.629 162.674 132.122C162.743 131.98 162.841 131.853 162.961 131.75C163.081 131.647 163.221 131.569 163.372 131.522C163.532 131.491 163.696 131.497 163.853 131.539C164.01 131.58 164.156 131.657 164.279 131.762C164.519 131.944 164.723 132.168 164.881 132.424C165.041 132.696 165.095 133.017 165.033 133.326C164.947 133.605 164.801 133.861 164.604 134.077C164.408 134.293 164.167 134.463 163.898 134.576C164.333 134.261 164.642 133.802 164.77 133.28C164.793 133.037 164.736 132.793 164.609 132.585C164.465 132.373 164.285 132.189 164.075 132.042C163.993 131.961 163.894 131.9 163.784 131.862C163.675 131.825 163.558 131.814 163.444 131.828C163.216 131.904 163.023 132.058 162.899 132.263C162.612 132.729 162.393 133.232 162.248 133.758Z" fill="white"/>
<path d="M153.353 129.541C153.319 130.11 153.159 130.665 152.884 131.165C152.811 131.306 152.71 131.43 152.587 131.53C152.464 131.63 152.323 131.704 152.17 131.747C152.01 131.774 151.845 131.763 151.69 131.718C151.534 131.672 151.39 131.592 151.269 131.483C151.034 131.296 150.836 131.066 150.686 130.806C150.532 130.53 150.487 130.208 150.557 129.9C150.651 129.624 150.803 129.372 151.005 129.161C151.207 128.95 151.452 128.786 151.724 128.681C151.281 128.984 150.96 129.435 150.819 129.953C150.79 130.195 150.84 130.441 150.962 130.652C151.1 130.868 151.275 131.056 151.481 131.209C151.561 131.292 151.659 131.356 151.767 131.396C151.876 131.436 151.992 131.451 152.107 131.439C152.336 131.369 152.534 131.22 152.663 131.018C152.961 130.561 153.194 130.063 153.353 129.541Z" fill="white"/>
<path d="M158.572 138.959C158.721 138.566 158.931 138.199 159.193 137.87C159.327 137.695 159.487 137.543 159.669 137.419C159.773 137.341 159.894 137.29 160.022 137.27C160.151 137.25 160.282 137.262 160.405 137.304C160.622 137.427 160.785 137.627 160.863 137.865C160.941 138.068 160.99 138.28 161.009 138.497C161.061 138.914 161.042 139.337 160.954 139.749C160.909 139.344 160.84 138.941 160.747 138.544C160.703 138.355 160.644 138.169 160.573 137.988C160.489 137.829 160.39 137.658 160.265 137.621C160.028 137.491 159.659 137.783 159.389 138.048C159.102 138.338 158.829 138.642 158.572 138.959Z" fill="white"/>
<path d="M149.116 119.763L146.17 123.004C146.17 123.004 146.192 127.148 144.092 127.322C144.092 127.322 143.027 128.284 143.786 128.48C144.464 128.648 146.907 128.043 147.964 128.167C147.964 128.167 152.973 127.177 153.826 127.716C154.083 127.889 154.299 128.117 154.459 128.382C154.619 128.647 154.719 128.944 154.752 129.252L155.161 129.208L170.962 130.148L177.816 119.763L149.116 119.763ZM169.474 127.031L147.3 126.66L150.195 122.006H172.413L169.474 127.031Z" fill="white"/>
<path d="M130.945 127.325C131.8 126.703 132.766 126.251 133.792 125.993C134.834 125.726 135.914 125.632 136.987 125.718C137.083 125.725 137.172 125.771 137.235 125.844C137.298 125.917 137.329 126.012 137.321 126.109C137.314 126.205 137.269 126.294 137.196 126.357C137.123 126.42 137.028 126.452 136.932 126.445C136.917 126.444 136.902 126.442 136.887 126.439C135.891 126.243 134.87 126.213 133.864 126.35C132.838 126.485 131.847 126.816 130.945 127.325Z" fill="white"/>
<path d="M136.937 134.847C138.988 134.885 141.039 134.956 143.092 135.151C143.599 135.196 144.13 135.279 144.62 135.336C145.116 135.39 145.615 135.4 146.112 135.366C147.096 135.299 148.063 135.067 148.97 134.681L148.994 134.67C149.083 134.631 149.183 134.629 149.273 134.664C149.364 134.699 149.436 134.768 149.475 134.857C149.514 134.945 149.517 135.045 149.482 135.135C149.447 135.226 149.377 135.298 149.289 135.337L149.268 135.345C148.263 135.711 147.203 135.903 146.133 135.911C145.605 135.916 145.078 135.874 144.557 135.787C144.033 135.694 143.555 135.589 143.045 135.512C141.026 135.199 138.981 135.006 136.937 134.847Z" fill="white"/>
<path d="M138.519 140.498C139.214 140.247 139.917 140.014 140.627 139.798C141.346 139.572 142.078 139.393 142.82 139.262C142.916 139.247 143.014 139.27 143.093 139.327C143.171 139.383 143.224 139.469 143.24 139.565C143.255 139.66 143.232 139.758 143.175 139.837C143.118 139.916 143.033 139.968 142.937 139.984C142.917 139.987 142.898 139.988 142.878 139.988H142.871C142.146 139.997 141.422 140.052 140.704 140.154C139.975 140.249 139.245 140.365 138.519 140.498Z" fill="white"/>
<path d="M141.264 122.098C141.637 122.484 142.076 122.802 142.56 123.036C143.05 123.262 143.564 123.432 144.093 123.544C143.814 123.609 143.525 123.623 143.24 123.588C142.952 123.549 142.671 123.468 142.407 123.347C142.148 123.213 141.911 123.039 141.707 122.83C141.503 122.625 141.351 122.374 141.264 122.098Z" fill="white"/>
<path d="M152.393 134.975C152.2 134.976 152.014 134.9 151.877 134.764C151.739 134.628 151.662 134.443 151.661 134.25C151.66 134.057 151.736 133.872 151.872 133.734C152.008 133.597 152.193 133.52 152.386 133.519L161.623 133.432C161.719 133.429 161.815 133.446 161.905 133.481C161.995 133.516 162.076 133.569 162.145 133.636C162.214 133.703 162.268 133.784 162.305 133.873C162.342 133.962 162.36 134.057 162.359 134.153C162.36 134.249 162.342 134.344 162.306 134.432C162.27 134.521 162.218 134.602 162.15 134.67C162.083 134.739 162.003 134.793 161.915 134.83C161.827 134.868 161.732 134.888 161.637 134.888L152.4 134.975H152.393Z" fill="white"/>
<path d="M177.776 134.739C177.582 134.74 177.397 134.663 177.26 134.526C177.123 134.39 177.046 134.205 177.046 134.012C177.046 133.819 177.122 133.633 177.259 133.497C177.396 133.36 177.581 133.283 177.775 133.283L203.236 133.25H203.237C203.43 133.249 203.616 133.326 203.752 133.462C203.889 133.599 203.966 133.784 203.966 133.977C203.966 134.17 203.89 134.356 203.753 134.492C203.616 134.629 203.431 134.706 203.238 134.706L177.777 134.739H177.776Z" fill="white"/>
<path d="M346.804 134.515C346.611 134.515 346.425 134.438 346.289 134.302C346.152 134.165 346.075 133.98 346.075 133.787C346.075 133.594 346.151 133.408 346.288 133.272C346.425 133.135 346.61 133.058 346.804 133.058L370.206 133.03H370.207C370.4 133.03 370.586 133.106 370.723 133.243C370.859 133.379 370.936 133.565 370.937 133.758C370.937 133.951 370.86 134.136 370.723 134.273C370.587 134.409 370.401 134.486 370.208 134.486L346.805 134.515H346.804Z" fill="white"/>
<path d="M213.516 134.139H211.785C211.739 134.139 211.694 134.121 211.662 134.088C211.629 134.056 211.61 134.012 211.609 133.966C211.609 133.943 211.613 133.921 211.621 133.9C211.63 133.879 211.642 133.86 211.658 133.844C211.674 133.828 211.693 133.815 211.714 133.806C211.734 133.798 211.757 133.793 211.779 133.793H213.516C213.539 133.793 213.562 133.797 213.583 133.806C213.604 133.814 213.623 133.827 213.639 133.843C213.655 133.859 213.668 133.878 213.677 133.899C213.686 133.92 213.69 133.943 213.69 133.966C213.69 133.989 213.686 134.011 213.677 134.032C213.668 134.053 213.655 134.072 213.639 134.088C213.623 134.104 213.604 134.117 213.583 134.126C213.562 134.134 213.539 134.139 213.516 134.139Z" fill="white"/>
<path d="M-11.2674 136.5C-11.4608 136.501 -11.6467 136.425 -11.784 136.289C-11.9214 136.153 -11.9991 135.968 -12 135.775C-12.0009 135.582 -11.9249 135.396 -11.7888 135.259C-11.6527 135.122 -11.4676 135.044 -11.2742 135.044L20.829 134.746C21.0208 134.749 21.204 134.826 21.3409 134.96C21.4778 135.094 21.558 135.275 21.5649 135.467C21.5659 135.562 21.5479 135.657 21.5121 135.746C21.4763 135.835 21.4233 135.916 21.3563 135.984C21.2892 136.052 21.2093 136.107 21.1211 136.144C21.033 136.181 20.9383 136.201 20.8425 136.202L-11.2607 136.5H-11.2674Z" fill="white"/>
<path d="M109.809 35.6988C110.078 35.6895 110.334 35.576 110.521 35.3822C110.709 35.1883 110.813 34.9294 110.813 34.6599C110.813 34.3905 110.709 34.1315 110.521 33.9377C110.334 33.7439 110.078 33.6304 109.809 33.6211C109.539 33.6304 109.283 33.7439 109.096 33.9377C108.908 34.1315 108.804 34.3905 108.804 34.6599C108.804 34.9294 108.908 35.1883 109.096 35.3822C109.283 35.576 109.539 35.6895 109.809 35.6988Z" fill="white"/>
</svg>
