<svg width="181" height="134" viewBox="0 0 181 134" fill="none" xmlns="http://www.w3.org/2000/svg">
<path d="M46.0212 103.701L34.3644 104.135C30.5403 104.251 26.7588 104.344 22.9986 104.414C19.2443 104.466 15.5025 104.525 11.7762 104.483C8.04776 104.455 4.31997 104.289 0.554657 104.185L1.10892 103.631C1.04897 105.781 0.951497 107.931 0.922501 110.081C0.86975 112.231 0.867796 114.381 0.855 116.532C0.852006 120.832 0.942366 125.133 1.06384 129.433L0.554657 128.924L9.85689 128.666C9.9517 128.663 10.0461 128.679 10.1346 128.713C10.2231 128.747 10.304 128.798 10.3724 128.864L10.3999 128.89L13.9525 132.306H12.7311L16.1663 128.773C16.2491 128.688 16.348 128.62 16.4573 128.573C16.5666 128.526 16.6842 128.501 16.8031 128.5L16.8266 128.5C21.7041 128.46 26.5816 128.36 31.4591 128.369C33.8979 128.356 36.3366 128.366 38.7754 128.399L46.0916 128.491L45.1495 129.433C45.2165 125.242 45.3374 121.05 45.5109 116.772L46.0212 103.701ZM46.1623 103.56L46.6726 116.291C46.8461 120.614 46.9669 125.023 47.034 129.433C47.0377 129.679 46.9435 129.916 46.7721 130.093C46.6008 130.27 46.3662 130.371 46.1201 130.375H46.1178L46.0916 130.375L38.7754 130.467C36.3366 130.497 33.8979 130.507 31.4591 130.497C26.5816 130.506 21.7041 130.406 16.8266 130.366L17.4865 130.093L13.9527 133.527L13.932 133.547C13.8522 133.625 13.758 133.686 13.6546 133.727C13.5512 133.768 13.4408 133.788 13.3295 133.786C13.2183 133.785 13.1085 133.761 13.0063 133.717C12.9042 133.673 12.8117 133.61 12.7342 133.53L12.731 133.527L9.31426 129.976L9.85695 130.2L0.554718 129.942L0.526207 129.941C0.394983 129.938 0.270564 129.882 0.180355 129.787C0.0901464 129.692 0.0415101 129.564 0.0451397 129.433V129.433C0.166743 125.133 0.257025 120.832 0.254101 116.532C0.241314 114.381 0.239382 112.231 0.18663 110.081C0.157624 107.931 0.0600385 105.781 0.000210091 103.631C-0.00176515 103.56 0.0102034 103.49 0.0354532 103.423C0.060703 103.357 0.0987362 103.297 0.147366 103.245C0.195996 103.194 0.254256 103.153 0.31886 103.124C0.383465 103.095 0.45315 103.079 0.523892 103.077H0.524227L0.554718 103.076C4.37889 102.972 8.24043 102.806 12.1016 102.778C15.9648 102.736 19.8125 102.795 23.6478 102.848C27.477 102.917 31.2851 103.01 35.0504 103.126L46.1623 103.56Z" fill="white"/>
<path d="M179.941 55.9731L162.785 56.2698L145.774 56.4841L111.988 56.7214L95.1793 56.6622L78.3801 56.4498C67.1703 56.2778 55.9033 56.1957 44.6422 56.224L44.9638 55.9027L45.0235 68.8037L45.172 81.7049L44.6422 81.1754C54.5669 81.0402 64.4918 80.9123 74.4165 80.8436L104.191 80.6795C114.116 80.6027 124.041 80.6909 133.965 80.6887C143.89 80.6765 153.815 80.8069 163.74 80.8863L163.754 80.8865C163.966 80.8884 164.17 80.9746 164.319 81.1262L167.773 84.6404H166.677L170.2 81.1961L170.213 81.1832C170.279 81.1192 170.356 81.0688 170.442 81.0348C170.527 81.0008 170.618 80.9839 170.709 80.9852L180.012 81.1203L179.427 81.7049C179.495 77.4707 179.551 73.2367 179.668 68.946L179.941 55.9731ZM180.082 55.8321L180.356 68.6612C180.473 72.9714 180.529 77.3382 180.596 81.7049C180.599 81.8575 180.54 82.0048 180.434 82.1144C180.328 82.2239 180.182 82.2869 180.03 82.2893H180.029L180.012 82.2895L170.709 82.4247L171.218 82.214L167.773 85.736C167.631 85.8812 167.436 85.9641 167.233 85.9663C167.03 85.9686 166.834 85.89 166.689 85.748L166.688 85.7468L166.676 85.736L163.161 82.2839L163.74 82.5236C153.815 82.603 143.89 82.7333 133.965 82.7212C124.04 82.719 114.116 82.8071 104.191 82.7304L74.4164 82.5662C64.4917 82.4975 54.5668 82.3697 44.6421 82.2345H44.6287C44.56 82.2336 44.4921 82.2193 44.429 82.1922C44.3658 82.1651 44.3086 82.1259 44.2606 82.0767C44.2127 82.0275 44.1748 81.9694 44.1494 81.9056C44.1239 81.8418 44.1112 81.7736 44.1121 81.7049L44.2606 68.8037L44.3202 55.9027C44.3204 55.8174 44.3543 55.7357 44.4147 55.6753C44.475 55.615 44.5568 55.5811 44.6421 55.5809C55.9425 55.6094 67.2372 55.5273 78.5889 55.3553L95.632 55.1429L112.666 55.0835L146.565 55.321L163.396 55.5351L180.082 55.8321Z" fill="white"/>
<path d="M85.9476 0.911833C78.628 1.1201 71.4336 1.26503 64.2796 1.38975C57.1111 1.53858 50.0277 1.60508 42.9477 1.65963C35.8694 1.71517 28.8386 1.67084 21.7929 1.51324C14.7435 1.39267 7.66156 1.1961 0.555532 1.16077L0.875127 0.841437C0.872132 2.99153 0.841496 5.14169 0.865501 7.2918L0.904856 13.7424C0.910097 18.0429 1.015 22.3432 1.07787 26.6437L0.555532 26.1214L9.85776 25.9473C9.94514 25.9455 10.032 25.9611 10.1133 25.993C10.1947 26.0248 10.269 26.0725 10.3319 26.1331L10.3506 26.1514L13.8909 29.5786H12.7943L16.2351 26.0517C16.3096 25.9752 16.3985 25.9141 16.4967 25.8721C16.5949 25.83 16.7005 25.8078 16.8074 25.8067L16.8275 25.8065L34.125 25.6562C39.891 25.6104 45.6569 25.5682 51.4228 25.5772C62.9545 25.5719 74.4863 25.7405 86.018 25.8939L85.2681 26.6437L85.5747 13.9261L85.9476 0.911833ZM86.0887 0.770805L86.4616 13.5588L86.7682 26.6437C86.7727 26.8379 86.6999 27.0259 86.5657 27.1664C86.4316 27.3069 86.2471 27.3884 86.0529 27.393L86.0454 27.3932L86.018 27.3935C74.4863 27.5469 62.9544 27.7155 51.4227 27.7101C45.6569 27.7194 39.891 27.677 34.125 27.6314L16.8274 27.4809L17.4194 27.2358L13.8911 30.675L13.8753 30.6904C13.7304 30.8316 13.5353 30.9096 13.3329 30.9071C13.1304 30.9046 12.9373 30.8218 12.796 30.677L12.7942 30.675L9.36524 27.1362L9.85773 27.3401L0.555502 27.1659L0.538078 27.1657C0.470587 27.1646 0.403975 27.1503 0.342033 27.1235C0.28009 27.0967 0.224054 27.0579 0.177118 27.0094C0.130182 26.961 0.0932575 26.9037 0.0684949 26.8409C0.0437324 26.7782 0.0316029 26.7111 0.0327949 26.6437C0.0956776 22.3432 0.200694 18.0429 0.205934 13.7424L0.245289 7.29182C0.269245 5.14172 0.238588 2.99157 0.235664 0.841444C0.235727 0.756662 0.269459 0.675367 0.329422 0.615405C0.389385 0.555443 0.470684 0.521715 0.555502 0.521617C7.69319 0.486298 14.855 0.289722 22.0494 0.169416C29.2475 0.011576 36.4603 -0.032509 43.6259 0.022755C50.7896 0.0775599 57.9501 0.14406 65.0252 0.292891C72.1151 0.417367 79.1646 0.562542 86.0887 0.770797V0.770805Z" fill="white"/>
</svg>
