<svg width="315" height="269" viewBox="0 0 315 269" fill="none" xmlns="http://www.w3.org/2000/svg">
<path d="M272.296 148.005C274.634 144.909 275.107 142.882 276.508 139.292C277.912 135.697 278.974 131.978 279.678 128.184C280.373 124.392 280.779 120.553 280.892 116.699C280.97 112.86 280.819 108.953 280.937 105.069C281.069 101.183 281.296 97.2974 281.74 93.4312C282.132 89.5572 282.757 85.7104 283.612 81.9118C284.45 78.1057 285.611 74.3781 287.084 70.7698C288.53 67.1464 290.636 63.8224 293.293 60.9658C290.801 63.9299 288.854 67.3126 287.544 70.9567C286.175 74.567 285.115 78.2866 284.374 82.0758C282.888 89.663 282.076 97.3668 281.949 105.097C281.8 108.965 281.921 112.814 281.812 116.728C281.687 120.629 281.228 124.513 280.439 128.335C279.638 132.152 278.475 135.884 276.964 139.48C276.196 141.268 275.323 143.01 274.35 144.696C273.826 145.891 273.135 147.006 272.296 148.005Z" fill="#2E2E2E"/>
<path d="M274.468 143.935C273.276 143.231 272.168 142.393 271.166 141.438C270.672 140.96 270.193 140.461 269.718 139.948C269.287 139.413 268.848 138.871 268.443 138.302C268.036 137.736 267.53 137.196 267.071 136.619C266.631 136.048 266.391 135.347 266.388 134.626C266.381 133.848 266.532 133.076 266.833 132.359C267.201 131.469 267.769 130.676 268.492 130.04L269.163 129.944C269.999 130.312 270.787 130.779 271.51 131.336C272.03 131.735 272.494 132.202 272.89 132.724C273.231 133.185 273.402 133.749 273.372 134.321C273.328 134.927 273.341 135.535 273.412 136.138C273.494 136.729 273.616 137.315 273.736 137.91C273.84 138.515 273.955 139.126 274.094 139.735C274.335 140.974 274.661 142.218 274.991 143.505L274.468 143.935Z" fill="#2E2E2E"/>
<path d="M277.721 134.206C276.53 133.501 275.422 132.664 274.419 131.709C273.926 131.23 273.447 130.732 272.972 130.219C272.541 129.683 272.102 129.142 271.697 128.573C271.29 128.007 270.784 127.466 270.325 126.89C269.884 126.318 269.645 125.618 269.642 124.897C269.634 124.118 269.786 123.347 270.087 122.629C270.455 121.739 271.023 120.946 271.746 120.31L272.417 120.215C273.253 120.582 274.041 121.049 274.764 121.607C275.284 122.006 275.748 122.473 276.144 122.995C276.485 123.455 276.655 124.02 276.625 124.591C276.582 125.197 276.595 125.805 276.666 126.408C276.748 127 276.87 127.585 276.99 128.181C277.093 128.786 277.208 129.396 277.347 130.006C277.589 131.245 277.914 132.488 278.244 133.775L277.721 134.206Z" fill="#2E2E2E"/>
<path d="M280.894 123.754C279.702 123.049 278.594 122.212 277.592 121.257C277.098 120.778 276.619 120.28 276.145 119.766C275.713 119.231 275.275 118.69 274.869 118.121C274.463 117.555 273.956 117.014 273.497 116.438C273.057 115.866 272.817 115.166 272.815 114.444C272.807 113.666 272.958 112.895 273.259 112.177C273.628 111.287 274.195 110.494 274.919 109.858L275.589 109.763C276.425 110.13 277.213 110.597 277.936 111.155C278.456 111.554 278.92 112.02 279.317 112.543C279.658 113.003 279.828 113.567 279.798 114.139C279.754 114.745 279.767 115.353 279.838 115.956C279.92 116.548 280.042 117.133 280.163 117.729C280.266 118.334 280.381 118.944 280.52 119.554C280.761 120.793 281.087 122.036 281.417 123.323L280.894 123.754Z" fill="#2E2E2E"/>
<path d="M281.518 110C280.326 109.295 279.218 108.458 278.215 107.503C277.722 107.024 277.243 106.526 276.768 106.013C276.337 105.477 275.898 104.936 275.493 104.367C275.086 103.801 274.58 103.26 274.121 102.684C273.68 102.112 273.441 101.412 273.438 100.691C273.43 99.9124 273.582 99.1408 273.882 98.4231C274.251 97.5334 274.819 96.7401 275.542 96.1042L276.213 96.0088C277.049 96.3761 277.837 96.8434 278.56 97.4007C279.08 97.7998 279.544 98.2666 279.94 98.7888C280.281 99.249 280.451 99.8135 280.421 100.385C280.377 100.991 280.391 101.599 280.462 102.202C280.544 102.794 280.666 103.379 280.786 103.975C280.889 104.58 281.004 105.19 281.143 105.8C281.385 107.039 281.71 108.282 282.04 109.569L281.518 110Z" fill="#2E2E2E"/>
<path d="M282.107 95.947C280.916 95.2426 279.808 94.4048 278.805 93.45C278.311 92.9715 277.833 92.4729 277.358 91.9597C276.927 91.4246 276.488 90.883 276.083 90.3138C275.676 89.7482 275.17 89.2071 274.711 88.631C274.27 88.0597 274.03 87.3591 274.028 86.6378C274.02 85.8596 274.172 85.088 274.472 84.3703C274.841 83.4807 275.409 82.6875 276.132 82.0515L276.803 81.9561C277.639 82.3232 278.427 82.7906 279.15 83.3479C279.67 83.747 280.134 84.2138 280.53 84.7359C280.871 85.1962 281.041 85.7608 281.011 86.3328C280.967 86.9383 280.981 87.5466 281.052 88.1496C281.134 88.741 281.256 89.3267 281.376 89.922C281.479 90.527 281.594 91.1375 281.733 91.747C281.974 92.9859 282.3 94.2296 282.63 95.5164L282.107 95.947Z" fill="#2E2E2E"/>
<path d="M284.344 82.8231C283.152 82.1186 282.045 81.2809 281.042 80.326C280.548 79.8476 280.069 79.349 279.595 78.8358C279.163 78.3005 278.725 77.7591 278.32 77.1899C277.913 76.6242 277.406 76.0832 276.947 75.5071C276.507 74.9357 276.267 74.2351 276.265 73.5138C276.257 72.7356 276.408 71.964 276.709 71.2464C277.078 70.3567 277.646 69.5634 278.369 68.9275L279.039 68.832C279.875 69.1993 280.663 69.6666 281.386 70.2239C281.906 70.623 282.371 71.0899 282.767 71.612C283.108 72.0722 283.278 72.6368 283.248 73.2087C283.204 73.8143 283.218 74.4227 283.288 75.0257C283.371 75.6169 283.493 76.2027 283.613 76.7981C283.716 77.4029 283.831 78.0135 283.97 78.6229C284.211 79.8619 284.537 81.1055 284.867 82.3923L284.344 82.8231Z" fill="#2E2E2E"/>
<path d="M287.36 70.9861C286.168 70.2816 285.06 69.4439 284.058 68.4891C283.564 68.0107 283.085 67.5121 282.611 66.9989C282.179 66.4636 281.741 65.9221 281.335 65.353C280.929 64.7873 280.422 64.2463 279.963 63.6702C279.523 63.0988 279.283 62.3982 279.281 61.6768C279.273 60.8987 279.424 60.1272 279.725 59.4095C280.094 58.5198 280.661 57.7265 281.385 57.0906L282.055 56.9951C282.891 57.3624 283.679 57.8298 284.402 58.387C284.922 58.7861 285.386 59.2529 285.783 59.7751C286.124 60.2353 286.294 60.7998 286.264 61.3718C286.22 61.9774 286.233 62.5857 286.304 63.1888C286.386 63.78 286.508 64.3658 286.628 64.9612C286.732 65.566 286.847 66.1766 286.986 66.786C287.227 68.025 287.553 69.2686 287.883 70.5554L287.36 70.9861Z" fill="#2E2E2E"/>
<path d="M274.05 142.776C275.139 142.014 276.195 141.282 277.185 140.499C277.688 140.127 278.172 139.738 278.644 139.346C279.123 138.973 279.597 138.607 280.045 138.212C280.491 137.8 280.897 137.347 281.258 136.859C281.608 136.406 282.104 136.088 282.663 135.96C283.304 135.822 283.96 135.77 284.615 135.806C285.526 135.853 286.428 136.012 287.302 136.277L287.749 136.786C287.884 137.74 287.798 138.712 287.499 139.627C287.26 140.368 286.872 141.052 286.36 141.637C285.888 142.183 285.25 142.559 284.544 142.706C283.821 142.844 283.084 142.925 282.407 143.09C281.729 143.258 281.043 143.383 280.367 143.509C279.673 143.589 278.985 143.656 278.299 143.698C276.916 143.77 275.53 143.685 274.167 143.443L274.05 142.776Z" fill="#2E2E2E"/>
<path d="M278.443 133.658C279.231 132.588 280 131.558 280.688 130.499C281.045 129.987 281.381 129.464 281.703 128.942C282.038 128.435 282.37 127.938 282.668 127.42C282.96 126.888 283.201 126.329 283.387 125.751C283.574 125.209 283.943 124.75 284.432 124.451C284.995 124.116 285.6 123.857 286.232 123.682C287.111 123.436 288.017 123.299 288.93 123.271L289.516 123.611C289.948 124.472 290.177 125.42 290.185 126.383C290.195 127.162 290.045 127.934 289.746 128.652C289.474 129.32 288.989 129.879 288.366 130.244C287.725 130.606 287.052 130.918 286.463 131.29C285.874 131.665 285.265 132.003 284.664 132.337C284.032 132.635 283.401 132.918 282.764 133.176C281.476 133.685 280.135 134.047 278.766 134.253L278.443 133.658Z" fill="#2E2E2E"/>
<path d="M280.328 123.279C280.958 122.109 281.573 120.981 282.106 119.836C282.387 119.278 282.646 118.713 282.891 118.151C283.151 117.602 283.41 117.062 283.632 116.508C283.846 115.94 284.006 115.353 284.109 114.754C284.217 114.192 284.518 113.685 284.96 113.32C285.47 112.909 286.033 112.567 286.634 112.305C287.469 111.938 288.347 111.674 289.246 111.519L289.874 111.773C290.423 112.564 290.784 113.47 290.927 114.423C291.047 115.192 291.008 115.977 290.813 116.73C290.638 117.43 290.236 118.052 289.671 118.501C289.087 118.95 288.466 119.353 287.935 119.804C287.404 120.259 286.848 120.679 286.301 121.095C285.717 121.479 285.132 121.848 284.538 122.193C283.335 122.879 282.058 123.426 280.732 123.823L280.328 123.279Z" fill="#2E2E2E"/>
<path d="M281.498 108.811C282.127 107.642 282.743 106.513 283.275 105.368C283.557 104.81 283.815 104.245 284.061 103.683C284.321 103.134 284.58 102.595 284.802 102.04C285.016 101.472 285.175 100.885 285.278 100.287C285.387 99.7242 285.687 99.2171 286.129 98.8525C286.639 98.441 287.202 98.0995 287.803 97.8373C288.639 97.4703 289.516 97.2062 290.416 97.0508L291.044 97.3048C291.593 98.0959 291.953 99.0025 292.097 99.9547C292.216 100.724 292.178 101.509 291.983 102.262C291.807 102.962 291.406 103.584 290.841 104.033C290.257 104.482 289.635 104.885 289.104 105.336C288.574 105.791 288.018 106.211 287.47 106.627C286.886 107.011 286.302 107.38 285.707 107.725C284.505 108.411 283.228 108.958 281.902 109.355L281.498 108.811Z" fill="#2E2E2E"/>
<path d="M282.317 94.9488C282.947 93.7793 283.563 92.6505 284.095 91.506C284.376 90.9478 284.635 90.383 284.88 89.8205C285.14 89.2717 285.4 88.7325 285.622 88.1782C285.835 87.6099 285.995 87.0227 286.098 86.4243C286.206 85.862 286.507 85.3549 286.949 84.9903C287.459 84.5788 288.022 84.2373 288.623 83.975C289.459 83.608 290.336 83.3439 291.235 83.1885L291.863 83.4425C292.413 84.2336 292.773 85.1402 292.917 86.0925C293.036 86.8615 292.997 87.6468 292.802 88.4003C292.627 89.0999 292.225 89.7222 291.66 90.1708C291.077 90.6196 290.455 91.0229 289.924 91.4742C289.394 91.9291 288.838 92.3492 288.29 92.7649C287.706 93.1489 287.121 93.5177 286.527 93.8632C285.324 94.549 284.047 95.0956 282.721 95.4927L282.317 94.9488Z" fill="#2E2E2E"/>
<path d="M283.731 81.8256C284.669 80.8854 285.582 79.9802 286.42 79.0361C286.849 78.582 287.259 78.1149 287.655 77.6463C288.062 77.1948 288.464 76.7525 288.836 76.2852C289.203 75.8018 289.524 75.2849 289.795 74.7412C290.06 74.2334 290.493 73.8338 291.021 73.6109C291.628 73.3629 292.265 73.197 292.915 73.1177C293.821 73.0055 294.737 73.0037 295.644 73.1124L296.173 73.5357C296.472 74.451 296.558 75.4228 296.423 76.3764C296.317 77.1474 296.055 77.8887 295.652 78.5547C295.284 79.1747 294.721 79.656 294.051 79.9239C293.363 80.1868 292.652 80.3949 292.014 80.6753C291.376 80.9593 290.723 81.2025 290.079 81.444C289.41 81.6447 288.743 81.8305 288.075 81.9913C286.726 82.3038 285.346 82.4619 283.962 82.4624L283.731 81.8256Z" fill="#2E2E2E"/>
<path d="M286.745 70.5055C287.375 69.3359 287.99 68.2071 288.523 67.0625C288.804 66.5044 289.063 65.9395 289.308 65.3772C289.568 64.8282 289.827 64.289 290.049 63.7348C290.263 63.1665 290.423 62.5793 290.526 61.981C290.634 61.4186 290.935 60.9115 291.377 60.5468C291.887 60.1353 292.45 59.7939 293.051 59.5317C293.886 59.1646 294.764 58.9005 295.663 58.7451L296.291 58.9991C296.84 59.7902 297.201 60.6968 297.344 61.649C297.464 62.418 297.425 63.2034 297.23 63.9568C297.054 64.6565 296.653 65.2788 296.088 65.7273C295.504 66.1762 294.883 66.5794 294.352 67.0307C293.821 67.4857 293.265 67.9057 292.718 68.3215C292.134 68.7055 291.549 69.0744 290.955 69.4198C289.752 70.1056 288.475 70.6523 287.149 71.0493L286.745 70.5055Z" fill="#2E2E2E"/>
<path d="M310.831 121.541C308.189 124.034 305.993 126.96 304.337 130.193C304.25 130.338 304.173 130.493 304.096 130.648C304.066 130.694 304.04 130.743 304.018 130.793C304.008 130.803 304.008 130.812 303.999 130.822C302.401 133.911 301.048 137.121 299.953 140.422V140.432C299.932 140.501 299.906 140.569 299.876 140.635V140.654C299.779 140.945 299.692 141.226 299.595 141.516C299.557 141.642 299.518 141.767 299.479 141.893C299.44 141.99 299.411 142.091 299.392 142.193C298.87 143.838 298.386 145.503 297.94 147.168H297.031C297.524 145.319 298.086 143.471 298.724 141.661C298.773 141.535 298.812 141.4 298.86 141.274C299.121 140.529 299.392 139.793 299.682 139.058V139.048C300.747 136.178 302.022 133.389 303.495 130.706C303.515 130.677 303.525 130.657 303.544 130.629C303.554 130.619 303.554 130.599 303.563 130.59C303.776 130.212 303.999 129.845 304.241 129.467V129.457C305.962 126.457 308.192 123.778 310.831 121.541Z" fill="#2E2E2E"/>
<path d="M299.484 142.258C298.379 141.425 297.372 140.468 296.483 139.407C296.046 138.876 295.626 138.327 295.212 137.764C294.843 137.183 294.468 136.596 294.13 135.985C293.789 135.377 293.346 134.783 292.955 134.159C292.581 133.542 292.421 132.819 292.5 132.102C292.58 131.328 292.816 130.578 293.196 129.898C293.662 129.056 294.315 128.331 295.105 127.78L295.782 127.761C296.572 128.219 297.302 128.772 297.958 129.407C298.43 129.862 298.839 130.378 299.174 130.941C299.462 131.437 299.567 132.017 299.473 132.582C299.362 133.179 299.307 133.785 299.31 134.392C299.325 134.989 299.381 135.584 299.433 136.189C299.468 136.802 299.514 137.422 299.583 138.043C299.684 139.301 299.869 140.573 300.052 141.889L299.484 142.258Z" fill="#2E2E2E"/>
<path d="M303.809 130.835C302.703 130.001 301.696 129.044 300.807 127.983C300.37 127.452 299.95 126.903 299.536 126.34C299.168 125.76 298.792 125.172 298.454 124.561C298.113 123.954 297.67 123.359 297.279 122.735C296.905 122.118 296.746 121.395 296.824 120.678C296.904 119.904 297.14 119.154 297.52 118.475C297.986 117.632 298.639 116.907 299.429 116.357L300.107 116.337C300.896 116.796 301.626 117.348 302.282 117.983C302.754 118.438 303.163 118.954 303.498 119.517C303.786 120.013 303.891 120.593 303.797 121.158C303.686 121.755 303.631 122.361 303.634 122.968C303.649 123.565 303.705 124.16 303.757 124.766C303.792 125.378 303.838 125.998 303.908 126.619C304.008 127.877 304.193 129.15 304.376 130.465L303.809 130.835Z" fill="#2E2E2E"/>
<path d="M298.987 141.199C300.025 140.37 301.033 139.573 301.972 138.728C302.45 138.325 302.909 137.907 303.355 137.486C303.81 137.083 304.26 136.689 304.681 136.266C305.101 135.827 305.478 135.349 305.807 134.839C306.127 134.364 306.603 134.016 307.152 133.853C307.783 133.675 308.435 133.582 309.09 133.576C310.003 133.566 310.913 133.667 311.802 133.877L312.28 134.356C312.475 135.3 312.451 136.275 312.21 137.207C312.018 137.962 311.675 138.669 311.2 139.285C310.764 139.86 310.151 140.275 309.455 140.466C308.742 140.65 308.012 140.778 307.347 140.984C306.681 141.195 306.004 141.364 305.338 141.531C304.65 141.656 303.968 141.766 303.285 141.851C301.91 142.01 300.521 142.012 299.145 141.857L298.987 141.199Z" fill="#2E2E2E"/>
<path d="M303.252 130.288C304.009 129.196 304.747 128.143 305.404 127.066C305.747 126.543 306.067 126.01 306.374 125.479C306.694 124.963 307.012 124.456 307.295 123.93C307.571 123.389 307.795 122.824 307.965 122.241C308.136 121.694 308.491 121.224 308.971 120.911C309.524 120.56 310.122 120.283 310.748 120.09C311.62 119.819 312.521 119.655 313.433 119.602L314.028 119.924C314.485 120.772 314.742 121.713 314.778 122.676C314.81 123.453 314.683 124.229 314.405 124.956C314.152 125.632 313.684 126.205 313.072 126.587C312.441 126.968 311.778 127.299 311.2 127.688C310.622 128.08 310.023 128.436 309.432 128.787C308.809 129.103 308.186 129.404 307.557 129.681C306.285 130.227 304.955 130.627 303.592 130.873L303.252 130.288Z" fill="#2E2E2E"/>
<path d="M257.894 147.613C257.933 147.739 257.971 147.864 258.02 147.99L257.382 147.458C257.141 147.41 256.94 147.202 256.708 147.144C256.224 145.702 256.113 145.319 255.688 143.868C255.668 143.809 255.659 143.751 255.639 143.693C254.778 140.713 253.975 137.713 253.297 134.683C253.133 133.977 252.978 133.261 252.833 132.554C252.765 132.206 252.687 131.867 252.62 131.519V131.509C251.919 128.182 251.402 124.819 251.071 121.435C251.052 121.299 251.042 121.164 251.033 121.028C250.965 120.235 250.897 119.441 250.849 118.647V118.638C250.639 115.593 250.642 112.537 250.858 109.492C250.857 109.463 250.86 109.434 250.868 109.405V109.357C250.907 108.912 250.955 108.486 251.013 108.041V108.031C251.337 104.593 252.253 101.236 253.723 98.1113C252.361 101.472 251.579 105.038 251.41 108.66C251.391 108.844 251.381 109.018 251.371 109.202V109.212C251.371 109.26 251.362 109.309 251.362 109.357V109.396C251.195 112.86 251.305 116.333 251.691 119.78C251.691 119.874 251.7 119.968 251.72 120.06C251.739 120.36 251.778 120.651 251.807 120.951C251.826 121.077 251.836 121.202 251.855 121.328C251.863 121.432 251.876 121.535 251.894 121.638C252.375 125.561 253.06 129.457 253.945 133.309V133.329C253.984 133.522 254.023 133.687 254.081 133.88C254.081 133.921 254.091 133.96 254.11 133.996C254.133 134.15 254.165 134.302 254.207 134.451C254.923 137.519 255.746 140.558 256.655 143.577C256.936 144.545 257.226 145.493 257.526 146.451V146.461C257.604 146.722 257.691 146.964 257.768 147.226V147.235C257.807 147.361 257.855 147.487 257.894 147.613Z" fill="#2E2E2E"/>
<path d="M258.136 147.807L258.291 147.11L257.383 147.644C257.141 147.596 256.781 147.284 256.549 147.226C255.436 146.936 254.904 147.507 253.859 147.032C253.239 146.732 252.63 146.403 252.02 146.065C251.439 145.687 250.859 145.31 250.297 144.894C249.736 144.487 249.078 144.129 248.468 143.723C247.872 143.316 247.426 142.724 247.2 142.039C246.951 141.301 246.856 140.521 246.92 139.745C246.987 138.784 247.279 137.853 247.772 137.026L248.381 136.726C249.288 136.818 250.181 137.016 251.042 137.316C251.659 137.537 252.244 137.837 252.784 138.206C253.253 138.54 253.591 139.026 253.743 139.581C253.887 140.169 254.088 140.743 254.343 141.293C254.604 141.826 254.904 142.348 255.204 142.881C255.349 143.152 255.485 143.423 255.639 143.694C255.794 143.965 255.949 144.236 256.114 144.497C256.53 145.252 256.994 145.997 257.468 146.761C257.565 146.916 257.662 147.071 257.768 147.226V147.236C257.846 147.352 257.923 147.468 258.001 147.594C258.049 147.661 258.088 147.739 258.136 147.807Z" fill="#2E2E2E"/>
<path d="M253.964 134.835C252.612 134.536 251.299 134.084 250.05 133.488C249.432 133.187 248.821 132.862 248.211 132.521C247.634 132.147 247.049 131.768 246.487 131.353C245.925 130.942 245.275 130.585 244.66 130.18C244.064 129.774 243.618 129.183 243.392 128.498C243.143 127.761 243.047 126.98 243.11 126.205C243.184 125.244 243.477 124.314 243.967 123.485L244.575 123.186C245.483 123.275 246.377 123.474 247.238 123.779C247.856 123.997 248.442 124.296 248.981 124.67C249.448 125.001 249.785 125.485 249.935 126.038C250.081 126.627 250.283 127.201 250.538 127.752C250.799 128.289 251.097 128.808 251.397 129.336C251.683 129.879 251.982 130.424 252.303 130.96C252.918 132.062 253.614 133.143 254.327 134.264L253.964 134.835Z" fill="#2E2E2E"/>
<path d="M252.012 121.666C250.66 121.367 249.347 120.915 248.097 120.319C247.479 120.018 246.869 119.693 246.259 119.352C245.682 118.978 245.097 118.599 244.535 118.184C243.973 117.773 243.323 117.416 242.708 117.011C242.112 116.605 241.666 116.014 241.44 115.329C241.191 114.592 241.094 113.811 241.157 113.036C241.231 112.075 241.525 111.145 242.014 110.316L242.622 110.017C243.531 110.106 244.425 110.305 245.285 110.61C245.903 110.828 246.49 111.128 247.029 111.501C247.496 111.832 247.833 112.316 247.982 112.869C248.129 113.458 248.331 114.032 248.585 114.583C248.847 115.12 249.145 115.639 249.444 116.167C249.73 116.71 250.029 117.255 250.351 117.791C250.965 118.893 251.662 119.974 252.375 121.095L252.012 121.666Z" fill="#2E2E2E"/>
<path d="M251.2 109.479C249.848 109.18 248.535 108.728 247.285 108.132C246.667 107.831 246.057 107.505 245.447 107.165C244.87 106.79 244.285 106.412 243.723 105.997C243.161 105.586 242.511 105.229 241.896 104.824C241.3 104.418 240.854 103.826 240.628 103.141C240.379 102.404 240.282 101.624 240.345 100.848C240.419 99.8878 240.713 98.9574 241.203 98.1282L241.81 97.8291C242.719 97.9185 243.613 98.1179 244.473 98.4229C245.092 98.6406 245.678 98.94 246.217 99.3131C246.684 99.6447 247.021 100.128 247.17 100.681C247.317 101.271 247.519 101.845 247.773 102.396C248.035 102.932 248.333 103.451 248.632 103.98C248.919 104.523 249.217 105.067 249.539 105.603C250.154 106.706 250.85 107.787 251.563 108.907L251.2 109.479Z" fill="#2E2E2E"/>
<path d="M257.383 147.252C257.618 145.945 257.852 144.681 258.002 143.427C258.097 142.809 258.167 142.192 258.225 141.581C258.302 140.979 258.381 140.386 258.42 139.79C258.446 139.183 258.415 138.576 258.327 137.975C258.255 137.407 258.384 136.831 258.69 136.347C259.047 135.798 259.476 135.298 259.966 134.862C260.646 134.254 261.398 133.73 262.205 133.303L262.881 133.349C263.648 133.93 264.273 134.68 264.705 135.54C265.058 136.234 265.265 136.993 265.314 137.769C265.364 138.489 265.176 139.205 264.779 139.807C264.363 140.415 263.897 140.992 263.533 141.586C263.17 142.183 262.772 142.755 262.381 143.32C261.945 143.867 261.504 144.399 261.047 144.912C260.117 145.938 259.073 146.854 257.936 147.644L257.383 147.252Z" fill="#2E2E2E"/>
<path d="M253.854 133.822C254.089 132.514 254.323 131.25 254.473 129.997C254.568 129.379 254.638 128.761 254.697 128.151C254.773 127.548 254.852 126.955 254.891 126.359C254.917 125.753 254.886 125.145 254.798 124.544C254.727 123.976 254.855 123.401 255.161 122.917C255.519 122.367 255.948 121.868 256.437 121.432C257.118 120.823 257.869 120.299 258.676 119.872L259.352 119.918C260.12 120.5 260.744 121.249 261.177 122.11C261.529 122.804 261.736 123.562 261.785 124.339C261.835 125.058 261.647 125.775 261.25 126.377C260.834 126.985 260.368 127.561 260.004 128.155C259.641 128.752 259.244 129.324 258.852 129.89C258.417 130.436 257.975 130.968 257.518 131.482C256.588 132.507 255.544 133.423 254.407 134.213L253.854 133.822Z" fill="#2E2E2E"/>
<path d="M251.119 120.91C251.719 119.724 252.305 118.58 252.808 117.422C253.075 116.857 253.32 116.286 253.551 115.718C253.797 115.162 254.042 114.617 254.25 114.057C254.449 113.483 254.593 112.892 254.681 112.292C254.775 111.727 255.063 111.212 255.495 110.836C255.995 110.412 256.549 110.056 257.143 109.779C257.969 109.391 258.839 109.104 259.735 108.926L260.369 109.164C260.938 109.941 261.321 110.838 261.489 111.786C261.628 112.552 261.61 113.338 261.434 114.096C261.276 114.8 260.891 115.432 260.338 115.895C259.765 116.359 259.154 116.778 258.635 117.242C258.116 117.711 257.571 118.145 257.034 118.574C256.461 118.973 255.885 119.357 255.3 119.717C254.115 120.433 252.853 121.012 251.537 121.443L251.119 120.91Z" fill="#2E2E2E"/>
<path d="M250.466 109.213C250.701 107.906 250.936 106.642 251.086 105.388C251.18 104.77 251.25 104.153 251.309 103.542C251.385 102.94 251.464 102.347 251.503 101.751C251.529 101.144 251.499 100.537 251.41 99.9358C251.339 99.3676 251.467 98.7922 251.774 98.3083C252.131 97.7586 252.56 97.2592 253.049 96.8232C253.73 96.2146 254.482 95.691 255.288 95.2637L255.964 95.31C256.732 95.8913 257.356 96.641 257.789 97.5014C258.141 98.1953 258.348 98.9537 258.397 99.7304C258.448 100.45 258.26 101.166 257.862 101.768C257.447 102.376 256.981 102.953 256.616 103.547C256.254 104.144 255.856 104.716 255.465 105.281C255.029 105.828 254.588 106.36 254.13 106.873C253.2 107.899 252.156 108.815 251.019 109.605L250.466 109.213Z" fill="#2E2E2E"/>
<path d="M231.561 146.984C231.582 147.051 231.598 147.119 231.61 147.187V147.197C231.464 147.304 231.319 147.41 231.174 147.507L230.864 147.294C230.821 147.286 230.779 147.273 230.739 147.255C230.74 147.235 230.737 147.215 230.729 147.197C230.709 147.091 230.69 147.004 230.661 146.897V146.887C230.477 145.997 230.274 145.126 230.061 144.245V144.236C229.771 143.045 229.451 141.865 229.113 140.684C228.426 138.448 227.661 136.213 226.916 133.958C226.432 132.516 225.967 131.074 225.542 129.622C225.522 129.545 225.493 129.468 225.474 129.39V129.38C224.612 126.419 223.819 123.438 223.151 120.429C222.987 119.722 222.832 119.016 222.687 118.309C222.619 117.961 222.542 117.622 222.474 117.274V117.264C221.778 113.936 221.261 110.573 220.925 107.189C220.906 107.054 220.896 106.909 220.887 106.773C220.819 105.98 220.751 105.196 220.703 104.402V104.393C220.493 101.344 220.496 98.2852 220.712 95.2375C220.711 95.2081 220.714 95.1786 220.722 95.1503V95.102C220.761 94.6664 220.809 94.2406 220.867 93.7955V93.7858C221.189 90.3442 222.106 86.9845 223.577 83.8564C222.217 87.2234 221.438 90.7968 221.274 94.4245C221.254 94.5987 221.245 94.7633 221.235 94.9374V94.9471C221.237 94.9957 221.233 95.0443 221.225 95.0923V95.1406C221.056 98.605 221.163 102.077 221.545 105.525C221.545 105.619 221.555 105.713 221.574 105.805V105.815C221.593 106.115 221.632 106.396 221.661 106.696C221.68 106.822 221.69 106.957 221.709 107.083C221.719 107.18 221.729 107.286 221.748 107.383C222.233 111.309 222.918 115.208 223.8 119.064V119.074C223.838 119.258 223.877 119.422 223.925 119.606C223.934 119.652 223.947 119.698 223.964 119.742V119.751C223.987 119.901 224.02 120.05 224.061 120.196V120.206C224.777 123.274 225.609 126.313 226.509 129.332C226.79 130.3 227.08 131.258 227.371 132.216C227.38 132.226 227.38 132.235 227.371 132.235C227.458 132.477 227.545 132.729 227.622 132.971V132.981C227.661 133.116 227.709 133.242 227.748 133.368C227.787 133.494 227.826 133.619 227.864 133.736V133.745C228.58 135.961 229.326 138.168 229.993 140.432C230.371 141.816 230.729 143.2 231.058 144.594C231.203 145.223 231.339 145.852 231.464 146.491V146.5C231.507 146.659 231.539 146.821 231.561 146.984Z" fill="#2E2E2E"/>
<path d="M231.667 146.819L231.561 146.984L231.309 147.39C231.154 147.361 231.009 147.323 230.864 147.294C230.821 147.285 230.779 147.272 230.738 147.255C229.586 146.959 228.465 146.554 227.39 146.045C226.771 145.745 226.161 145.416 225.551 145.077C224.98 144.7 224.39 144.322 223.829 143.906C223.267 143.5 222.619 143.142 221.999 142.735C221.406 142.326 220.961 141.735 220.732 141.051C220.482 140.314 220.387 139.533 220.451 138.758C220.528 137.798 220.823 136.868 221.312 136.038L221.922 135.738C222.83 135.83 223.724 136.031 224.583 136.338C225.203 136.552 225.789 136.852 226.325 137.229C226.791 137.559 227.126 138.042 227.274 138.593C227.426 139.181 227.63 139.754 227.884 140.306C228.145 140.848 228.445 141.361 228.735 141.893C229.025 142.435 229.326 142.977 229.645 143.519C229.78 143.761 229.916 143.993 230.061 144.235V144.245C230.332 144.69 230.603 145.135 230.893 145.59C231.077 145.89 231.271 146.181 231.464 146.49V146.5C231.532 146.606 231.6 146.713 231.667 146.819Z" fill="#2E2E2E"/>
<path d="M227.626 134.124C226.274 133.825 224.961 133.373 223.712 132.777C223.094 132.476 222.484 132.151 221.873 131.81C221.296 131.436 220.711 131.057 220.15 130.642C219.587 130.231 218.938 129.874 218.322 129.469C217.726 129.063 217.28 128.472 217.054 127.787C216.805 127.05 216.709 126.269 216.772 125.494C216.846 124.533 217.139 123.603 217.629 122.774L218.237 122.475C219.145 122.564 220.039 122.763 220.9 123.068C221.518 123.286 222.104 123.586 222.643 123.959C223.11 124.29 223.447 124.774 223.597 125.327C223.743 125.916 223.945 126.49 224.2 127.041C224.462 127.578 224.76 128.097 225.059 128.625C225.345 129.168 225.644 129.713 225.965 130.249C226.58 131.351 227.276 132.432 227.989 133.553L227.626 134.124Z" fill="#2E2E2E"/>
<path d="M223.82 120.583C222.468 120.284 221.155 119.832 219.905 119.236C219.287 118.935 218.677 118.61 218.067 118.269C217.49 117.895 216.905 117.516 216.343 117.101C215.78 116.69 215.131 116.333 214.516 115.928C213.92 115.522 213.474 114.931 213.248 114.246C212.998 113.509 212.902 112.728 212.965 111.953C213.039 110.992 213.332 110.062 213.822 109.233L214.43 108.934C215.338 109.023 216.233 109.222 217.093 109.527C217.711 109.745 218.298 110.044 218.837 110.418C219.304 110.749 219.641 111.233 219.79 111.786C219.937 112.375 220.138 112.949 220.393 113.5C220.655 114.037 220.953 114.556 221.252 115.084C221.538 115.627 221.837 116.171 222.159 116.708C222.773 117.81 223.469 118.891 224.183 120.012L223.82 120.583Z" fill="#2E2E2E"/>
<path d="M221.867 107.415C220.516 107.115 219.202 106.663 217.953 106.067C217.335 105.766 216.724 105.441 216.114 105.1C215.538 104.726 214.953 104.347 214.391 103.932C213.828 103.521 213.179 103.164 212.563 102.759C211.967 102.353 211.521 101.762 211.295 101.077C211.046 100.34 210.95 99.5592 211.013 98.7836C211.087 97.8234 211.38 96.8929 211.87 96.0638L212.478 95.7646C213.386 95.854 214.28 96.0534 215.141 96.3584C215.759 96.5761 216.345 96.8755 216.884 97.2487C217.351 97.5801 217.689 98.0638 217.838 98.6168C217.984 99.206 218.186 99.78 218.441 100.331C218.703 100.868 219.001 101.387 219.3 101.915C219.586 102.458 219.885 103.002 220.206 103.539C220.821 104.641 221.517 105.722 222.231 106.843L221.867 107.415Z" fill="#2E2E2E"/>
<path d="M221.055 95.227C219.704 94.9278 218.39 94.4758 217.141 93.8797C216.523 93.5786 215.913 93.2533 215.302 92.913C214.726 92.5384 214.14 92.16 213.579 91.745C213.016 91.3336 212.367 90.9769 211.751 90.5718C211.155 90.1656 210.71 89.5743 210.483 88.8894C210.234 88.1522 210.138 87.3718 210.201 86.5961C210.275 85.6359 210.568 84.7054 211.058 83.8763L211.666 83.5771C212.574 83.6665 213.468 83.8658 214.329 84.1709C214.947 84.3886 215.533 84.688 216.072 85.0612C216.539 85.3927 216.877 85.8764 217.026 86.4294C217.172 87.0186 217.374 87.5927 217.629 88.1438C217.891 88.6803 218.189 89.1991 218.488 89.7276C218.774 90.2705 219.073 90.8151 219.394 91.3511C220.009 92.4538 220.705 93.5346 221.418 94.6551L221.055 95.227Z" fill="#2E2E2E"/>
<path d="M238.558 137.635C238.605 138.354 238.414 139.068 238.016 139.667C237.6 140.277 237.136 140.858 236.768 141.448C236.41 142.048 236.013 142.619 235.616 143.181C235.181 143.732 234.745 144.264 234.29 144.777C233.479 145.668 232.581 146.475 231.61 147.187V147.197C231.464 147.303 231.319 147.41 231.174 147.507L230.864 147.294L230.729 147.197L230.623 147.119C230.632 147.042 230.652 146.974 230.661 146.897V146.887C230.739 146.452 230.816 146.016 230.894 145.59C230.952 145.261 231.01 144.923 231.058 144.594C231.126 144.158 231.184 143.723 231.242 143.287C231.339 142.677 231.406 142.058 231.465 141.448C231.542 140.839 231.619 140.248 231.658 139.658C231.687 139.05 231.658 138.441 231.571 137.838C231.496 137.271 231.623 136.696 231.929 136.213C232.286 135.661 232.716 135.159 233.207 134.722C233.888 134.116 234.638 133.593 235.442 133.164L236.12 133.213C236.886 133.795 237.511 134.542 237.949 135.4C238.299 136.097 238.507 136.857 238.558 137.635Z" fill="#2E2E2E"/>
<path d="M227.238 133.001C227.473 131.694 227.707 130.43 227.857 129.176C227.952 128.558 228.022 127.941 228.08 127.33C228.157 126.728 228.236 126.135 228.275 125.539C228.301 124.932 228.27 124.325 228.182 123.724C228.111 123.156 228.239 122.58 228.545 122.096C228.902 121.547 229.331 121.047 229.821 120.611C230.501 120.003 231.253 119.479 232.06 119.052L232.736 119.098C233.503 119.679 234.128 120.429 234.56 121.289C234.913 121.983 235.12 122.742 235.169 123.518C235.219 124.238 235.031 124.954 234.634 125.556C234.218 126.164 233.752 126.741 233.388 127.335C233.025 127.932 232.628 128.504 232.236 129.069C231.801 129.616 231.359 130.148 230.902 130.661C229.972 131.687 228.928 132.603 227.791 133.393L227.238 133.001Z" fill="#2E2E2E"/>
<path d="M223.709 119.57C223.945 118.262 224.179 116.998 224.329 115.745C224.423 115.127 224.493 114.51 224.552 113.899C224.628 113.296 224.707 112.703 224.746 112.107C224.773 111.501 224.742 110.893 224.654 110.292C224.582 109.724 224.711 109.149 225.017 108.665C225.374 108.115 225.803 107.616 226.293 107.18C226.973 106.571 227.725 106.047 228.531 105.62L229.207 105.666C229.975 106.248 230.599 106.997 231.032 107.858C231.384 108.552 231.591 109.31 231.64 110.087C231.691 110.806 231.503 111.523 231.105 112.125C230.69 112.733 230.224 113.309 229.859 113.903C229.497 114.5 229.099 115.072 228.708 115.638C228.272 116.184 227.831 116.716 227.373 117.23C226.443 118.255 225.4 119.171 224.262 119.961L223.709 119.57Z" fill="#2E2E2E"/>
<path d="M220.975 106.658C221.574 105.472 222.161 104.328 222.663 103.171C222.931 102.605 223.175 102.034 223.406 101.466C223.652 100.91 223.897 100.365 224.105 99.8049C224.304 99.2314 224.449 98.6403 224.537 98.0395C224.631 97.4745 224.919 96.96 225.351 96.5842C225.85 96.1598 226.405 95.8042 226.998 95.5266C227.825 95.1385 228.695 94.8521 229.59 94.6738L230.224 94.9116C230.793 95.6886 231.177 96.5857 231.345 97.534C231.484 98.2997 231.465 99.0858 231.289 99.8439C231.132 100.548 230.746 101.18 230.193 101.643C229.621 102.107 229.009 102.526 228.49 102.99C227.972 103.459 227.427 103.893 226.89 104.322C226.316 104.721 225.741 105.105 225.155 105.465C223.97 106.181 222.708 106.76 221.392 107.191L220.975 106.658Z" fill="#2E2E2E"/>
<path d="M220.322 94.9611C220.557 93.6538 220.791 92.3896 220.941 91.1363C221.036 90.5183 221.106 89.9011 221.164 89.2902C221.241 88.6877 221.32 88.0946 221.359 87.4989C221.385 86.8923 221.354 86.2846 221.266 85.6839C221.195 85.1156 221.323 84.5402 221.629 84.0563C221.986 83.5067 222.415 83.0072 222.905 82.5712C223.585 81.9626 224.337 81.439 225.144 81.0117L225.82 81.0579C226.587 81.6394 227.212 82.3891 227.644 83.2495C227.997 83.9433 228.204 84.7018 228.253 85.4784C228.303 86.198 228.115 86.9142 227.718 87.5162C227.302 88.1243 226.836 88.7007 226.472 89.2947C226.109 89.8919 225.711 90.4639 225.32 91.0293C224.884 91.5757 224.443 92.108 223.986 92.6211C223.056 93.6466 222.012 94.563 220.875 95.3526L220.322 94.9611Z" fill="#2E2E2E"/>
<path d="M218.742 166.133C217.962 163.015 217.204 159.892 216.467 156.766L214.297 147.378C214.261 147.221 214.26 147.058 214.294 146.901C214.328 146.743 214.397 146.595 214.494 146.468C214.592 146.34 214.717 146.235 214.861 146.161C215.004 146.087 215.161 146.045 215.322 146.04L215.409 146.037L227.506 145.662L239.603 145.381C247.668 145.255 255.733 145.097 263.797 145.066C271.862 144.991 279.927 144.964 287.992 145.063C296.057 145.139 304.121 145.433 312.186 145.639L312.268 145.641C312.664 145.651 313.04 145.818 313.313 146.105C313.585 146.392 313.733 146.776 313.723 147.171C313.72 147.261 313.71 147.351 313.692 147.439C311.624 157.316 309.479 167.18 307.602 177.091C305.717 187.001 304.003 196.942 302.386 206.9L300.065 221.856L297.874 236.834C296.414 246.819 294.804 256.778 293.151 266.729C293.064 267.253 292.795 267.729 292.392 268.075C291.989 268.421 291.477 268.614 290.946 268.621L290.895 268.621L277.346 268.778C272.83 268.817 268.314 268.912 263.797 268.905L250.249 268.915L236.7 268.787L236.66 268.786C236.088 268.781 235.537 268.575 235.102 268.204C234.667 267.833 234.376 267.321 234.281 266.757C233.28 260.856 232.388 254.935 231.436 249.024L228.75 231.263C227.878 225.339 227.037 219.409 226.227 213.473C225.468 207.529 224.636 201.597 223.958 195.638C223.951 195.577 223.968 195.515 224.004 195.466C224.041 195.416 224.096 195.383 224.157 195.372C224.217 195.361 224.28 195.374 224.331 195.408C224.383 195.441 224.42 195.494 224.434 195.554C225.843 201.383 227.097 207.24 228.424 213.085C229.699 218.938 230.943 224.797 232.154 230.661L235.715 248.268C236.847 254.147 238.037 260.015 239.119 265.903L236.7 263.873L250.249 263.745L263.797 263.756C268.314 263.748 272.83 263.844 277.346 263.883L290.895 264.04L288.639 265.931C290.497 256.015 292.399 246.107 294.45 236.225L300.569 206.576C302.521 196.677 304.377 186.762 306.062 176.815C307.754 166.87 309.179 156.877 310.681 146.898L312.186 148.698C304.121 148.904 296.057 149.198 287.992 149.274C279.927 149.372 271.862 149.346 263.798 149.271C255.733 149.24 247.668 149.081 239.603 148.955L227.506 148.675L215.409 148.3L216.521 146.959L217.922 156.491C218.379 159.671 218.811 162.855 219.218 166.043C219.226 166.105 219.21 166.167 219.173 166.217C219.137 166.267 219.083 166.301 219.022 166.313C218.962 166.324 218.899 166.312 218.847 166.279C218.795 166.245 218.757 166.193 218.742 166.133H218.742Z" fill="#2E2E2E"/>
<path d="M213.793 73.3461C212.68 71.2557 209.854 69.6009 209.157 69.6879C208.461 69.775 204.541 70.0363 203.235 68.5459C202.959 68.2383 202.627 67.9855 202.257 67.8007C201.68 67.5342 201.048 67.4067 200.413 67.4286C199.778 67.4504 199.156 67.621 198.599 67.9267C196.392 69.0686 191.931 68.4782 190.257 67.3265C188.341 66.0008 183.802 67.3265 183.802 67.3265C183.221 60.6684 183.889 57.1263 184.779 55.2584C187.024 57.0102 191.418 60.0779 195.047 59.6715C198.967 59.2361 207.241 49.4809 207.241 49.4809C209.332 49.8294 211.073 48.6969 210.377 45.0389C209.68 41.3808 210.725 35.7192 210.725 35.7192C211.543 34.2771 212.19 32.744 212.651 31.1514C214.151 37.0354 214.122 53.5746 212.815 56.3619C211.509 59.1489 212.031 64.2394 212.031 64.2394C214.47 67.404 213.793 73.3461 213.793 73.3461Z" fill="#2E2E2E"/>
<path d="M92.5118 186.895C92.1829 187.078 91.8441 187.253 91.5054 187.427C91.6179 187.264 91.7682 187.13 91.9434 187.037C92.1186 186.945 92.3136 186.896 92.5118 186.895Z" fill="#2E2E2E"/>
<path d="M116.155 168.15C113.741 171.004 111.103 173.661 108.267 176.095C105.435 178.5 102.458 180.73 99.3541 182.773C97.1088 184.224 94.8444 185.618 92.5119 186.895C92.5468 186.887 92.5826 186.884 92.6184 186.886C92.9483 186.881 93.2698 186.99 93.5299 187.193C93.7901 187.396 93.9733 187.681 94.0495 188.002C94.1256 188.323 94.0902 188.661 93.9489 188.959C93.8077 189.257 93.5691 189.498 93.2725 189.643C92.9759 189.787 92.6389 189.826 92.3171 189.753C91.9953 189.681 91.7078 189.501 91.502 189.243C91.2963 188.985 91.1845 188.665 91.1851 188.335C91.1857 188.005 91.2987 187.685 91.5054 187.428C90.9248 187.737 90.3344 188.028 89.7441 188.318L97.0604 214.448C97.0604 214.448 105.074 214.448 109.254 210.964C109.963 210.084 110.507 209.085 110.861 208.012C111.278 206.965 111.637 205.896 111.935 204.809C112.574 202.651 113.077 200.444 113.571 198.238C114.538 193.825 115.371 189.383 116.145 184.921C116.939 180.469 117.645 175.998 118.371 171.537C118.806 168.808 119.213 166.069 119.619 163.34C118.56 165.01 117.403 166.616 116.155 168.15ZM95.1733 193.621C95.5494 193.635 95.9056 193.793 96.1669 194.064C96.4282 194.335 96.5743 194.697 96.5743 195.073C96.5743 195.449 96.4282 195.811 96.1669 196.082C95.9056 196.353 95.5494 196.511 95.1733 196.525C94.7972 196.511 94.441 196.353 94.1796 196.082C93.9183 195.811 93.7722 195.449 93.7722 195.073C93.7722 194.697 93.9183 194.335 94.1796 194.064C94.441 193.793 94.7972 193.635 95.1733 193.621ZM97.2638 205.351C96.8871 205.338 96.53 205.18 96.268 204.909C96.0059 204.638 95.8594 204.276 95.8594 203.899C95.8594 203.522 96.0059 203.16 96.268 202.889C96.53 202.618 96.8871 202.46 97.2638 202.448C97.6405 202.46 97.9976 202.618 98.2596 202.889C98.5217 203.16 98.6682 203.522 98.6682 203.899C98.6682 204.276 98.5217 204.638 98.2596 204.909C97.9976 205.18 97.6405 205.338 97.2638 205.351ZM99.8186 212.783C99.4419 212.771 99.0848 212.612 98.8228 212.342C98.5607 212.071 98.4142 211.708 98.4142 211.332C98.4142 210.955 98.5607 210.593 98.8228 210.322C99.0848 210.051 99.4419 209.892 99.8186 209.88C100.195 209.892 100.552 210.051 100.814 210.322C101.077 210.593 101.223 210.955 101.223 211.332C101.223 211.708 101.077 212.071 100.814 212.342C100.552 212.612 100.195 212.771 99.8186 212.783Z" fill="#2E2E2E"/>
<path d="M122.958 149.646C109.719 138.033 112.786 107.277 112.786 107.277C105.267 107.064 85.5631 115.155 85.5631 115.155C85.3889 115.077 85.205 115 85.0308 114.913C81.5976 116.343 78.0133 117.378 74.3466 118C72.5272 118.397 70.6595 118.503 68.8109 118.726C67.8819 118.793 66.9432 118.803 66.0141 118.851C65.0851 118.9 64.156 118.9 63.2173 118.88C61.3591 118.861 59.501 118.706 57.6429 118.551C55.7944 118.319 53.946 118.097 52.1266 117.709C48.4712 117.035 44.91 115.924 41.5198 114.4C45.1296 115.193 48.7394 115.784 52.3588 116.219C55.9753 116.659 59.6131 116.901 63.256 116.945C66.8906 117.027 70.5269 116.882 74.1433 116.509C77.7919 116.219 81.3727 115.532 85.0308 114.913C68.8109 107.577 51.6233 95.5088 51.6233 95.5088C51.6233 95.5088 22.8515 122.471 50.7233 173.337C50.7233 173.337 70.9304 191.454 89.7439 188.318C96.005 184.448 101.892 180.003 107.328 175.04C109.996 172.551 112.492 169.883 114.799 167.056C117.025 164.213 118.924 161.129 120.461 157.862L120.471 157.853C120.564 157.644 120.729 157.476 120.937 157.38C121.144 157.284 121.379 157.266 121.598 157.33C121.818 157.394 122.007 157.534 122.13 157.727C122.254 157.919 122.304 158.149 122.271 158.375C121.671 162.875 120.964 167.356 120.219 171.837C119.474 176.318 118.622 180.769 117.722 185.221C116.783 189.673 115.777 194.105 114.558 198.489C113.938 200.676 113.251 202.844 112.467 204.983C112.083 206.06 111.643 207.116 111.151 208.148C110.697 209.195 110.054 210.149 109.254 210.964V217.932C109.254 217.932 156.288 230.474 173.359 223.506L175.45 190.06L176.243 176.443C152.862 168.576 136.197 161.259 122.958 149.646ZM113.987 214.409C113.61 214.397 113.253 214.238 112.991 213.967C112.729 213.697 112.582 213.334 112.582 212.958C112.582 212.581 112.729 212.219 112.991 211.948C113.253 211.677 113.61 211.518 113.987 211.506C114.363 211.518 114.72 211.677 114.982 211.948C115.244 212.219 115.391 212.581 115.391 212.958C115.391 213.334 115.244 213.697 114.982 213.967C114.72 214.238 114.363 214.397 113.987 214.409ZM122.58 216.267C122.204 216.255 121.847 216.096 121.584 215.826C121.322 215.555 121.176 215.193 121.176 214.816C121.176 214.439 121.322 214.077 121.584 213.806C121.847 213.535 122.204 213.377 122.58 213.364C122.957 213.376 123.314 213.535 123.576 213.806C123.838 214.077 123.985 214.439 123.985 214.816C123.985 215.193 123.838 215.555 123.576 215.826C123.314 216.097 122.957 216.255 122.58 216.267V216.267ZM132.8 218.59C132.423 218.577 132.066 218.419 131.804 218.148C131.542 217.877 131.396 217.515 131.396 217.138C131.396 216.761 131.542 216.399 131.804 216.128C132.066 215.857 132.423 215.699 132.8 215.687C133.177 215.699 133.534 215.857 133.796 216.128C134.058 216.399 134.204 216.761 134.204 217.138C134.204 217.515 134.058 217.877 133.796 218.148C133.534 218.419 133.177 218.577 132.8 218.59ZM143.717 219.983C143.34 219.971 142.983 219.813 142.721 219.542C142.459 219.271 142.312 218.909 142.312 218.532C142.312 218.155 142.459 217.793 142.721 217.522C142.983 217.251 143.34 217.093 143.717 217.08C144.093 217.093 144.45 217.251 144.712 217.522C144.975 217.793 145.121 218.155 145.121 218.532C145.121 218.909 144.975 219.271 144.712 219.542C144.45 219.813 144.093 219.971 143.717 219.983ZM154.865 220.68C154.489 220.668 154.131 220.51 153.869 220.239C153.607 219.968 153.461 219.606 153.461 219.229C153.461 218.852 153.607 218.49 153.869 218.219C154.131 217.948 154.489 217.789 154.865 217.777C155.242 217.789 155.599 217.948 155.862 218.219C156.124 218.489 156.27 218.852 156.27 219.229C156.27 219.606 156.124 219.968 155.862 220.239C155.599 220.51 155.242 220.668 154.865 220.68V220.68ZM166.711 220.68C166.334 220.668 165.977 220.509 165.715 220.239C165.453 219.968 165.306 219.606 165.306 219.229C165.306 218.852 165.453 218.49 165.715 218.219C165.977 217.948 166.334 217.789 166.711 217.777C167.088 217.789 167.445 217.948 167.707 218.219C167.969 218.49 168.116 218.852 168.116 219.229C168.116 219.606 167.969 219.968 167.707 220.239C167.445 220.51 167.088 220.668 166.711 220.68V220.68Z" fill="#2E2E2E"/>
<path d="M102.309 106.573C98.3618 105.37 94.5135 103.864 90.7983 102.068C88.9576 101.14 87.0918 100.249 85.2925 99.2406C83.4787 98.2549 81.7195 97.1795 79.9427 96.1312C76.4261 93.9773 72.9655 91.7298 69.6325 89.3036C66.2963 86.8782 63.0909 84.2954 59.9464 81.6137L59.9247 81.5954C59.8156 81.5023 59.7479 81.3696 59.7366 81.2266C59.7252 81.0836 59.7711 80.9419 59.8642 80.8328C59.8911 80.8016 59.9213 80.7734 59.9542 80.7488C63.6692 78.0016 67.4386 75.3657 71.1663 72.6614C74.8847 69.946 78.6514 67.2996 82.4022 64.6233C89.8953 59.2371 97.6752 54.2613 105.707 49.7179C113.711 45.0336 122.199 41.2324 131.023 38.3813C135.462 36.935 140.068 36.0647 144.728 35.792C147.07 35.666 149.418 35.8452 151.714 36.3251C154.005 36.8126 156.172 37.7646 158.08 39.1222C158.101 39.1374 158.115 39.1602 158.118 39.1856C158.122 39.211 158.116 39.2369 158.101 39.2576C158.086 39.2767 158.065 39.2899 158.041 39.2946C158.018 39.2992 157.993 39.295 157.972 39.2828C153.995 36.9298 149.282 36.5509 144.809 36.988C140.293 37.5121 135.852 38.5486 131.571 40.0778C122.982 43.2097 114.643 46.9927 106.629 51.3937C98.5766 55.7683 90.6818 60.4678 82.9182 65.3909C75.1479 70.308 67.7083 75.7293 60.6473 81.6199L60.6551 80.7552C63.89 83.2447 67.2685 85.5771 70.6178 87.9189C73.9785 90.2498 77.344 92.5721 80.7816 94.7861C82.5186 95.8614 84.2404 96.9658 86.014 97.9792C87.7523 99.0569 89.5401 100.043 91.3176 101.056C94.9231 102.98 98.5813 104.805 102.372 106.391C102.396 106.4 102.415 106.419 102.426 106.442C102.436 106.466 102.436 106.492 102.427 106.516C102.417 106.538 102.4 106.557 102.379 106.567C102.357 106.578 102.332 106.58 102.309 106.573Z" fill="#2E2E2E"/>
<path d="M174.664 175.901C162.643 173.398 151.066 169.102 140.322 163.156C134.966 160.122 129.882 156.632 125.125 152.724C124.527 152.241 123.95 151.733 123.361 151.239C122.779 150.744 122.185 150.257 121.594 149.671C120.47 148.522 119.493 147.238 118.685 145.849C117.132 143.122 115.941 140.204 115.14 137.169C113.57 131.2 112.62 125.084 112.305 118.919C111.924 112.797 111.881 106.659 112.175 100.532C112.244 99.0019 112.332 97.4722 112.44 95.9431C112.539 94.4086 112.758 92.8705 112.927 91.3645C113.294 88.3322 113.652 85.2993 114.074 82.2739C114.491 79.2478 114.925 76.224 115.404 73.2065C115.819 70.1778 116.44 67.1808 117.263 64.2363C116.902 65.7178 116.629 67.2195 116.447 68.7334C116.245 70.2447 116.049 71.7565 115.876 73.2714C115.529 76.3016 115.228 79.3371 114.944 82.3741L114.11 91.4864C113.808 94.5309 113.673 97.5232 113.609 100.58C113.49 106.659 113.604 112.745 114.064 118.794C114.456 124.825 115.43 130.804 116.974 136.648C117.752 139.517 118.882 142.279 120.34 144.87C121.061 146.126 121.935 147.287 122.942 148.328C123.431 148.82 124.014 149.308 124.592 149.804C125.169 150.293 125.735 150.797 126.321 151.276C130.975 155.154 135.929 158.658 141.135 161.757C146.35 164.865 151.792 167.578 157.414 169.871C163.051 172.192 168.81 174.205 174.664 175.901Z" fill="#2E2E2E"/>
<path d="M53.0347 96.3949C53.5302 95.0815 54.1438 93.8158 54.8679 92.6132C55.5633 91.4199 56.3199 90.2634 57.1348 89.1483C57.9485 88.0325 58.8204 86.9602 59.7467 85.9359C60.6729 84.8808 61.6939 83.9127 62.7969 83.0439C62.3035 84.3584 61.6906 85.6248 60.966 86.8274C60.2709 88.0208 59.5134 89.1767 58.6968 90.2904C57.8813 91.4051 57.0088 92.4768 56.0825 93.5012C55.1561 94.5559 54.1359 95.5244 53.0347 96.3949Z" fill="#2E2E2E"/>
<path d="M120.225 55.4057C121.006 54.1117 121.981 52.9447 123.115 51.945C124.231 50.9132 125.479 50.0328 126.824 49.3263C128.189 48.5774 129.684 48.0959 131.228 47.9077C132.785 47.6821 134.371 47.9919 135.728 48.7862C134.305 48.7497 132.887 48.9529 131.531 49.3873C130.214 49.8209 128.938 50.3744 127.721 51.0408C126.479 51.6871 125.247 52.3982 124.018 53.1489C122.787 53.8999 121.547 54.6628 120.225 55.4057Z" fill="#2E2E2E"/>
<path d="M144.46 49.3895C147.978 50.5902 151.01 52.9029 153.098 55.9784C155.224 59.0009 156.807 62.3704 157.778 65.9359C158.751 69.4882 159.347 73.1329 159.557 76.8099C159.766 80.4515 159.932 84.0949 160.054 87.7401C160.185 91.3861 160.22 95.0358 160.198 98.6901C160.168 102.336 160.056 106.022 159.709 109.661C159.442 113.231 159.6 116.82 160.181 120.353C160.736 123.892 161.603 127.375 162.77 130.762L162.696 130.613C163.262 131.352 163.917 132.018 164.648 132.596C165.403 133.236 166.196 133.852 167.002 134.454C168.614 135.659 170.28 136.812 171.959 137.946C175.329 140.198 178.733 142.41 182.171 144.583C189.046 148.921 196.011 153.129 203.006 157.284C206.5 159.368 210.016 161.416 213.553 163.427L216.203 164.939C216.619 165.196 217.052 165.425 217.499 165.625C217.931 165.78 218.393 165.831 218.848 165.775C219.303 165.718 219.739 165.556 220.12 165.301C220.479 165.054 220.884 164.664 221.264 164.351L223.584 162.363C224.372 161.699 225.201 161.086 226.067 160.527C226.931 159.955 227.838 159.484 228.685 158.946C229.546 158.409 230.376 157.85 231.225 157.267C231.687 156.95 232.218 156.747 232.774 156.673C233.329 156.599 233.894 156.658 234.423 156.844C234.707 156.937 234.969 157.088 235.191 157.288C235.413 157.488 235.591 157.733 235.714 158.005C235.913 158.557 235.922 159.159 235.739 159.717C235.581 160.251 235.312 160.746 234.949 161.169C234.58 161.599 234.191 161.904 233.824 162.259L229.342 166.403L229.408 166.321C229.139 166.675 229.01 167.115 229.047 167.558C229.083 168.001 229.281 168.415 229.604 168.72C230.349 169.353 231.229 169.808 232.177 170.05C233.128 170.347 234.111 170.533 235.106 170.605C236.112 170.551 237.112 170.409 238.093 170.181C242.116 169.309 246.094 168.101 250.049 166.876L253.01 165.932C253.524 165.772 253.948 165.612 254.533 165.448C255.128 165.289 255.751 165.266 256.356 165.378C256.682 165.441 256.996 165.555 257.286 165.717C257.632 165.912 257.907 166.212 258.072 166.574C258.315 167.231 258.291 167.958 258.004 168.598C257.574 169.707 256.811 170.657 255.819 171.314C255.337 171.637 254.816 171.895 254.267 172.083L252.8 172.602L249.864 173.641L243.992 175.718L244.133 175.653C243.907 175.783 243.696 175.938 243.504 176.116C243.409 176.191 243.339 176.293 243.304 176.409C243.299 176.394 243.314 176.486 243.471 176.63C243.644 176.779 243.839 176.901 244.048 176.993L243.683 176.931L253.44 176.299L258.32 175.993C259.309 175.92 260.299 176.129 261.174 176.596C261.643 176.85 262.057 177.193 262.393 177.607C262.598 177.864 262.748 178.161 262.833 178.478C262.919 178.796 262.938 179.127 262.89 179.452C262.783 180.013 262.532 180.536 262.161 180.97C261.848 181.356 261.481 181.696 261.072 181.978C260.268 182.523 259.342 182.862 258.376 182.967L253.482 183.404L248.612 183.836L247.394 183.944L246.786 183.998C246.624 184.01 246.462 184.034 246.304 184.068C246.014 184.128 245.737 184.237 245.485 184.39C245.272 184.518 245.09 184.689 244.948 184.893C244.913 184.947 244.892 185.008 244.887 185.072C244.881 185.136 244.89 185.2 244.915 185.259C244.984 185.454 245.111 185.623 245.278 185.743C245.373 185.815 245.477 185.873 245.587 185.918C245.725 185.972 245.867 186.012 246.012 186.038L247.203 186.312L251.967 187.411L254.346 187.972C254.766 188.078 255.082 188.129 255.61 188.287C256.11 188.443 256.58 188.683 257 188.997C257.45 189.335 257.819 189.768 258.084 190.265C258.246 190.57 258.342 190.906 258.365 191.251C258.388 191.596 258.337 191.942 258.217 192.266C257.986 192.809 257.618 193.281 257.148 193.637C256.679 193.993 256.124 194.219 255.54 194.294C255.068 194.347 254.592 194.356 254.119 194.321C253.69 194.302 253.274 194.268 252.858 194.234C252.03 194.158 251.21 194.071 250.397 193.972L245.54 193.361L243.137 193.085C242.405 192.988 241.666 192.957 240.929 192.993C240.687 193.016 240.454 193.095 240.248 193.224C240.108 193.349 240.146 193.324 240.143 193.358C240.129 193.605 240.647 194.166 240.966 194.201C241.015 194.206 241.062 194.219 241.107 194.24L241.172 194.271L247.752 197.368L247.548 197.299C248.128 197.407 248.675 197.646 249.148 197.999C249.621 198.352 250.006 198.809 250.274 199.334C250.427 199.664 250.502 200.024 250.496 200.387C250.489 200.75 250.4 201.107 250.236 201.431C249.954 201.96 249.548 202.412 249.051 202.747C248.118 203.383 246.975 203.635 245.861 203.452C245.273 203.346 244.912 203.206 244.479 203.092L243.215 202.729L233.097 199.827L231.832 199.465L231.2 199.283L231.042 199.238L231.002 199.227L230.983 199.221C231.015 199.228 230.883 199.197 231.05 199.235L230.961 199.219L230.609 199.148C229.699 198.932 228.819 198.609 227.986 198.186L223.199 195.973C220.017 194.479 216.86 192.942 213.712 191.397C207.488 188.2 201.058 185.419 194.465 183.073L174.633 175.993C174.621 175.989 174.61 175.982 174.601 175.974C174.591 175.965 174.584 175.955 174.578 175.943C174.573 175.932 174.57 175.919 174.569 175.907C174.568 175.894 174.57 175.881 174.574 175.869C174.583 175.846 174.601 175.826 174.624 175.815C174.646 175.804 174.672 175.802 174.696 175.81L194.738 182.24C201.424 184.451 207.955 187.103 214.289 190.179L223.842 194.582L228.638 196.72C229.374 197.087 230.151 197.363 230.952 197.544L231.245 197.599L231.319 197.611L231.485 197.651L231.644 197.695L232.279 197.867L233.548 198.213L243.705 200.975L244.974 201.321C245.389 201.428 245.861 201.576 246.14 201.615C246.778 201.715 247.429 201.566 247.961 201.199C248.193 201.04 248.386 200.828 248.523 200.582C248.561 200.515 248.581 200.439 248.581 200.362C248.581 200.284 248.56 200.208 248.522 200.141C248.374 199.891 248.173 199.676 247.932 199.513C247.692 199.349 247.419 199.241 247.131 199.196C247.067 199.182 247.004 199.162 246.945 199.135L246.927 199.126L240.338 196.05L240.544 196.12C239.957 195.979 239.424 195.669 239.01 195.229C238.567 194.788 238.278 194.218 238.185 193.601C238.134 193.204 238.202 192.801 238.38 192.443C238.544 192.123 238.781 191.846 239.072 191.636C239.543 191.305 240.089 191.098 240.661 191.032C241.551 190.967 242.445 190.992 243.329 191.107L245.783 191.381L250.63 191.975C251.435 192.07 252.235 192.153 253.031 192.223C253.427 192.254 253.823 192.286 254.208 192.301C254.548 192.325 254.888 192.322 255.227 192.293C255.456 192.269 255.675 192.189 255.864 192.059C256.054 191.929 256.208 191.755 256.314 191.551C256.337 191.492 256.345 191.428 256.337 191.365C256.329 191.303 256.306 191.243 256.27 191.191C256.143 190.97 255.973 190.777 255.769 190.624C255.533 190.451 255.269 190.319 254.989 190.234C254.737 190.155 254.251 190.056 253.88 189.965L251.499 189.412L246.742 188.283L245.553 188C245.299 187.947 245.05 187.87 244.809 187.771C244.542 187.659 244.291 187.514 244.062 187.338C243.572 186.967 243.207 186.455 243.015 185.871C242.908 185.543 242.873 185.196 242.911 184.854C242.95 184.511 243.061 184.18 243.237 183.884C243.542 183.402 243.957 182.999 244.446 182.707C244.893 182.438 245.382 182.247 245.893 182.144C246.133 182.093 246.376 182.059 246.62 182.042L247.229 181.992L248.447 181.894L253.32 181.5L258.168 181.105C258.83 181.04 259.467 180.814 260.023 180.447C260.509 180.15 260.88 179.697 261.076 179.162C261.088 179.083 261.083 179.002 261.06 178.926C261.037 178.849 260.997 178.779 260.944 178.719C260.761 178.503 260.539 178.322 260.291 178.185C259.719 177.88 259.072 177.743 258.425 177.789L253.544 178.057L243.78 178.573L243.748 178.575C243.633 178.581 243.519 178.559 243.415 178.511C243.027 178.342 242.669 178.109 242.357 177.822C242.146 177.639 241.976 177.413 241.861 177.158C241.745 176.904 241.685 176.628 241.686 176.348C241.732 175.814 241.983 175.317 242.386 174.963C242.673 174.699 242.99 174.469 243.33 174.277C243.375 174.251 243.422 174.23 243.471 174.213L249.37 172.215L252.32 171.216L253.794 170.717C254.232 170.578 254.651 170.382 255.038 170.135C255.801 169.653 256.397 168.947 256.742 168.114C256.902 167.804 256.946 167.447 256.865 167.108C256.811 166.915 256.51 166.732 256.093 166.639C255.674 166.555 255.242 166.565 254.828 166.668C254.411 166.775 253.856 166.96 253.376 167.1L250.384 167.987C246.384 169.132 242.385 170.274 238.274 171.09C237.229 171.314 236.165 171.444 235.097 171.477C234.02 171.388 232.957 171.171 231.932 170.83C230.866 170.534 229.883 169.995 229.061 169.255C228.619 168.826 228.352 168.249 228.313 167.635C228.304 167.041 228.469 166.457 228.789 165.957C228.808 165.927 228.83 165.899 228.856 165.875L233.365 161.76C233.732 161.412 234.146 161.081 234.44 160.738C234.745 160.388 234.972 159.978 235.107 159.534C235.25 159.119 235.253 158.668 235.114 158.251C235.026 158.059 234.899 157.887 234.74 157.748C234.582 157.608 234.396 157.503 234.194 157.44C233.759 157.287 233.294 157.238 232.837 157.298C232.38 157.359 231.943 157.525 231.562 157.785C230.731 158.349 229.869 158.921 229 159.455C228.126 160.003 227.217 160.46 226.385 161.016C225.546 161.568 224.742 162.173 223.979 162.828L221.681 164.832C221.278 165.168 220.958 165.499 220.484 165.839C220.019 166.156 219.487 166.36 218.929 166.433C218.371 166.507 217.803 166.448 217.272 166.263C216.786 166.056 216.316 165.814 215.864 165.54L213.2 164.05L202.556 158.062C195.465 154.061 188.404 150.002 181.422 145.798C177.932 143.693 174.455 141.563 171.056 139.295C169.355 138.163 167.665 137.01 166.009 135.791C165.182 135.18 164.362 134.554 163.561 133.883C162.689 133.203 161.912 132.409 161.253 131.521C161.225 131.481 161.202 131.437 161.185 131.391L161.178 131.372C159.925 127.883 159.029 124.277 158.504 120.607C157.934 116.94 157.802 113.218 158.111 109.519C158.695 102.286 158.881 95.0259 158.669 87.772C158.459 80.5041 158.754 73.1649 156.873 66.1815C156.027 62.6756 154.585 59.3411 152.61 56.3237C151.598 54.8337 150.397 53.4815 149.036 52.301C147.69 51.0982 146.12 50.1729 144.416 49.578L144.404 49.5741C144.38 49.5663 144.36 49.5493 144.348 49.5269C144.336 49.5044 144.334 49.4783 144.341 49.454C144.349 49.4298 144.365 49.4095 144.387 49.3974C144.41 49.3853 144.436 49.3825 144.46 49.3895L144.46 49.3895Z" fill="#2E2E2E"/>
<path d="M112.784 110.105C116.713 110.152 120.616 110.266 124.516 110.358C128.415 110.436 132.306 110.526 136.19 110.492C140.074 110.485 143.951 110.36 147.8 110.023C149.72 109.851 151.628 109.567 153.515 109.172C155.42 108.818 157.248 108.132 158.914 107.144C157.435 108.485 155.682 109.488 153.777 110.086C151.893 110.722 149.96 111.202 147.998 111.521C144.094 112.128 140.15 112.431 136.2 112.426C132.263 112.422 128.334 112.248 124.426 111.86C120.514 111.508 116.626 110.922 112.784 110.105Z" fill="#2E2E2E"/>
<path d="M171.333 14.934C171.333 14.934 158.955 39.5541 153.613 41.6444C148.27 43.7348 149.432 50.3333 152.219 51.9116C155.006 53.49 164.994 59.0643 165.923 60.4579C166.852 61.8515 183.695 70.6776 183.751 68.1227C183.798 65.967 185.418 55.6677 183.307 49.4672C181.961 45.7644 181.376 41.828 181.586 37.8937C181.715 36.1561 182.005 34.8507 182.588 34.8507C182.588 34.8507 177.362 29.2764 182.588 22.3084C182.588 22.3084 188.772 16.2114 190.165 27.3602C190.165 27.3602 209.327 25.7924 214.379 20.5664C214.379 20.5664 208.892 -2.34073 189.817 0.79485C189.817 0.79483 176.191 2.94329 171.333 14.934Z" fill="#2E2E2E"/>
<path d="M213.716 21.1738C213.957 24.5334 213.597 27.9091 212.651 31.1419V31.1516C212.19 32.7442 211.543 34.2773 210.725 35.7195C210.725 35.7195 209.68 41.3809 210.377 45.0391C211.074 48.6973 209.332 49.8296 207.241 49.4812C207.241 49.4812 198.967 59.2363 195.047 59.6718C191.418 60.0783 187.024 57.0104 184.779 55.2588C184.595 55.1233 184.431 54.9878 184.286 54.8717" stroke="#2E2E2E" stroke-width="0.96777" stroke-linecap="round" stroke-linejoin="round"/>
<path d="M203.753 38.3926C204.129 38.3796 204.486 38.221 204.747 37.9501C205.009 37.6793 205.155 37.3175 205.155 36.9409C205.155 36.5644 205.009 36.2025 204.747 35.9317C204.486 35.6609 204.129 35.5023 203.753 35.4893C203.377 35.5023 203.02 35.6609 202.758 35.9317C202.497 36.2025 202.351 36.5644 202.351 36.9409C202.351 37.3175 202.497 37.6793 202.758 37.9501C203.02 38.221 203.377 38.3796 203.753 38.3926Z" fill="#2E2E2E"/>
<path d="M183.024 31.5986C183.401 31.5856 183.757 31.427 184.019 31.1562C184.281 30.8854 184.427 30.5235 184.427 30.147C184.427 29.7704 184.281 29.4086 184.019 29.1378C183.757 28.8669 183.401 28.7083 183.024 28.6953C182.648 28.7083 182.292 28.8669 182.03 29.1378C181.768 29.4086 181.622 29.7704 181.622 30.147C181.622 30.5235 181.768 30.8854 182.03 31.1562C182.292 31.427 182.648 31.5856 183.024 31.5986Z" fill="#2E2E2E"/>
<path d="M198.838 30.1475C199.778 30.1202 200.717 30.2338 201.624 30.4845C202.537 30.7246 203.419 31.0661 204.256 31.5025C205.097 31.9418 205.876 32.4907 206.573 33.135C207.273 33.7718 207.852 34.5302 208.282 35.3734C207.536 34.7939 206.855 34.215 206.101 33.7248C205.363 33.225 204.596 32.7687 203.805 32.3581C202.19 31.5319 200.532 30.794 198.838 30.1475Z" fill="#2E2E2E"/>
<path d="M197.83 49.4834C198.539 49.9732 199.175 50.5618 199.718 51.2316C199.979 51.5516 200.242 51.8607 200.487 52.1877C200.735 52.5284 201.012 52.8475 201.314 53.1416C200.838 53.1763 200.366 53.0375 199.984 52.751C199.61 52.5016 199.272 52.2012 198.981 51.8585C198.391 51.1851 197.993 50.3644 197.83 49.4834Z" fill="#2E2E2E"/>
<path d="M204.101 44.1699C204.141 44.5689 204.117 44.9717 204.029 45.363C203.964 45.677 203.863 45.8773 203.753 46.4346C203.621 46.4024 203.498 46.3394 203.395 46.2509C203.292 46.1624 203.211 46.0508 203.159 45.9252C203.056 45.6815 203.03 45.4119 203.085 45.153C203.135 44.9056 203.259 44.6793 203.44 44.5039C203.622 44.3284 203.852 44.212 204.101 44.1699Z" fill="#2E2E2E"/>
<path d="M183.751 68.123C183.531 72.6707 183.102 77.1804 182.712 81.6866C182.483 83.9353 182.31 86.1885 182.113 88.428C182.017 89.5486 181.946 90.6686 181.899 91.778C181.888 92.326 181.83 92.8947 181.851 93.4209L181.859 94.2183L181.935 94.895L181.963 95.0914C181.999 96.1637 182.098 97.2753 182.192 98.3655C182.297 99.4592 182.444 100.546 182.637 101.62C182.811 102.686 183.066 103.737 183.399 104.764C183.673 105.75 184.169 106.66 184.85 107.425L184.903 107.476C184.972 107.543 185.021 107.628 185.045 107.721C185.07 107.813 185.068 107.911 185.04 108.003C185.012 108.095 184.959 108.177 184.888 108.241C184.816 108.305 184.728 108.348 184.634 108.366C183.424 108.586 182.195 108.689 180.965 108.675C180.35 108.668 179.738 108.608 179.134 108.493C178.529 108.39 177.95 108.168 177.432 107.84C177.987 108.053 178.578 108.158 179.172 108.152C179.761 108.165 180.35 108.129 180.932 108.044C182.096 107.89 183.247 107.646 184.373 107.315L184.157 108.256C183.226 107.452 182.514 106.424 182.089 105.27C181.642 104.196 181.286 103.088 181.023 101.956C180.511 99.7214 180.194 97.4462 180.077 95.1565L180.104 95.3525L179.964 94.3441L179.938 93.4432C179.912 92.8366 179.952 92.2741 179.968 91.69C180.034 90.5373 180.125 89.3969 180.239 88.262C180.441 85.9885 180.776 83.7388 181.096 81.4903C181.802 77.0017 182.625 72.5361 183.751 68.123Z" fill="#2E2E2E"/>
<path d="M160.446 56.6611C160.188 57.8552 159.645 58.969 158.862 59.9068C158.127 60.8685 157.216 61.6818 156.178 62.3032C156.7 61.2338 157.346 60.2291 158.102 59.3097C158.829 58.3803 159.611 57.4958 160.446 56.6611Z" fill="#2E2E2E"/>
<path d="M113.035 97.3848L112.807 97.5943L112.814 97.5886C111.158 99.8334 109.277 101.903 107.199 103.764C105.126 105.643 102.894 107.338 100.528 108.831C98.1568 110.319 95.6573 111.592 93.0592 112.634C90.4746 113.688 87.7807 114.452 85.0273 114.911C87.5409 113.71 90.0153 112.537 92.4319 111.269C94.8414 109.991 97.2097 108.658 99.4979 107.195C101.804 105.759 104.03 104.199 106.228 102.582C108.422 100.956 110.561 99.245 112.752 97.5295L112.759 97.5235L113.035 97.3848Z" fill="#2E2E2E"/>
<path d="M70.4929 185.571C69.0254 187.386 68.1142 189.587 67.8691 191.908C67.7514 193.046 67.76 194.195 67.8947 195.331C67.9323 195.901 68.0888 196.46 68.1778 197.022L68.6196 198.682L68.6031 198.632C70.2192 202.787 71.7294 206.974 73.0209 211.244C73.6644 213.38 74.2087 215.548 74.7058 217.731C74.9492 218.824 75.1732 219.923 75.3489 221.039C75.4365 221.596 75.5135 222.157 75.5535 222.731C75.6218 223.333 75.5949 223.942 75.4738 224.535L75.4378 224.251C76.7982 226.699 78.3717 229.023 80.1402 231.194C81.8914 233.375 83.847 235.384 85.9804 237.193C88.0732 238.994 90.393 240.512 92.8806 241.71C95.2966 242.89 97.9522 243.497 100.641 243.484L100.737 243.487C100.989 243.455 101.265 243.26 101.307 242.553C101.323 242.191 101.302 241.828 101.244 241.47C101.155 241.081 101.075 240.689 100.959 240.295C100.421 238.671 99.751 237.094 98.9553 235.58C98.1494 234.033 97.2812 232.522 96.405 230.981L95.0812 228.619L93.8988 226.177C92.3254 222.887 91.3191 219.355 90.9223 215.73C90.7483 213.895 90.9057 212.044 91.3871 210.266C91.647 209.377 92.0477 208.535 92.574 207.773C93.1184 207.026 93.8436 206.428 94.6818 206.037C94.6935 206.032 94.706 206.029 94.7188 206.029C94.7315 206.029 94.7441 206.031 94.756 206.036C94.7678 206.04 94.7786 206.047 94.7878 206.056C94.7969 206.065 94.8042 206.075 94.8093 206.087C94.818 206.109 94.8186 206.134 94.811 206.156C94.8033 206.179 94.7879 206.198 94.7674 206.21C94.0452 206.68 93.4426 207.312 93.0074 208.056C92.5997 208.808 92.3152 209.621 92.1648 210.464C91.8694 212.158 91.8655 213.89 92.1532 215.586C92.7866 219.005 93.9321 222.308 95.5512 225.385L96.7922 227.69L98.1242 229.949L99.5041 232.259C99.9699 233.028 100.364 233.849 100.797 234.641C101.662 236.271 102.361 237.983 102.884 239.753C103.176 240.723 103.292 241.737 103.226 242.747C103.182 243.382 102.948 243.989 102.554 244.489C102.317 244.771 102.018 244.994 101.681 245.142C101.333 245.292 100.955 245.359 100.576 245.338L100.671 245.341C99.1817 245.327 97.6998 245.125 96.2607 244.74C94.848 244.342 93.4832 243.791 92.1907 243.095C90.9067 242.428 89.6879 241.642 88.55 240.748C87.4144 239.876 86.3309 238.938 85.3051 237.94C83.2811 235.949 81.3961 233.822 79.6634 231.573C77.9167 229.342 76.2855 227.022 74.7763 224.624C74.7306 224.551 74.7148 224.463 74.7322 224.378L74.7403 224.34C74.8001 223.835 74.7799 223.325 74.6805 222.827C74.6023 222.297 74.4871 221.762 74.361 221.231C74.1089 220.166 73.8044 219.107 73.4871 218.051C72.8483 215.939 72.1095 213.852 71.4179 211.751L67.2105 199.145L67.1954 199.099L67.194 199.095C67.0609 198.491 66.9128 197.892 66.8099 197.283C66.7482 196.666 66.6225 196.06 66.6175 195.438C66.5459 194.202 66.6301 192.961 66.8682 191.745C67.1188 190.538 67.5436 189.375 68.1292 188.29C68.6882 187.204 69.4461 186.233 70.3634 185.427C70.3819 185.411 70.4056 185.403 70.4298 185.404C70.454 185.405 70.4769 185.415 70.494 185.433C70.5111 185.45 70.5212 185.473 70.5222 185.497C70.5232 185.521 70.5151 185.545 70.4996 185.563L70.4929 185.571Z" fill="#2E2E2E"/>
<path d="M55.1654 201.898C56.5179 198.595 59.7103 195.413 67.1878 197.03C67.1878 197.03 76.036 218.399 75.1069 224.438C78.4016 224.319 81.6165 223.392 84.4688 221.739C87.3211 220.086 89.7233 217.757 91.4639 214.957C91.4639 214.957 100.424 223.044 97.4044 230.709C97.4044 230.709 91.8229 236.949 84.7424 236.732C84.7424 236.732 93.9204 244.645 100.656 244.412C100.656 244.412 107.856 249.987 99.727 250.916C94.3624 251.374 88.9725 251.46 83.596 251.172C82.0575 251.109 80.5516 250.709 79.1856 249.998C77.8196 249.288 76.6271 248.285 75.693 247.06C71.6096 241.695 64.0323 230.328 55.3979 210.498C54.7886 209.152 54.4541 207.698 54.4142 206.221C54.3743 204.744 54.6297 203.274 55.1654 201.898Z" fill="#2E2E2E"/>
<path d="M112.88 218.816C113.132 221.103 113.216 223.406 113.132 225.705C113.099 226.865 112.992 228.021 112.811 229.167C112.646 230.339 112.354 231.49 111.938 232.598C111.719 233.174 111.446 233.727 111.122 234.251C110.928 234.505 110.718 234.755 110.511 235.005C110.305 235.269 110.166 235.366 110.02 235.598C109.449 236.478 109.044 237.454 108.824 238.48C108.349 240.623 108.26 242.835 108.564 245.01C108.754 247.13 109.532 249.154 110.809 250.857C111.113 251.22 111.481 251.527 111.893 251.761C112.09 251.874 112.298 251.967 112.514 252.038C112.62 252.078 112.734 252.089 112.843 252.119L113.242 252.209C114.416 252.482 115.551 252.897 116.623 253.447C118.668 254.323 120.824 254.912 123.029 255.198L124.705 255.445L126.397 255.613C127.526 255.728 128.658 255.835 129.797 255.878C134.354 256.135 138.922 256.143 143.48 255.904C145.761 255.814 148.04 255.64 150.319 255.508C152.598 255.354 154.871 255.115 157.146 254.911C166.24 254.023 175.321 253.016 184.404 252.044L183.549 252.853C183.537 252.909 183.544 252.757 183.525 252.68C183.511 252.578 183.49 252.477 183.461 252.378C183.399 252.155 183.315 251.938 183.209 251.732C183.104 251.507 182.979 251.292 182.834 251.09C182.699 250.869 182.544 250.662 182.37 250.471C182.026 250.062 181.656 249.676 181.263 249.315C180.827 248.976 180.433 248.601 179.969 248.287C178.12 246.972 176.13 245.868 174.036 244.994C173.006 244.495 171.91 244.116 170.849 243.67L167.576 242.516C165.341 241.785 163.126 240.989 160.919 240.169C156.462 238.592 152.143 236.649 148.008 234.358C145.918 233.209 143.979 231.802 142.238 230.171C140.441 228.554 139.258 226.365 138.892 223.975C138.891 223.962 138.892 223.949 138.896 223.937C138.899 223.925 138.905 223.913 138.913 223.904C138.921 223.894 138.931 223.886 138.942 223.88C138.954 223.874 138.966 223.87 138.979 223.869C139.003 223.867 139.027 223.874 139.046 223.889C139.066 223.904 139.079 223.925 139.084 223.949C139.64 226.193 140.932 228.186 142.755 229.609C144.546 231.064 146.498 232.309 148.573 233.319C152.762 235.341 157.084 237.074 161.508 238.507C163.717 239.255 165.952 239.933 168.176 240.644L171.55 241.775C172.656 242.219 173.786 242.59 174.874 243.097C177.106 244.037 179.226 245.224 181.195 246.634C181.703 246.976 182.156 247.421 182.635 247.813C183.097 248.252 183.529 248.721 183.93 249.217C184.142 249.466 184.334 249.733 184.502 250.014C184.69 250.294 184.854 250.59 184.992 250.898C185.144 251.218 185.265 251.552 185.351 251.896C185.399 252.079 185.434 252.266 185.454 252.455C185.486 252.688 185.488 252.924 185.459 253.158C185.435 253.367 185.341 253.561 185.191 253.708C185.041 253.855 184.845 253.946 184.636 253.965L184.603 253.968C175.49 254.796 166.369 255.569 157.219 255.938C154.933 256.042 152.65 256.182 150.361 256.236C148.075 256.325 145.792 256.467 143.504 256.52C138.928 256.634 134.357 256.83 129.765 256.792C128.618 256.81 127.468 256.765 126.318 256.711L124.591 256.633L122.862 256.471C120.513 256.297 118.202 255.783 116.001 254.944C115.025 254.474 113.997 254.123 112.937 253.897L112.5 253.802C112.332 253.761 112.16 253.736 111.997 253.679C111.669 253.574 111.352 253.436 111.052 253.267C110.466 252.94 109.943 252.512 109.506 252.004C108.696 251.042 108.085 249.928 107.71 248.727C107.335 247.584 107.082 246.405 106.953 245.209C106.672 242.839 106.819 240.437 107.388 238.118C107.665 236.905 108.196 235.764 108.944 234.77C109.112 234.521 109.434 234.26 109.582 234.075L110.08 233.524C110.377 233.088 110.633 232.625 110.845 232.142C111.652 230.059 112.157 227.871 112.344 225.645C112.588 223.382 112.702 221.106 112.687 218.83C112.687 218.804 112.696 218.779 112.714 218.761C112.731 218.742 112.756 218.731 112.782 218.73C112.806 218.73 112.829 218.739 112.847 218.755C112.865 218.771 112.877 218.793 112.88 218.816Z" fill="#2E2E2E"/>
<path d="M119.469 231.405C119.404 232.93 119.693 234.448 120.314 235.842C120.631 236.503 121.065 237.101 121.597 237.606C122.164 238.141 122.773 238.631 123.418 239.07C122.592 238.965 121.803 238.663 121.117 238.19C120.399 237.71 119.822 237.047 119.446 236.27C119.072 235.5 118.883 234.653 118.896 233.797C118.894 232.966 119.091 232.146 119.469 231.405Z" fill="#2E2E2E"/>
<path d="M110.066 251.328C110.066 251.328 104.566 253.238 107.604 263.226C107.604 263.226 107.159 266.942 120.399 266.245L187.059 266.332C187.059 266.332 191.993 255.426 181.745 253.287L165.01 254.836C165.01 254.836 169.174 244.877 168.013 241.625C166.229 238.716 163.532 236.48 160.342 235.268C157.152 234.056 153.651 233.936 150.385 234.927C150.385 234.927 151.073 250.907 138.755 256.37C138.755 256.37 120.637 255.458 110.066 251.328Z" fill="#2E2E2E"/>
<path d="M92.5118 186.895C92.1829 187.078 91.8441 187.253 91.5054 187.427C91.6179 187.264 91.7682 187.13 91.9434 187.037C92.1186 186.945 92.3136 186.896 92.5118 186.895Z" fill="#FF0000"/>
<path d="M176.244 66.2734C176.165 69.1702 175.886 72.0582 175.409 74.9164C174.963 77.7762 174.336 80.605 173.606 83.4125C172.849 86.2245 171.886 88.977 170.724 91.6475L169.77 93.6239C169.41 94.2655 169.026 94.8952 168.653 95.5238C168.264 96.1445 167.779 96.7175 167.339 97.2966C166.848 97.8394 166.32 98.3468 165.757 98.815L166.345 97.8991C166.556 97.6136 166.741 97.3096 166.898 96.9908C167.196 96.3358 167.562 95.7387 167.817 95.0727L168.613 93.1032L169.319 91.095C170.193 88.3918 170.999 85.6621 171.739 82.906L173.937 74.6075C174.664 71.8309 175.397 69.0516 176.244 66.2734Z" fill="#2E2E2E"/>
<path d="M182.124 108.253C182.845 110.266 183.499 112.297 184.172 114.324C184.855 116.347 185.488 118.385 186.129 120.42C187.398 124.493 188.612 128.582 189.798 132.679L189.576 132.288C191.683 134.413 193.873 136.492 196.054 138.559C198.244 140.62 200.466 142.644 202.72 144.63C204.984 146.604 207.287 148.529 209.685 150.325C212.012 152.224 214.65 153.706 217.482 154.705C215.963 154.512 214.486 154.072 213.108 153.404C211.712 152.778 210.36 152.057 209.062 151.246C206.477 149.63 203.995 147.855 201.631 145.93C199.256 144.029 196.972 142.023 194.747 139.957C192.513 137.896 190.37 135.758 188.26 133.555L188.25 133.545C188.148 133.438 188.075 133.307 188.037 133.164C186.959 129.037 185.908 124.904 184.912 120.755C184.422 118.678 183.922 116.604 183.472 114.516C183.013 112.431 182.534 110.351 182.124 108.253Z" fill="#2E2E2E"/>
<path d="M40.0541 117.938C37.5376 123.717 34.9482 129.464 32.2857 135.178C29.6247 140.892 26.8619 146.56 23.9972 152.182C21.1038 157.789 18.1705 163.382 14.8466 168.783C13.2181 171.529 11.4121 174.165 9.4401 176.675C8.93993 177.318 8.40273 177.931 7.83122 178.511L6.9605 179.391C6.65434 179.674 6.29972 179.927 5.97013 180.195L5.46305 180.587L4.87554 180.914L4.28484 181.234C4.07055 181.323 3.85087 181.399 3.62712 181.461C3.403 181.526 3.18158 181.606 2.95413 181.653L2.25759 181.724C1.81237 181.756 1.3652 181.748 0.921274 181.702C0.798641 181.7 0.677538 181.674 0.564874 181.626C0.452211 181.578 0.350199 181.507 0.264658 181.419C0.0918992 181.242 -0.00326542 181.003 8.55917e-05 180.755C0.0034366 180.508 0.105028 180.272 0.282526 180.099C0.460023 179.926 0.698874 179.831 0.946543 179.834L0.953012 179.834L1.05409 179.837C5.3613 179.972 9.67267 179.805 13.9566 179.337C16.101 179.114 18.2177 178.743 20.3228 178.325C22.4094 177.879 24.4504 177.241 26.4197 176.42C26.9148 176.234 27.3944 176.01 27.8537 175.748C28.3133 175.494 28.7905 175.262 29.2388 174.991L31.8456 173.082C33.6721 171.747 35.7975 170.879 38.0366 170.554C40.2405 170.255 42.4812 170.376 44.6399 170.911C46.7771 171.409 48.8266 172.228 50.719 173.339C48.7655 172.39 46.6903 171.716 44.5523 171.336C42.4448 170.932 40.2798 170.931 38.1718 171.332C36.1042 171.757 34.1636 172.657 32.503 173.96L29.913 176.014C29.4434 176.324 28.9491 176.592 28.4666 176.883C28.2224 177.022 27.9834 177.175 27.7345 177.304L26.9702 177.647C22.8923 179.401 18.5744 180.534 14.1605 181.008C11.9767 181.303 9.78323 181.485 7.58767 181.605C5.38699 181.727 3.20375 181.772 0.974664 181.706L1.10748 179.841C3.84906 180.265 6.02776 177.777 7.94817 175.46C8.44586 174.882 8.89972 174.255 9.34698 173.62C9.79559 172.987 10.2684 172.376 10.6978 171.726C11.54 170.411 12.4355 169.138 13.2348 167.789C16.5207 162.463 19.553 156.949 22.5324 151.413C25.522 145.879 28.4314 140.296 31.3316 134.707L35.6925 126.325C37.1299 123.522 38.5754 120.723 40.0541 117.938Z" fill="#2E2E2E"/>
<path d="M182.847 145.837C175.637 141.279 168.67 136.349 161.974 131.067C157.473 120.712 159.454 97.5653 159.454 97.5653C159.454 97.5653 189.319 96.5011 182.847 145.837Z" fill="#2E2E2E"/>
<path d="M297.428 228.445H229.955L232.21 240.127H295.173L297.428 228.445Z" fill="#2E2E2E"/>
<path d="M238.596 264.546L243.672 253.61C243.681 253.59 243.694 253.572 243.71 253.557C243.726 253.542 243.745 253.531 243.766 253.523C243.786 253.516 243.808 253.512 243.83 253.513C243.852 253.514 243.874 253.519 243.894 253.529C243.932 253.547 243.962 253.579 243.979 253.618L248.679 264.434L248.145 264.451L251.849 253.56C251.865 253.514 251.89 253.471 251.922 253.434C251.954 253.398 251.993 253.368 252.037 253.346C252.081 253.325 252.129 253.312 252.178 253.309C252.226 253.305 252.275 253.312 252.322 253.328C252.374 253.346 252.421 253.376 252.461 253.415C252.501 253.454 252.532 253.501 252.551 253.553L256.657 264.396L255.86 264.395L259.934 253.522C259.955 253.467 259.987 253.415 260.028 253.372C260.068 253.328 260.117 253.293 260.172 253.268C260.226 253.244 260.285 253.23 260.344 253.228C260.404 253.226 260.463 253.236 260.519 253.256C260.627 253.298 260.716 253.378 260.768 253.482L266.147 264.332L265.251 264.41L268.451 253.556C268.485 253.44 268.563 253.343 268.668 253.284C268.774 253.226 268.898 253.213 269.014 253.246C269.079 253.265 269.139 253.299 269.19 253.345C269.241 253.39 269.281 253.446 269.307 253.509L273.778 264.383L272.983 264.412L276.637 253.566C276.652 253.52 276.676 253.477 276.707 253.44C276.739 253.404 276.777 253.373 276.82 253.351C276.863 253.329 276.911 253.316 276.959 253.312C277.007 253.308 277.056 253.314 277.102 253.328C277.152 253.345 277.198 253.372 277.237 253.408C277.276 253.443 277.307 253.486 277.328 253.534L282.004 264.433L281.485 264.446L285.712 253.626C285.72 253.607 285.731 253.589 285.745 253.573C285.759 253.558 285.776 253.545 285.795 253.536C285.814 253.528 285.834 253.522 285.855 253.522C285.876 253.521 285.897 253.524 285.917 253.531C285.94 253.54 285.961 253.555 285.979 253.573C285.996 253.592 286.009 253.614 286.016 253.639L288.993 264.546L285.708 253.727L286.012 253.74L282.01 264.645C281.991 264.697 281.956 264.742 281.911 264.775C281.867 264.807 281.813 264.826 281.758 264.828C281.702 264.83 281.647 264.815 281.6 264.786C281.553 264.757 281.516 264.714 281.493 264.663L281.491 264.658L276.649 253.832L277.34 253.8L273.789 264.679C273.754 264.786 273.678 264.875 273.578 264.925C273.477 264.976 273.361 264.985 273.254 264.951C273.196 264.931 273.143 264.899 273.098 264.857C273.053 264.815 273.017 264.764 272.993 264.708L268.468 253.857L269.323 253.81L266.177 264.681C266.15 264.774 266.095 264.857 266.02 264.919C265.945 264.981 265.853 265.019 265.756 265.027C265.659 265.036 265.562 265.014 265.477 264.967C265.392 264.919 265.324 264.846 265.281 264.759L259.952 253.884L260.785 253.844L256.656 264.696C256.637 264.748 256.607 264.796 256.569 264.837C256.531 264.878 256.485 264.911 256.434 264.934C256.384 264.957 256.329 264.97 256.273 264.972C256.217 264.974 256.162 264.965 256.109 264.946C256.052 264.924 256 264.89 255.957 264.847C255.914 264.803 255.881 264.751 255.859 264.694L251.852 253.814L252.554 253.806L248.685 264.64L248.684 264.644C248.664 264.699 248.629 264.746 248.582 264.779C248.535 264.813 248.479 264.832 248.422 264.833C248.364 264.835 248.307 264.819 248.259 264.787C248.211 264.755 248.173 264.71 248.151 264.657L243.668 253.749L243.975 253.756L238.596 264.546Z" fill="#2E2E2E"/>
<path d="M229.078 223.236L235.213 207.678C235.229 207.639 235.256 207.605 235.29 207.581C235.325 207.557 235.366 207.544 235.408 207.543C235.45 207.542 235.491 207.554 235.527 207.576C235.563 207.599 235.591 207.632 235.608 207.67L235.61 207.676C237.865 212.804 240.096 217.941 242.303 223.088L241.596 223.111L246.882 207.597C246.915 207.501 246.977 207.418 247.058 207.358C247.14 207.298 247.239 207.265 247.34 207.263C247.441 207.261 247.541 207.29 247.625 207.347C247.709 207.404 247.774 207.485 247.81 207.579L247.812 207.587L253.657 223.039L252.601 223.037L258.409 207.547C258.437 207.473 258.479 207.405 258.533 207.347C258.587 207.289 258.651 207.243 258.723 207.21C258.795 207.177 258.873 207.159 258.952 207.157C259.031 207.154 259.11 207.167 259.184 207.195C259.327 207.249 259.445 207.356 259.513 207.493L267.175 222.953L265.987 223.057L270.545 207.591C270.589 207.438 270.692 207.309 270.832 207.232C270.972 207.155 271.136 207.136 271.29 207.181C271.376 207.206 271.456 207.251 271.523 207.311C271.59 207.372 271.643 207.446 271.678 207.529L278.051 223.021L276.998 223.059L282.199 207.605L282.2 207.6C282.232 207.506 282.291 207.424 282.371 207.364C282.45 207.305 282.546 207.271 282.645 207.267C282.744 207.263 282.842 207.289 282.926 207.342C283.009 207.395 283.075 207.472 283.115 207.563L289.785 223.087L289.097 223.104C291.077 217.955 293.084 212.817 295.118 207.688L295.12 207.683C295.14 207.633 295.178 207.593 295.227 207.572C295.277 207.55 295.332 207.549 295.382 207.569C295.413 207.582 295.441 207.602 295.463 207.628C295.485 207.654 295.5 207.685 295.506 207.719L298.511 223.236L295.109 207.801L295.497 207.831C293.612 213.017 291.711 218.195 289.792 223.368C289.758 223.46 289.688 223.534 289.599 223.575C289.509 223.616 289.407 223.62 289.315 223.585C289.222 223.549 289.146 223.477 289.105 223.385L282.215 207.957L283.131 207.914L278.066 223.413C278.02 223.555 277.919 223.672 277.786 223.74C277.653 223.807 277.499 223.819 277.357 223.772C277.28 223.746 277.21 223.704 277.15 223.649C277.09 223.594 277.043 223.526 277.012 223.451L270.567 207.99L271.7 207.928L267.215 223.415C267.179 223.539 267.107 223.649 267.007 223.731C266.907 223.813 266.785 223.863 266.657 223.874C266.528 223.885 266.399 223.857 266.287 223.794C266.175 223.731 266.084 223.635 266.027 223.519L258.432 208.026L259.536 207.973L253.656 223.435C253.63 223.505 253.591 223.568 253.541 223.622C253.49 223.676 253.43 223.72 253.362 223.751C253.295 223.782 253.222 223.799 253.149 223.801C253.075 223.804 253.001 223.792 252.932 223.766C252.856 223.737 252.787 223.693 252.73 223.635C252.673 223.578 252.629 223.509 252.6 223.433L246.886 207.933L247.816 207.922L242.312 223.361C242.296 223.408 242.271 223.451 242.238 223.489C242.205 223.526 242.165 223.556 242.121 223.578C242.076 223.6 242.027 223.613 241.978 223.616C241.928 223.619 241.878 223.612 241.831 223.596C241.781 223.578 241.735 223.55 241.696 223.513C241.657 223.477 241.626 223.433 241.605 223.384C239.451 218.214 237.321 213.034 235.215 207.843L235.611 207.841L229.078 223.236Z" fill="#2E2E2E"/>
<path d="M238.768 247.218C239.144 247.205 239.501 247.046 239.763 246.775C240.024 246.505 240.171 246.143 240.171 245.766C240.171 245.39 240.024 245.028 239.763 244.757C239.501 244.486 239.144 244.327 238.768 244.314C238.392 244.327 238.035 244.486 237.774 244.757C237.512 245.028 237.366 245.39 237.366 245.766C237.366 246.143 237.512 246.505 237.774 246.775C238.035 247.046 238.392 247.205 238.768 247.218Z" fill="#2E2E2E"/>
<path d="M248.446 247.218C248.822 247.205 249.179 247.046 249.44 246.775C249.702 246.505 249.848 246.143 249.848 245.766C249.848 245.39 249.702 245.028 249.44 244.757C249.179 244.486 248.822 244.327 248.446 244.314C248.07 244.327 247.713 244.486 247.451 244.757C247.19 245.028 247.043 245.39 247.043 245.766C247.043 246.143 247.19 246.505 247.451 246.775C247.713 247.046 248.07 247.205 248.446 247.218Z" fill="#2E2E2E"/>
<path d="M258.124 247.218C258.5 247.205 258.857 247.046 259.118 246.775C259.38 246.505 259.526 246.143 259.526 245.766C259.526 245.39 259.38 245.028 259.118 244.757C258.857 244.486 258.5 244.327 258.124 244.314C257.747 244.327 257.391 244.486 257.129 244.757C256.867 245.028 256.721 245.39 256.721 245.766C256.721 246.143 256.867 246.505 257.129 246.775C257.391 247.046 257.747 247.205 258.124 247.218Z" fill="#2E2E2E"/>
<path d="M267.801 247.218C268.178 247.205 268.534 247.046 268.796 246.775C269.057 246.505 269.204 246.143 269.204 245.766C269.204 245.39 269.057 245.028 268.796 244.757C268.534 244.486 268.178 244.327 267.801 244.314C267.425 244.327 267.068 244.486 266.807 244.757C266.545 245.028 266.399 245.39 266.399 245.766C266.399 246.143 266.545 246.505 266.807 246.775C267.068 247.046 267.425 247.205 267.801 247.218Z" fill="#2E2E2E"/>
<path d="M277.479 247.218C277.855 247.205 278.212 247.046 278.474 246.775C278.735 246.505 278.881 246.143 278.881 245.766C278.881 245.39 278.735 245.028 278.474 244.757C278.212 244.486 277.855 244.327 277.479 244.314C277.103 244.327 276.746 244.486 276.485 244.757C276.223 245.028 276.077 245.39 276.077 245.766C276.077 246.143 276.223 246.505 276.485 246.775C276.746 247.046 277.103 247.205 277.479 247.218Z" fill="#2E2E2E"/>
<path d="M287.156 247.218C287.533 247.205 287.889 247.046 288.151 246.775C288.412 246.505 288.559 246.143 288.559 245.766C288.559 245.39 288.412 245.028 288.151 244.757C287.889 244.486 287.533 244.327 287.156 244.314C286.78 244.327 286.423 244.486 286.162 244.757C285.9 245.028 285.754 245.39 285.754 245.766C285.754 246.143 285.9 246.505 286.162 246.775C286.423 247.046 286.78 247.205 287.156 247.218Z" fill="#2E2E2E"/>
<path d="M92.5118 186.895C92.1829 187.078 91.8441 187.253 91.5054 187.427C91.6179 187.264 91.7682 187.13 91.9434 187.037C92.1186 186.945 92.3136 186.896 92.5118 186.895Z" fill="#FF0000"/>
<path d="M117.467 107.568C117.844 107.555 118.2 107.397 118.462 107.126C118.724 106.855 118.87 106.493 118.87 106.117C118.87 105.74 118.724 105.378 118.462 105.107C118.2 104.837 117.844 104.678 117.467 104.665C117.091 104.678 116.734 104.837 116.473 105.107C116.211 105.378 116.065 105.74 116.065 106.117C116.065 106.493 116.211 106.855 116.473 107.126C116.734 107.397 117.091 107.555 117.467 107.568Z" fill="#2E2E2E"/>
<path d="M124.668 107.801C125.044 107.788 125.401 107.629 125.662 107.358C125.924 107.087 126.07 106.726 126.07 106.349C126.07 105.973 125.924 105.611 125.662 105.34C125.401 105.069 125.044 104.91 124.668 104.897C124.292 104.91 123.935 105.069 123.673 105.34C123.412 105.611 123.266 105.973 123.266 106.349C123.266 106.726 123.412 107.087 123.673 107.358C123.935 107.629 124.292 107.788 124.668 107.801Z" fill="#2E2E2E"/>
<path d="M131.403 108.498C131.78 108.485 132.136 108.326 132.398 108.056C132.66 107.785 132.806 107.423 132.806 107.046C132.806 106.67 132.66 106.308 132.398 106.037C132.136 105.766 131.78 105.608 131.403 105.595C131.027 105.608 130.67 105.766 130.409 106.037C130.147 106.308 130.001 106.67 130.001 107.046C130.001 107.423 130.147 107.785 130.409 108.056C130.67 108.326 131.027 108.485 131.403 108.498Z" fill="#2E2E2E"/>
<path d="M138.139 108.73C138.515 108.717 138.872 108.559 139.134 108.288C139.395 108.017 139.541 107.655 139.541 107.279C139.541 106.902 139.395 106.54 139.134 106.27C138.872 105.999 138.515 105.84 138.139 105.827C137.763 105.84 137.406 105.999 137.145 106.27C136.883 106.54 136.737 106.902 136.737 107.279C136.737 107.655 136.883 108.017 137.145 108.288C137.406 108.559 137.763 108.717 138.139 108.73Z" fill="#2E2E2E"/>
<path d="M145.571 108.033C145.948 108.02 146.304 107.862 146.566 107.591C146.828 107.32 146.974 106.958 146.974 106.582C146.974 106.205 146.828 105.843 146.566 105.572C146.304 105.302 145.948 105.143 145.571 105.13C145.195 105.143 144.838 105.302 144.577 105.572C144.315 105.843 144.169 106.205 144.169 106.582C144.169 106.958 144.315 107.32 144.577 107.591C144.838 107.862 145.195 108.02 145.571 108.033Z" fill="#2E2E2E"/>
<path d="M153.004 106.872C153.38 106.859 153.737 106.7 153.999 106.43C154.26 106.159 154.406 105.797 154.406 105.42C154.406 105.044 154.26 104.682 153.999 104.411C153.737 104.14 153.38 103.982 153.004 103.969C152.628 103.982 152.271 104.14 152.009 104.411C151.748 104.682 151.602 105.044 151.602 105.42C151.602 105.797 151.748 106.159 152.009 106.43C152.271 106.7 152.628 106.859 153.004 106.872Z" fill="#2E2E2E"/>
<path d="M179.018 106.175C179.394 106.162 179.75 106.003 180.012 105.732C180.274 105.461 180.42 105.1 180.42 104.723C180.42 104.347 180.274 103.985 180.012 103.714C179.75 103.443 179.394 103.285 179.018 103.271C178.641 103.285 178.285 103.443 178.023 103.714C177.761 103.985 177.615 104.347 177.615 104.723C177.615 105.1 177.761 105.461 178.023 105.732C178.285 106.003 178.641 106.162 179.018 106.175Z" fill="#2E2E2E"/>
<path d="M116.539 99.0116C118.142 99.1766 119.74 99.357 121.344 99.4831C122.944 99.6413 124.544 99.7856 126.147 99.8898C129.349 100.114 132.551 100.352 135.756 100.372C138.957 100.482 142.162 100.429 145.358 100.215C146.16 100.194 146.952 100.088 147.749 100.014C148.546 99.9382 149.344 99.8614 150.131 99.7152C150.919 99.585 151.725 99.5144 152.505 99.3344C153.285 99.1518 154.071 98.9788 154.862 98.8154C151.817 99.9175 148.647 100.637 145.424 100.956C144.62 101.043 143.814 101.125 143.007 101.188L140.583 101.295C138.967 101.351 137.351 101.365 135.734 101.338C132.503 101.237 129.279 101.012 126.075 100.627C122.87 100.26 119.686 99.7204 116.539 99.0116Z" fill="#2E2E2E"/>
<path d="M67.3565 82.7744C67.7328 82.7614 68.0894 82.6028 68.351 82.332C68.6127 82.0612 68.7589 81.6993 68.7589 81.3228C68.7589 80.9462 68.6127 80.5844 68.351 80.3135C68.0894 80.0427 67.7328 79.8841 67.3565 79.8711C66.9802 79.8841 66.6236 80.0427 66.362 80.3135C66.1003 80.5844 65.9541 80.9462 65.9541 81.3228C65.9541 81.6993 66.1003 82.0612 66.362 82.332C66.6236 82.6028 66.9802 82.7614 67.3565 82.7744Z" fill="#2E2E2E"/>
<path d="M73.8018 87.1299C74.1781 87.1169 74.5347 86.9582 74.7963 86.6874C75.058 86.4166 75.2042 86.0548 75.2042 85.6782C75.2042 85.3017 75.058 84.9398 74.7963 84.669C74.5347 84.3982 74.1781 84.2396 73.8018 84.2266C73.4255 84.2396 73.0689 84.3982 72.8073 84.669C72.5457 84.9398 72.3994 85.3017 72.3994 85.6782C72.3994 86.0548 72.5457 86.4166 72.8073 86.6874C73.0689 86.9582 73.4255 87.1169 73.8018 87.1299Z" fill="#2E2E2E"/>
<path d="M80.5952 92.0068C80.9716 91.9938 81.3282 91.8352 81.5898 91.5644C81.8514 91.2936 81.9977 90.9317 81.9977 90.5552C81.9977 90.1786 81.8514 89.8168 81.5898 89.546C81.3282 89.2751 80.9716 89.1165 80.5952 89.1035C80.2189 89.1165 79.8623 89.2751 79.6007 89.546C79.3391 89.8168 79.1929 90.1786 79.1929 90.5552C79.1929 90.9317 79.3391 91.2936 79.6007 91.5644C79.8623 91.8352 80.2189 91.9938 80.5952 92.0068Z" fill="#2E2E2E"/>
<path d="M86.8666 96.3623C87.2429 96.3493 87.5995 96.1906 87.8611 95.9198C88.1227 95.649 88.2689 95.2872 88.2689 94.9106C88.2689 94.5341 88.1227 94.1723 87.8611 93.9015C87.5995 93.6307 87.2429 93.472 86.8666 93.459C86.4903 93.472 86.1338 93.6307 85.8722 93.9015C85.6106 94.1723 85.4644 94.5341 85.4644 94.9106C85.4644 95.2872 85.6106 95.649 85.8722 95.9198C86.1338 96.1906 86.4903 96.3493 86.8666 96.3623Z" fill="#2E2E2E"/>
<path d="M94.0087 100.368C94.385 100.355 94.7416 100.196 95.0032 99.9257C95.2648 99.6549 95.411 99.293 95.411 98.9165C95.411 98.54 95.2648 98.1781 95.0032 97.9073C94.7416 97.6365 94.385 97.4779 94.0087 97.4648C93.6324 97.4779 93.2759 97.6365 93.0143 97.9073C92.7527 98.1781 92.6064 98.54 92.6064 98.9165C92.6064 99.293 92.7527 99.6549 93.0143 99.9257C93.2759 100.196 93.6324 100.355 94.0087 100.368Z" fill="#2E2E2E"/>
<path d="M101.325 104.375C101.702 104.362 102.058 104.203 102.32 103.933C102.581 103.662 102.728 103.3 102.728 102.923C102.728 102.547 102.581 102.185 102.32 101.914C102.058 101.643 101.702 101.485 101.325 101.472C100.949 101.485 100.592 101.643 100.331 101.914C100.069 102.185 99.9229 102.547 99.9229 102.923C99.9229 103.3 100.069 103.662 100.331 103.933C100.592 104.203 100.949 104.362 101.325 104.375Z" fill="#2E2E2E"/>
<path d="M12.2514 178.642C12.6277 178.629 12.9842 178.47 13.2458 178.199C13.5074 177.928 13.6536 177.566 13.6536 177.19C13.6536 176.813 13.5074 176.452 13.2458 176.181C12.9842 175.91 12.6277 175.751 12.2514 175.738C11.8751 175.751 11.5185 175.91 11.2569 176.181C10.9953 176.452 10.8491 176.813 10.8491 177.19C10.8491 177.566 10.9953 177.928 11.2569 178.199C11.5185 178.47 11.8751 178.629 12.2514 178.642Z" fill="#2E2E2E"/>
<path d="M19.4516 176.784C19.8279 176.771 20.1844 176.613 20.446 176.342C20.7076 176.071 20.8539 175.709 20.8539 175.333C20.8539 174.956 20.7076 174.594 20.446 174.323C20.1844 174.053 19.8279 173.894 19.4516 173.881C19.0753 173.894 18.7187 174.053 18.4571 174.323C18.1955 174.594 18.0493 174.956 18.0493 175.333C18.0493 175.709 18.1955 176.071 18.4571 176.342C18.7187 176.613 19.0753 176.771 19.4516 176.784Z" fill="#2E2E2E"/>
<path d="M26.6519 173.997C27.0282 173.984 27.3848 173.825 27.6465 173.555C27.9081 173.284 28.0543 172.922 28.0543 172.545C28.0543 172.169 27.9081 171.807 27.6465 171.536C27.3848 171.265 27.0282 171.107 26.6519 171.094C26.2756 171.107 25.919 171.265 25.6574 171.536C25.3957 171.807 25.2495 172.169 25.2495 172.545C25.2495 172.922 25.3957 173.284 25.6574 173.555C25.919 173.825 26.2756 173.984 26.6519 173.997Z" fill="#2E2E2E"/>
<path d="M32.9228 169.584C33.2991 169.571 33.6556 169.412 33.9172 169.141C34.1788 168.871 34.325 168.509 34.325 168.132C34.325 167.756 34.1788 167.394 33.9172 167.123C33.6556 166.852 33.2991 166.694 32.9228 166.681C32.5465 166.694 32.1899 166.852 31.9283 167.123C31.6667 167.394 31.5205 167.756 31.5205 168.132C31.5205 168.509 31.6667 168.871 31.9283 169.141C32.1899 169.412 32.5465 169.571 32.9228 169.584Z" fill="#2E2E2E"/>
<path d="M40.588 168.887C40.9643 168.874 41.3208 168.715 41.5825 168.444C41.8441 168.173 41.9903 167.812 41.9903 167.435C41.9903 167.059 41.8441 166.697 41.5825 166.426C41.3208 166.155 40.9643 165.996 40.588 165.983C40.2116 165.996 39.855 166.155 39.5934 166.426C39.3318 166.697 39.1855 167.059 39.1855 167.435C39.1855 167.812 39.3318 168.173 39.5934 168.444C39.855 168.715 40.2116 168.874 40.588 168.887Z" fill="#2E2E2E"/>
</svg>
